<?xml version="1.0" standalone="no"?>
<!DOCTYPE svg PUBLIC "-//W3C//DTD SVG 1.1//EN" "http://www.w3.org/Graphics/SVG/1.1/DTD/svg11.dtd" >
<svg>
<metadata>
Created by FontForge 20090622 at Fri Jul  1 13:12:17 2016
 By deploy user
Copyright (c) 2008 by G-Type Designed and digitized by Nick Cooke. All rights reserved.
</metadata>
<defs>
<font id="HouschkaPro-ExtraBold" horiz-adv-x="600" >
  <font-face 
    font-family="Houschka Pro ExtraBold"
    font-weight="800"
    font-stretch="normal"
    units-per-em="1000"
    panose-1="2 0 5 3 0 0 0 2 0 3"
    ascent="760"
    descent="-240"
    x-height="462"
    cap-height="681"
    bbox="-162 -399.067 1282 994"
    underline-thickness="50"
    underline-position="-50"
    unicode-range="U+0020-U+FB06"
  />
<missing-glyph horiz-adv-x="500" 
d="M0 690h500v-690h-500v690zM250 301l-181 -249h361zM69 638l181 -249l180 249h-361zM218 345l-166 229v-458zM282 345l166 -229v458z" />
    <glyph glyph-name="ffj" unicode="ffj" horiz-adv-x="900" 
d="M677 335h-119v-317q0 -8 -5 -13t-13 -5h-126q-8 0 -13 5t-5 13v317h-151v-317q0 -8 -5.5 -13t-12.5 -5h-126q-7 0 -12.5 5t-5.5 13v317h-47q-8 0 -13 5.5t-5 12.5v91q0 8 5 13t13 5h47v33q0 91 46 140q41 44 111 44q88 0 146 -42q13 -10 7 -23l-37 -80q-7 -14 -26 -5
q-26 14 -47 14q-20 0 -30 -16q-8 -15 -8 -44v-21h151v43q0 74 37 121q49 63 148 63q102 0 164 -45q13 -10 7 -23l-41 -86q-8 -16 -26 -5q-43 23 -67 23q-28 0 -43 -15q-17 -16 -17 -51v-25h263q7 0 12.5 -5t5.5 -13v-409q0 -204 -121 -273q-19 -11 -35 7l-77 77
q-16 15 -1 27q26 20 39.5 37t23 53.5t9.5 93.5v278z" />
    <glyph glyph-name="fj" unicode="fj" horiz-adv-x="587" 
d="M245 335v-317q0 -8 -5.5 -13t-12.5 -5h-126q-7 0 -12.5 5t-5.5 13v317h-47q-8 0 -13 5.5t-5 12.5v91q0 8 5 13t13 5h47v43q0 74 37 121q49 63 148 63q102 0 164 -45q13 -10 7 -23l-41 -86q-9 -15 -26 -5q-43 23 -67 23q-28 0 -43 -15q-17 -16 -17 -51v-25h263q8 0 13 -5
t5 -13v-409q0 -204 -121 -273q-17 -10 -35 7l-77 77q-16 15 -1 27q26 20 39.5 37t23 53.5t9.5 93.5v278h-119z" />
    <glyph glyph-name="ff" unicode="ff" horiz-adv-x="699" 
d="M396 335h-151v-317q0 -8 -5.5 -13t-12.5 -5h-126q-7 0 -12.5 5t-5.5 13v317h-47q-8 0 -13 5.5t-5 12.5v91q0 8 5 13t13 5h47v33q0 91 46 140q41 44 111 44q88 0 146 -42q13 -10 7 -23l-37 -80q-7 -14 -26 -5q-26 14 -47 14q-20 0 -30 -16q-8 -15 -8 -44v-21h151v43
q0 92 49 141q43 43 119 43q102 0 164 -45q13 -10 7 -23l-41 -86q-9 -15 -26 -5q-43 23 -67 23q-23 0 -33 -15q-10 -14 -10 -45v-31h83q7 0 12.5 -5t5.5 -13v-91q0 -7 -5.5 -12.5t-12.5 -5.5h-83v-317q0 -8 -5 -13t-13 -5h-126q-8 0 -13 5t-5 13v317z" />
    <glyph glyph-name="fi" unicode="fi" horiz-adv-x="597" 
d="M305 553q-28 0 -43 -15q-17 -16 -17 -51v-25h273q8 0 13 -5t5 -13v-426q0 -8 -5 -13t-13 -5h-126q-8 0 -13 5t-5 13v317h-129v-317q0 -8 -5.5 -13t-12.5 -5h-126q-7 0 -12.5 5t-5.5 13v317h-47q-8 0 -13 5.5t-5 12.5v91q0 8 5 13t13 5h47v43q0 74 37 121q49 63 148 63
q102 0 164 -45q13 -10 7 -23l-41 -86q-9 -15 -26 -5q-43 23 -67 23z" />
    <glyph glyph-name="fl" unicode="fl" horiz-adv-x="587" 
d="M508 652q18 -8 18 -24v-610q0 -8 -5 -13t-13 -5h-126q-8 0 -13 5t-5 13v504q0 14 -10 21q-19 12 -48 12q-61 0 -61 -75v-18h63q8 0 13 -5t5 -13v-91q0 -7 -5 -12.5t-13 -5.5h-63v-317q0 -8 -5.5 -13t-12.5 -5h-126q-7 0 -12.5 5t-5.5 13v317h-47q-8 0 -13 5.5t-5 12.5v91
q0 8 5 13t13 5h47v43q0 184 225 184q54 0 112 -12t88 -25z" />
    <glyph glyph-name="ffi" unicode="ffi" horiz-adv-x="900" 
d="M396 335h-151v-317q0 -8 -5.5 -13t-12.5 -5h-126q-7 0 -12.5 5t-5.5 13v317h-47q-8 0 -13 5.5t-5 12.5v91q0 8 5 13t13 5h47v33q0 91 46 140q41 44 111 44q88 0 146 -42q13 -10 7 -23l-37 -80q-7 -14 -26 -5q-26 14 -47 14q-20 0 -30 -16q-8 -15 -8 -44v-21h151v43
q0 74 37 121q49 63 148 63q102 0 164 -45q13 -10 7 -23l-41 -86q-9 -15 -26 -5q-43 23 -67 23q-28 0 -43 -15q-17 -16 -17 -51v-25h263q7 0 12.5 -5t5.5 -13v-426q0 -8 -5.5 -13t-12.5 -5h-126q-7 0 -12.5 5t-5.5 13v317h-119v-317q0 -8 -5 -13t-13 -5h-126q-8 0 -13 5
t-5 13v317z" />
    <glyph glyph-name="ffl" unicode="ffl" horiz-adv-x="900" 
d="M283 543q-20 0 -30 -16q-8 -15 -8 -44v-21h151v43q0 184 225 184q54 0 112 -12t88 -25q18 -8 18 -24v-610q0 -8 -5.5 -13t-12.5 -5h-126q-7 0 -12.5 5t-5.5 13v504q0 14 -10 21q-19 12 -48 12q-61 0 -61 -75v-18h63q7 0 12.5 -5t5.5 -13v-91q0 -7 -5.5 -12.5t-12.5 -5.5
h-63v-317q0 -8 -5 -13t-13 -5h-126q-8 0 -13 5t-5 13v317h-151v-317q0 -8 -5.5 -13t-12.5 -5h-126q-7 0 -12.5 5t-5.5 13v317h-47q-8 0 -13 5.5t-5 12.5v91q0 8 5 13t13 5h47v33q0 91 46 140q41 44 111 44q88 0 146 -42q13 -10 7 -23l-37 -80q-7 -14 -26 -5q-26 14 -47 14z
" />
    <glyph glyph-name=".notdef" horiz-adv-x="500" 
d="M0 690h500v-690h-500v690zM250 301l-181 -249h361zM69 638l181 -249l180 249h-361zM218 345l-166 229v-458zM282 345l166 -229v458z" />
    <glyph glyph-name=".null" horiz-adv-x="0" 
 />
    <glyph glyph-name="nonmarkingreturn" horiz-adv-x="333" 
 />
    <glyph glyph-name="space" unicode=" " horiz-adv-x="261" 
 />
    <glyph glyph-name="exclam" unicode="!" horiz-adv-x="369" 
d="M285 87q0 -40 -28 -68t-68 -28t-68 28t-28 68q0 41 27.5 68.5t68.5 27.5q40 0 68 -28t28 -68zM104 681h169q17 0 15 -18l-45 -405q-2 -18 -18 -18h-72q-16 0 -18 18l-45 405q-2 18 14 18z" />
    <glyph glyph-name="quotedbl" unicode="&#x22;" horiz-adv-x="401" 
d="M46 681h115q23 0 20 -26l-25 -194q-3 -25 -25 -25h-55q-22 0 -25 25l-25 194q-3 26 20 26zM240 681h115q23 0 20 -26l-25 -194q-3 -25 -25 -25h-55q-22 0 -25 25l-25 194q-3 26 20 26z" />
    <glyph glyph-name="numbersign" unicode="#" horiz-adv-x="678" 
d="M614 86h-126l-31 -148q-5 -18 -27 -18h-82q-23 0 -17 27l29 139h-119l-31 -148q-4 -18 -27 -18h-82q-22 0 -17 27l29 139h-95q-8 0 -13 5t-5 13v90q0 8 5 13t13 5h122l24 114h-99q-7 0 -12.5 5t-5.5 13v90q0 8 5.5 13t12.5 5h125l32 148q4 18 27 18h82q23 0 17 -27
l-30 -139h119l32 148q5 18 27 18h82q22 0 17 -27l-30 -139h96q7 0 12.5 -5t5.5 -13v-90q0 -8 -5.5 -13t-12.5 -5h-122l-24 -114h99q8 0 13 -5t5 -13v-90q0 -8 -5 -13t-13 -5zM292 326l-24 -114h119l24 114h-119z" />
    <glyph glyph-name="dollar" unicode="$" 
d="M547 196q0 -90 -73 -150q-54 -41 -130 -52v-71q0 -7 -5 -12.5t-13 -5.5h-47q-7 0 -12.5 5.5t-5.5 12.5v68q-115 6 -202 58q-13 8 -7 22l53 111q7 15 21 6q95 -56 164 -56q41 0 58 14q19 14 19 37t-19.5 36.5t-59.5 26.5l-29.5 8.5t-35 10.5t-31.5 11t-34.5 15.5
t-28.5 18.5q-72 53 -72 147q0 88 72 139q53 38 132 45v75q0 8 5.5 13t12.5 5h47q8 0 13 -5t5 -13v-74q97 -6 175 -48q14 -6 7 -21l-53 -112q-7 -15 -21 -6q-84 47 -155 47q-30 0 -46 -8q-21 -10 -21 -30t19 -32t57 -23l40 -11.5t48.5 -15t40 -17t42.5 -24.5q70 -53 70 -145z
" />
    <glyph glyph-name="percent" unicode="%" horiz-adv-x="719" 
d="M246 537q0 28 -20 47.5t-49 19.5q-28 0 -47.5 -19.5t-19.5 -47.5t19.5 -47.5t47.5 -19.5q29 0 49 19.5t20 47.5zM331 537q0 -63 -45.5 -108t-107.5 -45q-63 0 -108 44.5t-45 108.5q0 63 45 108t108 45q62 0 107.5 -45t45.5 -108zM473 143q0 -28 20 -47.5t49 -19.5
q28 0 47.5 19.5t19.5 47.5t-19.5 48t-47.5 20q-29 0 -49 -20t-20 -48zM388 143q0 63 45.5 108t107.5 45q63 0 108 -44.5t45 -108.5q0 -63 -45 -108t-108 -45q-62 0 -107.5 45t-45.5 108zM178 0h-62q-11 0 -14.5 7.5t2.5 15.5l412 643q10 15 26 15h62q12 0 15 -7.5t-3 -16.5
l-412 -642q-10 -15 -26 -15z" />
    <glyph glyph-name="ampersand" unicode="&#x26;" horiz-adv-x="706" 
d="M644 151q19 -4 19 -23v-121q0 -17 -22 -17q-76 0 -161 49q-80 -49 -191 -49q-107 0 -176 52t-69 154q0 116 133 190q-32 62 -32 131q0 74 50.5 117t145.5 43q84 0 132.5 -45t48.5 -112q0 -59 -32.5 -102.5t-100.5 -81.5q36 -53 70 -87q7 24 7 66q0 8 5.5 14t12.5 6h117
q18 0 18 -20q0 -89 -31 -149q21 -8 56 -15zM368 523q0 14 -7.5 23t-20.5 9q-34 0 -34 -38q0 -30 16 -60q22 12 34 30.5t12 35.5zM304 115q33 0 60 12q-63 56 -121 133q-36 -28 -36 -67q0 -76 97 -78z" />
    <glyph glyph-name="quotesingle" unicode="'" horiz-adv-x="207" 
d="M46 681h115q23 0 20 -26l-25 -194q-3 -25 -25 -25h-55q-22 0 -25 25l-25 194q-3 26 20 26z" />
    <glyph glyph-name="parenleft" unicode="(" horiz-adv-x="374" 
d="M46 317q0 256 117 448q14 23 40 23h112q21 0 26.5 -12t-3.5 -28q-120 -228 -120 -431q0 -201 120 -429q9 -16 3.5 -28t-26.5 -12h-112q-26 0 -40 23q-117 192 -117 446z" />
    <glyph glyph-name="parenright" unicode=")" horiz-adv-x="374" 
d="M328 317q0 -254 -117 -446q-14 -23 -40 -23h-112q-21 0 -26.5 12t3.5 28q120 228 120 429q0 203 -120 431q-9 16 -3.5 28t26.5 12h112q26 0 40 -23q117 -192 117 -448z" />
    <glyph glyph-name="asterisk" unicode="*" horiz-adv-x="434" 
d="M323 535l-46 -8l33 -34q16 -16 23 -25q11 -14 9.5 -33t-18.5 -32q-20 -13 -36.5 -9.5t-28.5 18.5q-7 9 -18 29l-24 42l-24 -42q-11 -20 -18 -29q-12 -15 -28.5 -18.5t-36.5 9.5q-35 28 -9 65q7 9 23 25l33 34l-46 8l-13 3q-14 3 -21 5q-18 6 -27 21.5t-2 36.5
q6 21 22.5 28t35.5 1q13 -4 32 -13l42 -19l-6 47q-3 24 -3 34q0 19 12 32.5t34 13.5t34 -13.5t12 -32.5q0 -10 -3 -34l-6 -47l42 19q19 9 32 13q19 6 35.5 -1t22.5 -28q7 -21 -2 -36.5t-27 -21.5q-7 -2 -20 -5t-14 -3z" />
    <glyph glyph-name="plus" unicode="+" horiz-adv-x="584" 
d="M368 582v-153h154q8 0 13 -5.5t5 -12.5v-116q0 -7 -5 -12.5t-13 -5.5h-154v-154q0 -7 -5 -12.5t-13 -5.5h-116q-8 0 -13 5.5t-5 12.5v154h-153q-7 0 -12.5 5.5t-5.5 12.5v116q0 7 5.5 12.5t12.5 5.5h153v153q0 8 5 13t13 5h116q8 0 13 -5t5 -13z" />
    <glyph glyph-name="comma" unicode="," horiz-adv-x="311" 
d="M261 49q1 -67 -49.5 -128t-118.5 -80q-18 -4 -26 7l-16 25q-10 15 5 25q46 31 57 50q7 13 7 25q0 15 -11.5 26.5t-25.5 18.5t-25.5 25.5t-11.5 46.5q0 41 27 66.5t72 25.5q56 0 85 -35t31 -98z" />
    <glyph glyph-name="hyphen" unicode="-" horiz-adv-x="532" 
d="M419 200h-306q-7 0 -12.5 5t-5.5 13v116q0 8 5.5 13t12.5 5h306q7 0 12.5 -5t5.5 -13v-116q0 -8 -5.5 -13t-12.5 -5z" />
    <glyph glyph-name="period" unicode="." horiz-adv-x="287" 
d="M238 86q0 -40 -28 -68t-68 -28t-68 28t-28 68t28 68t68 28t68 -28t28 -68z" />
    <glyph glyph-name="slash" unicode="/" horiz-adv-x="428" 
d="M470 654l-325 -636q-9 -18 -27 -18h-139q-13 0 -18 8t1 19l325 636q10 18 27 18h139q13 0 18 -8.5t-1 -18.5z" />
    <glyph glyph-name="zero" unicode="0" 
d="M561 340q0 -172 -67 -261t-194 -89t-194 89t-67 261q0 173 67 262t194 89t194 -89t67 -262zM386 340q0 102 -23 148q-21 42 -63 42q-40 0 -62 -42q-26 -49 -26 -148q0 -101 25 -148q21 -41 63 -41t63 41q23 46 23 148z" />
    <glyph glyph-name="one" unicode="1" 
d="M237 506l-132 -43q-12 -4 -18 0t-6 19v114q0 20 18 26l174 56q21 7 38 7h84q7 0 12.5 -5.5t5.5 -12.5v-515h132q7 0 12.5 -5t5.5 -13v-116q0 -8 -5.5 -13t-12.5 -5h-450q-7 0 -12.5 5t-5.5 13v116q0 8 5.5 13t12.5 5h142v354z" />
    <glyph glyph-name="two" unicode="2" 
d="M247 152h260q7 0 12.5 -5t5.5 -13v-116q0 -8 -5.5 -13t-12.5 -5h-431q-8 0 -13 5t-5 13v61q0 74 18.5 125t61.5 92q37 36 110.5 73.5t96.5 59.5q24 24 24 57q0 26 -18 43q-18 16 -53 16q-68 0 -153 -57q-20 -12 -28 4l-49 100q-7 13 7 23q116 75 238 75q108 0 171 -68
q50 -53 50 -131q0 -91 -63 -154q-37 -37 -105.5 -72.5t-87.5 -50.5q-31 -24 -31 -62z" />
    <glyph glyph-name="three" unicode="3" 
d="M230 277h-49q-7 0 -12.5 5.5t-5.5 12.5v100q0 7 5.5 12.5t12.5 5.5h36q49 0 77 14q36 19 36 63q0 24 -18 41q-17 15 -41 15q-57 0 -123 -46q-19 -13 -27 4l-47 95q-8 17 6 26q98 65 204 65q85 0 139 -44q63 -49 63 -135q0 -110 -93 -155q119 -49 119 -174q0 -92 -69 -144
q-62 -48 -165 -48q-118 0 -206 56q-14 9 -6 23l49 100q8 15 25 4q67 -46 125 -46q35 0 54 12q29 17 29 59q0 43 -37 65q-25 14 -81 14z" />
    <glyph glyph-name="four" unicode="4" horiz-adv-x="602" 
d="M462 0h-133q-7 0 -12.5 5t-5.5 13v100h-276q-7 0 -12.5 5t-5.5 13v102q0 17 10 31l288 397q11 15 29 15h118q8 0 13 -5.5t5 -12.5v-401h80q8 0 13 -5t5 -13v-108q0 -8 -5 -13t-13 -5h-80v-100q0 -8 -5 -13t-13 -5zM311 415l-111 -153h111v153z" />
    <glyph glyph-name="five" unicode="5" 
d="M75 305l24 358q2 18 18 18h361q8 0 13 -5.5t5 -12.5v-116q0 -7 -5 -12.5t-13 -5.5h-232l-6 -79q6 3 33 7q16 3 34 3q123 0 180 -71q48 -58 48 -161q0 -98 -60 -163q-72 -75 -202 -75q-116 0 -199 55q-14 8 -7 23l47 100q8 15 22 6q30 -18 44 -25.5t39 -14.5t54 -7
q47 0 71 30q21 26 21 69q0 47 -19 71q-22 26 -64 26q-29 0 -51 -15q-19 -11 -33 -36q-7 -14 -24 -9l-81 16q-12 2 -15.5 7t-2.5 19z" />
    <glyph glyph-name="six" unicode="6" 
d="M312 301q-27 0 -53 -8q-21 -8 -42 -20q1 -61 18 -94q23 -43 72 -43q31 0 54 21q24 24 24 61q0 38 -18 61q-20 22 -55 22zM340 690q62 0 114 -14q39 -12 82 -37q14 -9 7 -23l-51 -106q-8 -16 -26 -5q-35 18 -56 25q-31 12 -73 12q-54 0 -87 -46q-22 -30 -25 -72
q24 11 48 16q32 6 60 6q113 0 173 -72q48 -58 48 -151q0 -106 -72 -171q-70 -62 -175 -62q-125 0 -190 76q-71 81 -71 249q0 189 83 286q76 89 211 89z" />
    <glyph glyph-name="seven" unicode="7" 
d="M66 681h449q7 0 12.5 -5.5t5.5 -12.5v-102q0 -17 -8 -36l-230 -507q-8 -18 -30 -18h-146q-15 0 -18.5 9.5t2.5 20.5l154 309q14 29 31 59.5l42 72l35 58.5h-165v-73q0 -8 -5 -13t-13 -5h-116q-8 0 -13 5t-5 13v207q0 7 5 12.5t13 5.5z" />
    <glyph glyph-name="eight" unicode="8" 
d="M392 196q0 30 -37 57q-23 16 -61 34q-38 -17 -58 -37q-24 -23 -24 -54q0 -29 19.5 -52t68.5 -23q50 0 71 22.5t21 52.5zM365 508q0 25 -18 40.5t-44 15.5q-27 0 -47 -11.5t-20 -37.5q0 -27 24 -51q16 -15 52 -35q22 14 35 30q18 23 18 49zM449 359q39 -28 59 -47
t36.5 -52t16.5 -76q0 -93 -78 -147q-69 -47 -183 -47q-119 0 -186 47q-75 51 -75 144q0 113 119 178q-29 23 -44.5 38t-31 47t-15.5 71q0 79 60 124q65 52 172 52q111 0 179 -57q55 -47 55 -119q0 -42 -15 -75t-29 -47t-40 -34z" />
    <glyph glyph-name="nine" unicode="9" 
d="M383 406q-1 47 -11 77.5t-27 42t-27.5 14.5t-24.5 3q-34 0 -56 -24t-22 -58q0 -83 73 -83q49 0 95 28zM257 137q57 0 91 47q21 28 27 72q-50 -22 -108 -22q-42 0 -80 12t-71 36.5t-52 69t-19 104.5q0 106 71 169.5t177 63.5q50 0 91.5 -13t82 -46t64 -100.5t23.5 -165.5
q0 -48 -6 -93t-25 -98t-50 -92t-86 -65.5t-127 -26.5q-108 0 -196 51q-6 3 -8 10t1 13l51 106q7 15 22 7q39 -21 64.5 -30t62.5 -9z" />
    <glyph glyph-name="colon" unicode=":" horiz-adv-x="296" 
d="M244 86q0 -40 -28 -68t-68 -28t-68 28t-28 68t28 68t68 28t68 -28t28 -68zM244 374q0 -40 -28 -68t-68 -28t-68 28t-28 68t28 68t68 28t68 -28t28 -68z" />
    <glyph glyph-name="semicolon" unicode=";" horiz-adv-x="296" 
d="M253 374q0 -40 -28 -68t-68 -28t-68 28t-28 68t28 68t68 28t68 -28t28 -68zM267 49q1 -67 -49.5 -128t-118.5 -80q-18 -4 -26 7l-16 25q-10 15 5 25q46 31 57 50q7 13 7 25q0 15 -11.5 26.5t-25.5 18.5t-25.5 25.5t-11.5 46.5q0 41 27 66.5t72 25.5q56 0 85 -35t31 -98z
" />
    <glyph glyph-name="less" unicode="&#x3c;" horiz-adv-x="638" 
d="M47 276v154q0 21 18 28l492 180q7 4 16 1t9 -15v-136q0 -23 -20 -30l-332 -105l332 -105q20 -7 20 -30v-136q0 -12 -9 -15t-16 1l-492 180q-18 7 -18 28z" />
    <glyph glyph-name="equal" unicode="=" horiz-adv-x="585" 
d="M522 162h-459q-7 0 -12.5 5t-5.5 13v116q0 8 5.5 13t12.5 5h459q8 0 13 -5t5 -13v-116q0 -8 -5 -13t-13 -5zM522 390h-459q-7 0 -12.5 5t-5.5 13v116q0 8 5.5 13t12.5 5h459q8 0 13 -5t5 -13v-116q0 -8 -5 -13t-13 -5z" />
    <glyph glyph-name="greater" unicode="&#x3e;" horiz-adv-x="642" 
d="M591 430v-154q0 -21 -18 -28l-492 -180q-7 -4 -16 -1t-9 15v136q0 23 20 30l332 105l-332 105q-20 7 -20 30v136q0 12 9 15t16 -1l492 -180q18 -7 18 -28z" />
    <glyph glyph-name="question" unicode="?" horiz-adv-x="538" 
d="M270 549q-41 0 -78.5 -17.5t-87.5 -55.5q-5 -4 -12 -2t-10 9l-47 94q-6 12 7 23q109 91 236 91q98 0 160 -57q62 -54 62 -136q0 -52 -23 -89t-78 -75q-28 -19 -42.5 -36t-19 -29.5t-6.5 -32.5q-1 -19 -22 -19h-86q-15 0 -24 16q-14 25 -14 60q0 39 41 85q13 14 84 74
q26 22 26 46q0 23 -19 38q-18 13 -47 13zM358 86q0 -40 -28 -68t-68 -28t-68 28t-28 68t28 68t68 28t68 -28t28 -68z" />
    <glyph glyph-name="at" unicode="@" horiz-adv-x="802" 
d="M490 250v75q-92 -5 -128 -24q-35 -17 -35 -48q0 -23 18 -38t51 -15q65 0 94 50zM425 49q68 0 133 15t106 37q19 11 26 -8l12 -34q5 -14 -9 -22q-47 -26 -123 -41t-145 -15q-166 0 -273 99t-107 259q0 145 110.5 248.5t265.5 103.5q142 0 239 -81.5t97 -216.5
q0 -104 -52.5 -180t-137.5 -76q-51 0 -64 39q-38 -42 -109 -42q-52 0 -93 25q-54 34 -54 98q0 82 105 114q50 15 137 20q0 34 -19 55q-22 22 -59 22q-47 0 -103 -32q-19 -11 -26 5l-17 34q-7 14 7 23q68 45 139 45q66 0 110 -38q49 -42 49 -123v-156q0 -21 16 -21
q34 0 68 45t34 139q0 109 -76 172t-190 63q-126 0 -217 -84.5t-91 -203.5q0 -129 88.5 -208t222.5 -79z" />
    <glyph glyph-name="A" unicode="A" horiz-adv-x="695" 
d="M347 526q-45 0 -73 -25q-35 -33 -35 -98v-53h217v53q0 65 -35 98q-28 25 -74 25zM632 411v-393q0 -8 -5 -13t-13 -5h-140q-8 0 -13 5t-5 13v176h-217v-176q0 -8 -5.5 -13t-12.5 -5h-140q-7 0 -12.5 5t-5.5 13v393q0 65 27.5 125t80.5 100q72 54 176 54q105 0 177 -54
q53 -40 80.5 -100t27.5 -125z" />
    <glyph glyph-name="B" unicode="B" horiz-adv-x="612" 
d="M574 186q0 -89 -68.5 -137.5t-160.5 -48.5h-263q-8 0 -13 5t-5 13v645q0 7 5 12.5t13 5.5h199q113 0 174 -46q63 -49 63 -127q0 -104 -83 -143v-4q139 -35 139 -175zM341 477q0 33 -21 49q-16 13 -42 13h-38v-122h30q24 0 41 8q30 15 30 52zM394 209q0 42 -41 58
q-22 9 -62 9h-51v-133h65q35 0 53 7q36 15 36 59z" />
    <glyph glyph-name="C" unicode="C" horiz-adv-x="652" 
d="M402 -10q-171 0 -268 94t-97 257q0 150 106.5 249.5t263.5 99.5q114 0 204 -44q15 -8 7 -23l-57 -119q-7 -12 -22 -7q-73 34 -137 34q-75 0 -128 -54t-53 -136q0 -83 51.5 -137t130.5 -54q73 0 143 35q14 7 21 -6l57 -121q6 -15 -8 -22q-97 -46 -214 -46z" />
    <glyph glyph-name="D" unicode="D" horiz-adv-x="744" 
d="M707 341q0 -206 -152 -292q-87 -49 -224 -49h-249q-8 0 -13 5t-5 13v645q0 7 5 12.5t13 5.5h262q86 0 154 -21.5t125 -80.5q84 -87 84 -238zM240 533v-385h79q72 0 117 22q91 43 91 171q0 92 -47 139q-52 53 -161 53h-79z" />
    <glyph glyph-name="E" unicode="E" horiz-adv-x="629" 
d="M82 681h490q8 0 13 -5.5t5 -12.5v-120q0 -7 -5 -12.5t-13 -5.5h-332v-104h279q7 0 12.5 -5.5t5.5 -12.5v-120q0 -7 -5.5 -12.5t-12.5 -5.5h-279v-109h332q8 0 13 -5t5 -13v-120q0 -8 -5 -13t-13 -5h-490q-8 0 -13 5t-5 13v645q0 7 5 12.5t13 5.5z" />
    <glyph glyph-name="F" unicode="F" horiz-adv-x="591" 
d="M240 265v-247q0 -8 -5 -13t-13 -5h-140q-8 0 -13 5t-5 13v645q0 7 5 12.5t13 5.5h461q7 0 12.5 -5.5t5.5 -12.5v-120q0 -7 -5.5 -12.5t-12.5 -5.5h-303v-104h260q8 0 13 -5.5t5 -12.5v-120q0 -7 -5 -12.5t-13 -5.5h-260z" />
    <glyph glyph-name="G" unicode="G" horiz-adv-x="751" 
d="M407 690q114 0 204 -44q15 -8 7 -23l-57 -119q-7 -13 -22 -7q-88 34 -137 34q-77 0 -129.5 -54.5t-52.5 -135.5q0 -84 50 -139t132 -55q68 0 122 26v54h-104q-8 0 -13 5.5t-5 12.5v120q0 7 5 12.5t13 5.5h253q7 0 12.5 -5.5t5.5 -12.5v-347q0 -8 -5.5 -13t-12.5 -5h-131
q-16 0 -18 16q-58 -26 -141 -26q-153 0 -249.5 92.5t-96.5 258.5q0 149 107.5 249t262.5 100z" />
    <glyph glyph-name="H" unicode="H" horiz-adv-x="740" 
d="M518 681h140q8 0 13 -5.5t5 -12.5v-645q0 -8 -5 -13t-13 -5h-140q-8 0 -13 5t-5 13v247h-260v-247q0 -8 -5 -13t-13 -5h-140q-8 0 -13 5t-5 13v645q0 7 5 12.5t13 5.5h140q8 0 13 -5.5t5 -12.5v-242h260v242q0 7 5 12.5t13 5.5z" />
    <glyph glyph-name="I" unicode="I" horiz-adv-x="304" 
d="M82 681h140q8 0 13 -5.5t5 -12.5v-645q0 -8 -5 -13t-13 -5h-140q-8 0 -13 5t-5 13v645q0 7 5 12.5t13 5.5z" />
    <glyph glyph-name="J" unicode="J" horiz-adv-x="543" 
d="M216 -10q-115 0 -199 69q-13 10 -4 24l66 111q10 14 23 3q56 -51 112 -51q42 0 62 17q28 25 28 101v399q0 7 5 12.5t13 5.5h140q8 0 13 -5.5t5 -12.5v-415q0 -143 -86 -208q-68 -50 -178 -50z" />
    <glyph glyph-name="K" unicode="K" horiz-adv-x="676" 
d="M455 18l-170 240l-45 -48v-192q0 -8 -5 -13t-13 -5h-140q-8 0 -13 5t-5 13v645q0 7 5 12.5t13 5.5h140q8 0 13 -5.5t5 -12.5v-228l196 228q15 18 37 18h178q12 0 15 -8.5t-6 -18.5l-251 -266l254 -357q5 -7 7 -14t-2 -12t-14 -5h-165q-22 0 -34 18z" />
    <glyph glyph-name="L" unicode="L" horiz-adv-x="547" 
d="M82 681h140q8 0 13 -5.5t5 -12.5v-507h263q7 0 12.5 -5t5.5 -13v-120q0 -8 -5.5 -13t-12.5 -5h-421q-8 0 -13 5t-5 13v645q0 7 5 12.5t13 5.5z" />
    <glyph glyph-name="M" unicode="M" horiz-adv-x="843" 
d="M779 663v-645q0 -8 -5.5 -13t-12.5 -5h-134q-7 0 -12.5 5t-5.5 13v357l-105 -195q-10 -18 -28 -18h-103q-17 0 -28 18l-111 195v-357q0 -8 -5 -13t-13 -5h-134q-8 0 -13 5t-5 13v645q0 7 5 12.5t13 5.5h141q22 0 32 -18l166 -298l166 298q10 18 32 18h142q7 0 12.5 -5.5
t5.5 -12.5z" />
    <glyph glyph-name="N" unicode="N" horiz-adv-x="744" 
d="M512 294v369q0 7 5 12.5t13 5.5h132q8 0 13 -5.5t5 -12.5v-645q0 -8 -5 -13t-13 -5h-122q-20 0 -32 18l-276 369v-369q0 -8 -5 -13t-13 -5h-132q-8 0 -13 5t-5 13v645q0 7 5 12.5t13 5.5h123q18 0 32 -18z" />
    <glyph glyph-name="O" unicode="O" horiz-adv-x="811" 
d="M774 339q0 -156 -107.5 -252.5t-260.5 -96.5t-261 97.5t-108 251.5q0 156 108 253.5t261 97.5q152 0 260 -98t108 -253zM587 339q0 81 -51 133.5t-130 52.5t-130.5 -52.5t-51.5 -133.5t51 -133t131 -52q79 0 130 52t51 133z" />
    <glyph glyph-name="P" unicode="P" horiz-adv-x="657" 
d="M445 436q0 54 -35 76q-23 15 -59 15h-111v-182h111q36 0 58 14q36 21 36 77zM82 681h291q103 0 166 -53q85 -70 85 -192q0 -126 -92 -197q-61 -48 -154 -48h-138v-173q0 -8 -5 -13t-13 -5h-140q-8 0 -13 5t-5 13v645q0 7 5 12.5t13 5.5z" />
    <glyph glyph-name="Q" unicode="Q" horiz-adv-x="811" 
d="M791 -61q26 -4 13 -24l-63 -107q-9 -15 -29 -15q-25 0 -73.5 14t-89.5 29.5l-120 46l-118 45.5q-18 7 -18 30v47q-113 33 -184.5 121.5t-71.5 212.5q0 156 108 253.5t261 97.5q152 0 260 -98t108 -253q0 -122 -68 -209.5t-177 -121.5q0 -10 11 -13q147 -43 251 -56z
M587 339q0 81 -51 133.5t-130 52.5t-130.5 -52.5t-51.5 -133.5t51 -133t131 -52q79 0 130 52t51 133z" />
    <glyph glyph-name="R" unicode="R" horiz-adv-x="678" 
d="M564 285q-21 -18 -42 -30l130 -224q7 -11 5.5 -21t-15.5 -10h-154q-24 0 -34 18l-107 204h-107v-204q0 -8 -5 -13t-13 -5h-140q-8 0 -13 5t-5 13v645q0 7 5 12.5t13 5.5h303q112 0 175 -49q79 -62 79 -179q0 -101 -75 -168zM373 532h-133v-162h118q49 0 71 15
q31 20 31 66q0 44 -28 64q-23 17 -59 17z" />
    <glyph glyph-name="S" unicode="S" horiz-adv-x="590" 
d="M285 -10q-142 0 -250 63q-14 8 -7 23l57 119q7 16 22 7q97 -60 176 -60q42 0 62 15q20 14 20 39q0 24 -21.5 39t-62.5 28q-9 3 -40 12.5t-47.5 15t-41 17t-42.5 24.5q-77 58 -77 158q0 95 77 149q70 51 191 51q124 0 228 -53q14 -8 7 -23l-57 -119q-8 -15 -22 -7
q-92 50 -166 50q-30 0 -50 -9q-22 -12 -22 -31q0 -21 20 -34t61 -25l43 -12t52.5 -16t43 -18.5t45.5 -26.5q74 -56 74 -156q0 -98 -78 -160q-75 -60 -195 -60z" />
    <glyph glyph-name="T" unicode="T" horiz-adv-x="616" 
d="M28 681h560q8 0 13 -5.5t5 -12.5v-120q0 -7 -5 -12.5t-13 -5.5h-192v-507q0 -8 -5 -13t-13 -5h-140q-8 0 -13 5t-5 13v507h-192q-8 0 -13 5.5t-5 12.5v120q0 7 5 12.5t13 5.5z" />
    <glyph glyph-name="U" unicode="U" horiz-adv-x="725" 
d="M486 287v376q0 7 5 12.5t13 5.5h140q8 0 13 -5.5t5 -12.5v-394q0 -113 -61 -185q-80 -94 -239 -94q-158 0 -238 94q-61 72 -61 185v394q0 7 5.5 12.5t12.5 5.5h140q7 0 12.5 -5.5t5.5 -12.5v-376q0 -65 25 -97q32 -41 97 -41q68 0 100 41q25 32 25 97z" />
    <glyph glyph-name="V" unicode="V" horiz-adv-x="701" 
d="M697 656l-248 -641q-7 -18 -28 -18h-148q-21 0 -28 18l-240 641q-11 25 14 25h149q23 0 30 -20l149 -443h2l155 443q7 20 30 20h149q22 0 14 -25z" />
    <glyph glyph-name="W" unicode="W" horiz-adv-x="1032" 
d="M793 248v415q0 7 5.5 12.5t12.5 5.5h140q7 0 12.5 -5.5t5.5 -12.5v-418q0 -123 -72 -188q-73 -66 -198 -66q-57 0 -103 15q-44 14 -80 46q-36 -32 -80 -46q-46 -15 -103 -15q-125 0 -198 66q-72 65 -72 188v418q0 7 5.5 12.5t12.5 5.5h140q7 0 12.5 -5.5t5.5 -12.5v-415
q0 -48 26 -72q24 -23 68 -23q55 0 76 29q19 26 19 86v395q0 7 5 12.5t13 5.5h140q8 0 13 -5.5t5 -12.5v-395q0 -60 19 -86q21 -29 76 -29q44 0 68 23q26 24 26 72z" />
    <glyph glyph-name="X" unicode="X" horiz-adv-x="728" 
d="M476 343l245 -314q9 -11 5.5 -20t-17.5 -9h-184q-19 0 -31 17l-129 190l-131 -190q-11 -17 -30 -17h-185q-14 0 -17.5 9t5.5 20l250 310l-243 313q-9 10 -5.5 19.5t17.5 9.5h185q19 0 30 -18l125 -181l119 181q13 18 31 18h187q14 0 17.5 -9.5t-5.5 -19.5z" />
    <glyph glyph-name="Y" unicode="Y" horiz-adv-x="686" 
d="M342 450l133 213q11 18 30 18h162q14 0 17 -9t-5 -20l-249 -377v-257q0 -8 -5 -13t-13 -5h-140q-8 0 -13 5t-5 13v258l-247 376q-8 11 -5 20t17 9h161q20 0 30 -18z" />
    <glyph glyph-name="Z" unicode="Z" horiz-adv-x="640" 
d="M11 25l310 500h-267q-8 0 -13 5.5t-5 12.5v120q0 7 5 12.5t13 5.5h542q17 0 17 -15q0 -6 -3 -10l-310 -500h300q8 0 13 -5t5 -13v-120q0 -8 -5 -13t-13 -5h-575q-17 0 -17 15q0 6 3 10z" />
    <glyph glyph-name="bracketleft" unicode="[" horiz-adv-x="429" 
d="M377 -152h-298q-7 0 -12.5 5t-5.5 13v904q0 8 5.5 13t12.5 5h298q7 0 12.5 -5t5.5 -13v-111q0 -7 -5.5 -12.5t-12.5 -5.5h-143v-646h143q7 0 12.5 -5.5t5.5 -12.5v-111q0 -8 -5.5 -13t-12.5 -5z" />
    <glyph glyph-name="backslash" unicode="\" horiz-adv-x="357" 
d="M185 656l175 -629q8 -27 -17 -27h-117q-25 0 -32 25l-175 629q-8 27 17 27h117q25 0 32 -25z" />
    <glyph glyph-name="bracketright" unicode="]" horiz-adv-x="429" 
d="M350 -153h-298q-8 0 -13 5.5t-5 12.5v111q0 8 5 13t13 5h143v647h-143q-8 0 -13 5.5t-5 12.5v111q0 8 5 13t13 5h298q8 0 13 -5t5 -13v-905q0 -7 -5 -12.5t-13 -5.5z" />
    <glyph glyph-name="asciicircum" unicode="^" horiz-adv-x="586" 
d="M254 714h78q17 0 29 -18l191 -290q6 -7 2 -16t-16 -9h-118q-17 0 -30 20l-97 148l-97 -148q-13 -20 -30 -20h-118q-12 0 -16 9t2 16l191 290q12 18 29 18z" />
    <glyph glyph-name="underscore" unicode="_" horiz-adv-x="446" 
d="M446 -164h-446q-8 0 -13 5t-5 13v84q0 8 5 13t13 5h446q8 0 13 -5t5 -13v-84q0 -8 -5 -13t-13 -5z" />
    <glyph glyph-name="grave" unicode="`" horiz-adv-x="490" 
d="M143 765h110q16 0 25 -18l68 -145q6 -14 6 -19q0 -15 -16 -15h-84q-16 0 -27 18l-95 152q-4 5 -4 12q0 15 17 15z" />
    <glyph glyph-name="a" unicode="a" horiz-adv-x="493" 
d="M227 349q-52 0 -118 -36q-19 -10 -26 6l-35 77q-7 14 7 23q82 51 193 51q102 0 151 -53q41 -44 41 -121v-278q0 -8 -5 -13t-13 -5h-109q-7 0 -12.5 5t-5.5 13v4h-4q-48 -32 -115 -32q-63 0 -104 39q-42 40 -42 106q0 77 79 115q58 27 169 38v7q0 26 -9 38q-11 16 -42 16z
M229 104q26 0 49 15v66q-34 0 -58 -8q-36 -11 -36 -37q0 -18 12 -27t33 -9z" />
    <glyph glyph-name="b" unicode="b" horiz-adv-x="562" 
d="M79 1q-18 4 -18 21v641q0 7 5.5 12.5t12.5 5.5h126q7 0 12.5 -5.5t5.5 -12.5v-201q36 8 83 8q98 0 161 -66q61 -66 61 -174q0 -97 -57 -160q-73 -80 -228 -80q-106 0 -164 11zM223 328v-204h15q15 -1 20 -1q57 0 85 38q20 28 20 69q0 46 -25 74q-26 29 -67 29
q-21 0 -48 -5z" />
    <glyph glyph-name="c" unicode="c" horiz-adv-x="484" 
d="M300 124q44 0 91 27q19 11 26 -5l46 -86q6 -13 -7 -23q-64 -47 -161 -47q-132 0 -202 76q-59 64 -59 165q0 86 49 146q74 93 216 93q89 0 155 -48q13 -10 7 -23l-48 -89q-7 -16 -26 -5q-47 29 -87 29q-45 0 -73 -28q-28 -30 -28 -75q0 -48 26 -77q27 -30 75 -30z" />
    <glyph glyph-name="d" unicode="d" horiz-adv-x="560" 
d="M325 135h12v195q-14 2 -42 2q-48 0 -74 -34q-21 -27 -21 -68q0 -51 34 -75q29 -20 91 -20zM481 0h-174q-124 0 -196 56q-77 61 -77 171q0 100 53 164q66 80 198 80q31 0 52 -4v196q0 7 5.5 12.5t12.5 5.5h126q7 0 12.5 -5.5t5.5 -12.5v-645q0 -8 -5.5 -13t-12.5 -5z" />
    <glyph glyph-name="e" unicode="e" horiz-adv-x="525" 
d="M204 285h136q-3 26 -16 41q-17 20 -50 20q-34 0 -51 -18q-14 -16 -19 -43zM301 115q52 0 99 28q17 10 26 -5l42 -78q6 -13 -7 -23q-28 -21 -76 -34t-97 -13q-116 0 -183 64q-71 66 -71 182q0 102 70 172q64 62 169 62q125 0 184 -83q48 -70 37 -181q-2 -18 -18 -18h-272
q7 -32 27 -50q25 -23 70 -23z" />
    <glyph glyph-name="f" unicode="f" horiz-adv-x="386" 
d="M288 553q-22 0 -33 -15q-10 -14 -10 -45v-31h83q8 0 13 -5t5 -13v-91q0 -7 -5 -12.5t-13 -5.5h-83v-317q0 -8 -5.5 -13t-12.5 -5h-126q-7 0 -12.5 5t-5.5 13v317h-47q-8 0 -13 5.5t-5 12.5v91q0 8 5 13t13 5h47v43q0 92 49 141q43 43 119 43q102 0 164 -45q13 -10 7 -23
l-41 -86q-9 -15 -26 -5q-43 23 -67 23z" />
    <glyph glyph-name="g" unicode="g" horiz-adv-x="581" 
d="M279 126q41 0 79 19v163q-43 29 -75 29q-36 0 -57 -21q-27 -28 -27 -84q0 -60 26 -86q20 -20 54 -20zM276 -110q40 0 60 19q22 22 22 61v39q-48 -17 -98 -17q-94 0 -154 57q-72 67 -72 183q0 108 65 176q60 62 160 62q52 0 101 -32h3v6q0 8 5.5 13t12.5 5h121q8 0 13 -5
t5 -13v-452q0 -126 -74 -185q-61 -48 -173 -48q-113 0 -186 52q-13 10 -7 23l48 91q8 18 26 5q58 -40 122 -40z" />
    <glyph glyph-name="h" unicode="h" horiz-adv-x="588" 
d="M61 663q0 7 5.5 12.5t12.5 5.5h126q7 0 12.5 -5.5t5.5 -12.5v-236q23 19 50 29q34 14 74 14q86 0 136 -46q52 -49 52 -141v-265q0 -8 -5.5 -13t-12.5 -5h-126q-7 0 -12.5 5t-5.5 13v230q0 51 -16 71q-16 19 -46 19q-47 0 -69 -37q-19 -34 -19 -81v-202q0 -8 -5.5 -13
t-12.5 -5h-126q-7 0 -12.5 5t-5.5 13v645z" />
    <glyph glyph-name="i" unicode="i" horiz-adv-x="284" 
d="M61 444q0 8 5.5 13t12.5 5h126q7 0 12.5 -5t5.5 -13v-426q0 -8 -5.5 -13t-12.5 -5h-126q-7 0 -12.5 5t-5.5 13v426zM142 565q-38 0 -65 27t-27 65t27 65t65 27t65 -27t27 -65t-27 -65t-65 -27z" />
    <glyph glyph-name="j" unicode="j" horiz-adv-x="284" 
d="M234 657q0 -38 -27 -65t-65 -27t-65 27t-27 65t27 65t65 27t65 -27t27 -65zM61 57v387q0 8 5.5 13t12.5 5h126q7 0 12.5 -5t5.5 -13v-409q0 -204 -121 -273q-19 -11 -35 7l-77 77q-16 15 -1 27q26 20 39.5 37t23 53.5t9.5 93.5z" />
    <glyph glyph-name="k" unicode="k" horiz-adv-x="567" 
d="M366 18l-99 150l-44 -41v-109q0 -8 -5.5 -13t-12.5 -5h-126q-7 0 -12.5 5t-5.5 13v645q0 7 5.5 12.5t12.5 5.5h126q7 0 12.5 -5.5t5.5 -12.5v-361l133 144q15 16 35 16h148q15 0 18.5 -10.5t-6.5 -19.5l-172 -160l177 -244q8 -9 4.5 -18.5t-18.5 -9.5h-145q-20 0 -31 18z
" />
    <glyph glyph-name="l" unicode="l" horiz-adv-x="284" 
d="M61 663q0 7 5.5 12.5t12.5 5.5h126q7 0 12.5 -5.5t5.5 -12.5v-645q0 -8 -5.5 -13t-12.5 -5h-126q-7 0 -12.5 5t-5.5 13v645z" />
    <glyph glyph-name="m" unicode="m" horiz-adv-x="846" 
d="M218 435h3q12 11 28 17q36 17 76 17q43 0 79 -13q37 -14 60 -39q30 24 62 37q38 15 84 15q83 0 132 -46q51 -46 51 -141v-264q0 -8 -5.5 -13t-12.5 -5h-126q-7 0 -12.5 5t-5.5 13v228q0 49 -14 70q-14 22 -46 22q-33 0 -49 -31q-14 -29 -14 -89v-200q0 -8 -5 -13t-13 -5
h-126q-8 0 -13 5t-5 13v228q0 49 -14 70q-14 22 -46 22q-34 0 -49 -31q-14 -28 -14 -76v-213q0 -8 -5.5 -13t-12.5 -5h-126q-7 0 -12.5 5t-5.5 13v426q0 8 5.5 13t12.5 5h121q8 0 13 -5t5 -13v-9z" />
    <glyph glyph-name="n" unicode="n" horiz-adv-x="587" 
d="M310 337q-46 0 -68 -37q-19 -33 -19 -88v-194q0 -8 -5.5 -13t-12.5 -5h-126q-7 0 -12.5 5t-5.5 13v426q0 8 5.5 13t12.5 5h121q8 0 13 -5t5 -13v-21h3q20 18 43 29q38 18 82 18q86 0 136 -46q52 -49 52 -141v-265q0 -8 -5 -13t-13 -5h-126q-8 0 -13 5t-5 13v229
q0 52 -15 71q-16 19 -47 19z" />
    <glyph glyph-name="o" unicode="o" horiz-adv-x="572" 
d="M194 230q0 -50 29 -82q25 -27 63 -27t63 27q29 32 29 82t-29 82q-25 27 -63 27t-63 -27q-29 -32 -29 -82zM34 230q0 114 79 180q69 60 173 60t173 -60q79 -66 79 -180t-79 -180q-69 -60 -173 -60t-173 60q-79 66 -79 180z" />
    <glyph glyph-name="p" unicode="p" horiz-adv-x="561" 
d="M223 336v-211q13 -3 35 -3q51 0 77 21q31 25 31 86q0 49 -23 78q-26 32 -73 32q-26 0 -47 -3zM79 454q69 16 174 16q141 0 213 -75q61 -63 61 -166q0 -100 -53 -161q-68 -78 -199 -78q-36 0 -52 2v-210q0 -8 -5.5 -13t-12.5 -5h-126q-7 0 -12.5 5t-5.5 13v652q0 16 18 20
z" />
    <glyph glyph-name="q" unicode="q" horiz-adv-x="560" 
d="M337 214v122q-19 3 -43 3q-53 0 -80 -38q-20 -28 -20 -72q0 -49 19 -77q21 -30 59 -30q34 0 50 23q15 21 15 69zM337 -218v233q-7 -7 -22 -13q-29 -12 -69 -12q-90 0 -148 57q-64 62 -64 178q0 103 60 166q75 79 214 79q108 0 173 -23q18 -6 18 -23v-642q0 -8 -5.5 -13
t-12.5 -5h-126q-7 0 -12.5 5t-5.5 13z" />
    <glyph glyph-name="r" unicode="r" horiz-adv-x="453" 
d="M327 470q70 0 115 -39q13 -11 6 -24l-45 -95q-9 -15 -26 -5q-46 25 -81 25q-33 0 -51 -24q-22 -29 -22 -94v-196q0 -8 -5.5 -13t-12.5 -5h-126q-7 0 -12.5 5t-5.5 13v426q0 8 5.5 13t12.5 5h121q8 0 13 -5t5 -13v-25h3q13 16 35 31q32 20 71 20z" />
    <glyph glyph-name="s" unicode="s" horiz-adv-x="440" 
d="M202 107q20 0 31 7q12 6 12 20q0 17 -30 30q-15 6 -46 16.5t-49 18.5q-81 36 -81 128q0 66 47 104q50 40 140 40q91 0 160 -37q15 -8 7 -23l-42 -87q-6 -13 -21 -5q-53 28 -97 28q-16 0 -26 -5q-9 -6 -9 -15q0 -15 36 -30q2 -1 37.5 -13t56.5 -22q78 -37 78 -118
q0 -70 -60 -114q-56 -40 -141 -40q-101 0 -168 39q-15 7 -8 21l42 87q7 15 22 7q58 -37 109 -37z" />
    <glyph glyph-name="t" unicode="t" horiz-adv-x="413" 
d="M242 335v-145q0 -25 6 -40q9 -21 34 -21q28 0 56 24q18 14 25 -3l43 -91q6 -13 -7 -23q-63 -46 -160 -46q-80 0 -120 45q-39 45 -39 133v167h-48q-8 0 -13 5.5t-5 12.5v91q0 8 5 13t13 5h48v91q0 7 5 12.5t13 5.5h126q8 0 13 -5.5t5 -12.5v-91h110q8 0 13 -5t5 -13v-91
q0 -7 -5 -12.5t-13 -5.5h-110z" />
    <glyph glyph-name="u" unicode="u" horiz-adv-x="578" 
d="M53 201v243q0 8 5.5 13t12.5 5h126q7 0 12.5 -5t5.5 -13v-238q0 -29 10 -49q18 -35 64 -35t64 35q10 20 10 49v238q0 8 5.5 13t12.5 5h126q7 0 12.5 -5t5.5 -13v-243q0 -87 -44 -139q-60 -72 -192 -72t-192 72q-44 52 -44 139z" />
    <glyph glyph-name="v" unicode="v" horiz-adv-x="525" 
d="M520 437l-163 -422q-7 -18 -28 -18h-145q-22 0 -28 18l-151 422q-4 7 -1 16t15 9h133q25 0 30 -20l82 -287h2l79 287q5 20 30 20h131q12 0 15 -9t-1 -16z" />
    <glyph glyph-name="w" unicode="w" horiz-adv-x="813" 
d="M760 444v-242q0 -88 -33 -138q-48 -74 -165 -74q-65 0 -110 23q-25 13 -45 38q-20 -25 -45 -38q-43 -23 -109 -23q-116 0 -166 73q-34 51 -34 139v242q0 8 5.5 13t12.5 5h126q7 0 12.5 -5t5.5 -13v-242q0 -36 11 -55q13 -23 41 -23q38 0 52 37q7 18 7 45v238q0 8 5 13
t13 5h126q8 0 13 -5t5 -13v-238q0 -27 7 -45q14 -37 53 -37q28 0 41 23q11 19 11 55v242q0 8 5 13t13 5h124q8 0 13 -5t5 -13z" />
    <glyph glyph-name="x" unicode="x" horiz-adv-x="562" 
d="M6 29l174 207l-164 197q-9 11 -5.5 20t17.5 9h157q19 0 30 -18l65 -97l69 97q11 18 30 18h151q14 0 17.5 -9t-5.5 -20l-165 -186l179 -218q9 -11 5.5 -20t-17.5 -9h-153q-18 0 -31 17l-80 106l-79 -106q-14 -17 -31 -17h-152q-14 0 -17.5 9t5.5 20z" />
    <glyph glyph-name="y" unicode="y" horiz-adv-x="565" 
d="M560 437l-170 -463q-35 -94 -95 -147q-86 -74 -223 -65q-14 0 -14 14v125q0 13 15 13q3 0 14.5 -1t21.5 -1q41 0 66 14q25 15 41 40l-211 471q-4 7 -1 16t15 9h152q23 0 30 -20l98 -274l77 274q5 20 30 20h140q22 0 14 -25z" />
    <glyph glyph-name="z" unicode="z" horiz-adv-x="468" 
d="M439 0h-416q-13 0 -14.5 8.5t4.5 13.5l189 299h-162q-8 0 -13 5.5t-5 12.5v105q0 8 5 13t13 5h403q9 0 13.5 -7t-1.5 -17l-187 -296h171q7 0 12.5 -5t5.5 -13v-106q0 -8 -5.5 -13t-12.5 -5z" />
    <glyph glyph-name="braceleft" unicode="{" horiz-adv-x="413" 
d="M379 768v-89q0 -7 -5.5 -12.5t-12.5 -5.5q-36 0 -54 -24q-15 -23 -15 -67l1 -78q0 -87 -40 -127q-24 -26 -77 -48q50 -21 77 -48q40 -41 40 -127l-1 -78q0 -44 15 -67q17 -24 54 -24q7 0 12.5 -5.5t5.5 -12.5v-89q0 -18 -21 -18q-121 0 -175 59q-42 46 -42 129l3 87
q0 67 -21 96q-16 24 -48 24h-6q-7 0 -12.5 5.5t-5.5 12.5v112q0 7 5.5 12.5t12.5 5.5h6q32 0 48 23q21 29 21 97l-3 87q0 83 42 129q54 59 175 59q21 0 21 -18z" />
    <glyph glyph-name="bar" unicode="|" horiz-adv-x="290" 
d="M82 681h126q8 0 13 -5.5t5 -12.5v-863q0 -8 -5 -13t-13 -5h-126q-8 0 -13 5t-5 13v863q0 7 5 12.5t13 5.5z" />
    <glyph glyph-name="braceright" unicode="}" horiz-adv-x="413" 
d="M362 345v-112q0 -7 -5 -12.5t-13 -5.5h-6q-69 0 -69 -120q0 -6 1.5 -38t1.5 -49q0 -188 -217 -188q-21 0 -21 18v89q0 7 5 12.5t13 5.5q69 0 69 91v35.5t-0.5 22.5t-0.5 12.5v7.5q0 75 26 109.5t91 65.5q-65 31 -91 65.5t-26 109.5v7.5t0.5 12.5t0.5 22.5v35.5
q0 91 -69 91q-8 0 -13 5.5t-5 12.5v89q0 18 21 18q217 0 217 -188q0 -17 -1.5 -49t-1.5 -38q0 -120 69 -120h6q8 0 13 -5.5t5 -12.5z" />
    <glyph glyph-name="asciitilde" unicode="~" horiz-adv-x="690" 
d="M452 177q-48 0 -86 22.5t-66.5 44.5t-52.5 22q-53 0 -53 -60q0 -18 -20 -18h-110q-18 0 -18 18q0 98 48.5 156t143.5 58q38 0 70.5 -14t51 -30.5t41 -30.5t42.5 -14q53 0 53 60q0 18 20 18h110q18 0 18 -18q0 -98 -48.5 -156t-143.5 -58z" />
    <glyph glyph-name="nbspace" unicode="&#xa0;" 
 />
    <glyph glyph-name="exclamdown" unicode="&#xa1;" horiz-adv-x="363" 
d="M87 374q0 40 28 68t68 28t68 -28t28 -68t-27.5 -68t-68.5 -28q-40 0 -68 28t-28 68zM268 -220h-169q-17 0 -15 18l45 405q2 18 18 18h72q16 0 18 -18l45 -405q2 -18 -14 -18z" />
    <glyph glyph-name="cent" unicode="&#xa2;" 
d="M317 561h47q8 0 13 -5.5t5 -12.5v-75q69 -8 122 -46q13 -10 7 -23l-48 -89q-9 -15 -26 -5q-47 29 -87 29q-45 0 -73 -28q-28 -30 -28 -75q0 -48 26 -77q27 -30 75 -30q44 0 91 27q19 11 26 -5l46 -86q6 -13 -7 -23q-47 -35 -124 -44v-74q0 -7 -5 -12.5t-13 -5.5h-47
q-7 0 -12.5 5.5t-5.5 12.5v74q-98 10 -156 73q-59 64 -59 165q0 86 49 146q60 74 166 89v77q0 7 5.5 12.5t12.5 5.5z" />
    <glyph glyph-name="sterling" unicode="&#xa3;" 
d="M88 385h52q-16 55 -16 96q0 95 64 151q64 58 173 58q105 0 174 -41q14 -9 7 -23l-47 -97q-7 -15 -22 -7q-51 25 -96 25q-43 0 -65 -22q-21 -19 -21 -52q0 -34 15 -88h156q8 0 13 -5.5t5 -12.5v-104q0 -7 -5 -12.5t-13 -5.5h-129q-4 -52 -31 -93h221q7 0 12.5 -5t5.5 -13
v-116q0 -8 -5.5 -13t-12.5 -5h-456q-7 0 -12.5 5t-5.5 13v116q0 8 5.5 13t12.5 5h72q33 33 34 93h-85q-8 0 -13 5.5t-5 12.5v104q0 7 5 12.5t13 5.5z" />
    <glyph glyph-name="currency" unicode="&#xa4;" horiz-adv-x="707" 
d="M228 388q0 -52 37 -89.5t90 -37.5q52 0 88.5 37t36.5 90q0 52 -36.5 88.5t-88.5 36.5q-53 0 -90 -36.5t-37 -88.5zM56 189l72 74q-32 56 -32 125t33 127l-74 74q-13 13 0 26l73 74q13 13 26 0l74 -75q60 33 127 33q66 0 125 -32l75 76q13 13 26 0l73 -74q13 -13 0 -26
l-74 -74q34 -59 34 -129q0 -67 -33 -127l74 -74q13 -13 0 -26l-73 -74q-13 -13 -26 0l-75 76q-56 -34 -126 -34t-129 34l-71 -74q-13 -13 -26 0l-73 74q-13 13 0 26z" />
    <glyph glyph-name="yen" unicode="&#xa5;" 
d="M66 212h144v60h-144q-8 0 -13 5t-5 13v79q0 7 5 12.5t13 5.5h83l-148 269q-5 8 -2 16.5t16 8.5h163q21 0 30 -20l90 -211l91 211q8 20 30 20h165q12 0 15.5 -9t-1.5 -16l-150 -269h83q7 0 12.5 -5.5t5.5 -12.5v-79q0 -8 -5.5 -13t-12.5 -5h-145v-60h145q7 0 12.5 -5
t5.5 -13v-79q0 -7 -5.5 -12.5t-12.5 -5.5h-145v-79q0 -8 -5 -13t-13 -5h-140q-8 0 -13 5t-5 13v79h-144q-8 0 -13 5.5t-5 12.5v79q0 8 5 13t13 5z" />
    <glyph glyph-name="brokenbar" unicode="&#xa6;" horiz-adv-x="290" 
d="M82 681h126q8 0 13 -5.5t5 -12.5v-355q0 -8 -5 -13t-13 -5h-126q-8 0 -13 5t-5 13v355q0 7 5 12.5t13 5.5zM82 173h126q8 0 13 -5.5t5 -12.5v-355q0 -8 -5 -13t-13 -5h-126q-8 0 -13 5t-5 13v355q0 7 5 12.5t13 5.5z" />
    <glyph glyph-name="section" unicode="&#xa7;" horiz-adv-x="554" 
d="M260 -230q-96 0 -177 54q-14 10 -7 23l43 89q7 16 22 7q67 -47 112 -47q18 0 29 11q12 12 12 31q0 15 -7.5 29t-23.5 28.5t-30.5 25.5t-40.5 28.5t-40 28.5q-107 82 -107 173q0 94 70 162q-25 39 -25 88q0 80 52 132q56 58 153 58q98 0 177 -53q14 -10 7 -23l-43 -89
q-7 -16 -22 -7q-67 47 -109 47q-21 0 -34 -13q-11 -9 -11 -29q0 -14 6 -27t22.5 -28l25.5 -23t37.5 -28t36.5 -26q56 -41 88.5 -83t32.5 -99q0 -94 -70 -162q25 -39 25 -88q0 -75 -48 -128q-57 -62 -156 -62zM331 150q9 18 9 36q0 37 -52 79q-8 7 -65 46q-9 -18 -9 -36
q0 -38 46 -75q18 -16 71 -50z" />
    <glyph glyph-name="dieresis" unicode="&#xa8;" horiz-adv-x="490" 
d="M118 565q-38 0 -65 27.5t-27 65.5t27 65t65 27q39 0 66 -27t27 -65t-27 -65.5t-66 -27.5zM372 565q-38 0 -65 27.5t-27 65.5t27 65t65 27t65 -27t27 -65t-27 -65.5t-65 -27.5z" />
    <glyph glyph-name="copyright" unicode="&#xa9;" horiz-adv-x="819" 
d="M125 359q0 -119 81 -202t199 -83t199.5 83t81.5 202t-81 202t-199 83t-199.5 -83t-81.5 -202zM774 359q0 -153 -107.5 -260.5t-260.5 -107.5t-261 107.5t-108 260.5t107.5 260.5t260.5 107.5t261 -107.5t108 -260.5zM422 171q-87 0 -140 50t-53 134q0 79 57.5 131.5
t137.5 52.5q61 0 107 -24q7 -4 4 -12l-31 -62q-3 -8 -11 -4q-38 18 -72 18q-39 0 -67 -28.5t-28 -71.5t27.5 -71.5t68.5 -28.5q37 0 75 19q8 4 11 -4l30 -63q4 -9 -4 -12q-52 -24 -112 -24z" />
    <glyph glyph-name="ordfeminine" unicode="&#xaa;" horiz-adv-x="303" 
d="M158 691q52 0 81 -24q33 -27 33 -93v-148q0 -8 -5 -13t-13 -5h-49q-7 0 -12.5 5t-5.5 13v5h-3q-12 -10 -30 -17q-18 -6 -39 -6q-36 0 -60 23q-24 24 -24 62q0 43 44 66q33 17 103 24v6q0 17 -9 26q-8 8 -24 8q-24 0 -70 -24q-13 -6 -17 4l-17 37q-4 12 9 20q50 31 108 31
zM84 308h137q7 0 12.5 -5t5.5 -13v-31q0 -7 -5.5 -12.5t-12.5 -5.5h-137q-8 0 -13 5.5t-5 12.5v31q0 8 5 13t13 5zM148 472q17 0 30 11v44q-27 -4 -39 -10q-17 -9 -17 -22q0 -12 8 -18q7 -5 18 -5z" />
    <glyph glyph-name="guillemotleft" unicode="&#xab;" horiz-adv-x="692" 
d="M20 231q0 10 14 27l156 185q16 19 38 19h121q17 0 21 -11t-7 -25l-157 -195l157 -195q11 -15 7 -25.5t-21 -10.5h-121q-22 0 -38 19l-156 185q-14 16 -14 27zM320 231q0 10 14 27l156 185q16 19 38 19h121q17 0 21 -11t-7 -25l-157 -195l157 -195q11 -15 7 -25.5
t-21 -10.5h-121q-22 0 -38 19l-156 185q-14 16 -14 27z" />
    <glyph glyph-name="logicalnot" unicode="&#xac;" horiz-adv-x="602" 
d="M35 291v124q0 7 5.5 12.5t12.5 5.5h496q7 0 12.5 -5.5t5.5 -12.5v-243q0 -8 -5.5 -13t-12.5 -5h-118q-7 0 -12.5 5t-5.5 13v101h-360q-7 0 -12.5 5.5t-5.5 12.5z" />
    <glyph glyph-name="uni00AD" unicode="&#xad;" horiz-adv-x="532" 
d="M113 352h306q7 0 12.5 -5t5.5 -13v-116q0 -8 -5.5 -13t-12.5 -5h-306q-7 0 -12.5 5t-5.5 13v116q0 8 5.5 13t12.5 5z" />
    <glyph glyph-name="registered" unicode="&#xae;" horiz-adv-x="450" 
d="M225 717q77 0 131 -54t54 -130t-54 -129.5t-131 -53.5t-131 53.5t-54 129.5t54 130t131 54zM225 392q59 0 99.5 41t40.5 100q0 60 -40 101t-100 41t-100 -41t-40 -101q0 -59 40.5 -100t99.5 -41zM302 564q0 -36 -30 -51l31 -50q6 -11 2.5 -15.5t-12.5 -4.5h-19
q-13 0 -21 13l-29 48h-26v-47q0 -14 -14 -14h-19q-14 0 -14 14v154q0 14 14 14h71q30 0 48 -16t18 -45zM255 565q0 21 -25 21h-32v-43h32q25 0 25 22z" />
    <glyph glyph-name="macron" unicode="&#xaf;" horiz-adv-x="490" 
d="M123 708h244q7 0 12.5 -5t5.5 -13v-95q0 -7 -5.5 -12.5t-12.5 -5.5h-244q-7 0 -12.5 5.5t-5.5 12.5v95q0 8 5.5 13t12.5 5z" />
    <glyph glyph-name="degree" unicode="&#xb0;" horiz-adv-x="370" 
d="M256 593q0 30 -20.5 49.5t-50.5 19.5t-49.5 -19.5t-19.5 -49.5t19.5 -50.5t49.5 -20.5q29 0 50 21t21 50zM320 593q0 -56 -39.5 -95.5t-95.5 -39.5t-95.5 39.5t-39.5 95.5t39.5 95.5t95.5 39.5t95.5 -39.5t39.5 -95.5z" />
    <glyph glyph-name="plusminus" unicode="&#xb1;" horiz-adv-x="585" 
d="M368 663v-153h154q8 0 13 -5t5 -13v-116q0 -8 -5 -13t-13 -5h-154v-154q0 -8 -5 -13t-13 -5h-116q-8 0 -13 5t-5 13v154h-153q-7 0 -12.5 5t-5.5 13v116q0 8 5.5 13t12.5 5h153v153q0 7 5 12.5t13 5.5h116q8 0 13 -5.5t5 -12.5zM63 152h459q8 0 13 -5t5 -13v-116
q0 -8 -5 -13t-13 -5h-459q-7 0 -12.5 5t-5.5 13v116q0 8 5.5 13t12.5 5z" />
    <glyph glyph-name="twosuperior" unicode="&#xb2;" horiz-adv-x="417" 
d="M80 351v23q0 72 42 113q19 18 56.5 37.5t50.5 31.5q12 12 12 29q0 14 -9 23q-10 8 -27 8q-36 0 -76 -27q-14 -10 -22 6l-18 37q-7 15 8 25q56 34 115 34q57 0 89 -35q26 -28 26 -68q0 -48 -33 -80q-19 -19 -54.5 -37.5t-45.5 -26.5q-16 -13 -16 -32h126q8 0 13 -5t5 -13
v-43q0 -7 -5 -12.5t-13 -5.5h-206q-8 0 -13 5.5t-5 12.5z" />
    <glyph glyph-name="threesuperior" unicode="&#xb3;" horiz-adv-x="417" 
d="M172 477h-17q-7 0 -12.5 5.5t-5.5 12.5v34q0 18 18 18h10q26 0 40 7q19 10 19 33q0 12 -8 20.5t-23 8.5q-26 0 -60 -21q-13 -8 -20 6l-18 36q-7 17 7 25q52 29 98 29q50 0 77.5 -26.5t27.5 -66.5q0 -57 -48 -80q61 -26 61 -90q0 -44 -32 -72t-89 -28q-55 0 -100 25
q-13 8 -7 22l19 40q8 15 21 5q28 -21 60 -21q43 0 43 37q0 23 -19 34q-14 7 -42 7z" />
    <glyph glyph-name="acute" unicode="&#xb4;" horiz-adv-x="490" 
d="M236 765h110q17 0 17 -15q0 -4 -4 -12l-95 -152q-11 -18 -27 -18h-84q-16 0 -16 15q0 5 6 19l68 145q9 18 25 18z" />
    <glyph glyph-name="mu" unicode="&#xb5;" horiz-adv-x="578" 
d="M53 -158v602q0 8 5.5 13t12.5 5h126q7 0 12.5 -5t5.5 -13v-238q0 -29 10 -49q18 -35 64 -35t64 35q10 20 10 49v238q0 8 5.5 13t12.5 5h126q7 0 12.5 -5t5.5 -13v-243q0 -87 -44 -139q-60 -72 -192 -72q-27 0 -49 3q-16 2 -25 4v-155q0 -8 -5.5 -13t-12.5 -5h-126
q-7 0 -12.5 5t-5.5 13z" />
    <glyph glyph-name="paragraph" unicode="&#xb6;" horiz-adv-x="788" 
d="M741 582h-119v-764q0 -8 -5 -13t-13 -5h-107q-7 0 -12.5 5t-5.5 13v764h-107v-764q0 -8 -5 -13t-13 -5h-107q-7 0 -12.5 5t-5.5 13v493q-92 5 -144.5 59.5t-52.5 143.5q0 97 60 149.5t170 52.5h479q7 0 12.5 -5t5.5 -13v-98q0 -8 -5.5 -13t-12.5 -5z" />
    <glyph glyph-name="periodcentered" unicode="&#xb7;" horiz-adv-x="291" 
d="M248 345q0 -42 -29.5 -71.5t-71.5 -29.5t-71.5 29.5t-29.5 71.5t29.5 71.5t71.5 29.5t71.5 -29.5t29.5 -71.5z" />
    <glyph glyph-name="cedilla" unicode="&#xb8;" horiz-adv-x="498" 
d="M344 -116q0 -40 -25.5 -65t-59 -33.5t-74.5 -8.5q-28 0 -48 4q-14 2 -14 14v48q0 14 14 14q4 0 18 -1t22 -1q61 0 61 34q0 28 -51 28q-17 0 -27 -1l10 108h81v-49q45 -6 69 -31.5t24 -59.5z" />
    <glyph glyph-name="onesuperior" unicode="&#xb9;" horiz-adv-x="417" 
d="M166 595l-73 -23q-24 -8 -24 18v33q0 20 18 26l114 38q12 4 19 4h19q17 0 17 -18v-261h70q8 0 13 -5t5 -13v-43q0 -7 -5 -12.5t-13 -5.5h-237q-7 0 -12.5 5.5t-5.5 12.5v43q0 8 5.5 13t12.5 5h77v183z" />
    <glyph glyph-name="ordmasculine" unicode="&#xba;" horiz-adv-x="368" 
d="M129 549q0 -23 11 -40q15 -24 44 -24t44 23q11 17 11 41q0 23 -11 40q-15 24 -44 24t-44 -24q-11 -17 -11 -40zM35 549q0 55 33 93q43 49 116 49t116 -49q33 -38 33 -93t-33 -93q-43 -49 -116 -49t-116 49q-33 38 -33 93zM115 308h137q8 0 13 -5t5 -13v-31q0 -7 -5 -12.5
t-13 -5.5h-137q-7 0 -12.5 5.5t-5.5 12.5v31q0 8 5.5 13t12.5 5z" />
    <glyph glyph-name="guillemotright" unicode="&#xbb;" horiz-adv-x="692" 
d="M672 231q0 -9 -14 -27l-156 -185q-16 -19 -39 -19h-120q-17 0 -21.5 10.5t7.5 25.5l157 195l-157 195q-12 14 -7.5 25t21.5 11h120q23 0 39 -19l156 -185q14 -19 14 -27zM372 231q0 -9 -14 -27l-156 -185q-16 -19 -39 -19h-120q-17 0 -21.5 10.5t7.5 25.5l157 195
l-157 195q-12 14 -7.5 25t21.5 11h120q23 0 39 -19l156 -185q14 -19 14 -27z" />
    <glyph glyph-name="onequarter" unicode="&#xbc;" horiz-adv-x="417" 
d="M58 276h301q7 0 12.5 -5t5.5 -13v-43q0 -7 -5.5 -12.5t-12.5 -5.5h-301q-8 0 -13 5.5t-5 12.5v43q0 8 5 13t13 5zM69 -77l150 205q11 15 29 15h31q7 0 12.5 -5.5t5.5 -12.5v-199h36q7 0 12.5 -5t5.5 -13v-39q0 -7 -5.5 -12.5t-12.5 -5.5h-36v-43q0 -8 -5.5 -13t-12.5 -5
h-50q-7 0 -12.5 5t-5.5 13v43h-134q-7 0 -12.5 5.5t-5.5 12.5v23q0 18 10 31zM163 -74h48v65zM166 595l-73 -23q-24 -8 -24 18v33q0 20 18 26l114 38q12 4 19 4h19q17 0 17 -18v-261h70q8 0 13 -5t5 -13v-43q0 -7 -5 -12.5t-13 -5.5h-237q-7 0 -12.5 5.5t-5.5 12.5v43
q0 8 5.5 13t12.5 5h77v183z" />
    <glyph glyph-name="onehalf" unicode="&#xbd;" horiz-adv-x="417" 
d="M80 -192v23q0 72 42 113q19 18 56.5 37.5t50.5 31.5q12 12 12 29q0 14 -9 23q-10 8 -27 8q-36 0 -76 -27q-14 -10 -22 6l-18 37q-7 15 8 25q56 34 115 34q57 0 89 -35q26 -28 26 -68q0 -49 -33 -80q-19 -19 -54.5 -37.5t-45.5 -26.5q-16 -13 -16 -32h126q8 0 13 -5.5
t5 -12.5v-43q0 -8 -5 -13t-13 -5h-206q-8 0 -13 5t-5 13zM58 276h301q7 0 12.5 -5t5.5 -13v-43q0 -7 -5.5 -12.5t-12.5 -5.5h-301q-8 0 -13 5.5t-5 12.5v43q0 8 5 13t13 5zM166 595l-73 -23q-24 -8 -24 18v33q0 20 18 26l114 38q12 4 19 4h19q17 0 17 -18v-261h70q8 0 13 -5
t5 -13v-43q0 -7 -5 -12.5t-13 -5.5h-237q-7 0 -12.5 5.5t-5.5 12.5v43q0 8 5.5 13t12.5 5h77v183z" />
    <glyph glyph-name="threequarters" unicode="&#xbe;" horiz-adv-x="417" 
d="M172 477h-17q-7 0 -12.5 5.5t-5.5 12.5v34q0 18 18 18h10q26 0 40 7q19 10 19 33q0 12 -8 20.5t-23 8.5q-26 0 -60 -21q-13 -8 -20 6l-18 36q-7 17 7 25q52 29 98 29q50 0 77.5 -26.5t27.5 -66.5q0 -57 -48 -80q61 -26 61 -90q0 -44 -32 -72t-89 -28q-55 0 -100 25
q-13 8 -7 22l19 40q8 15 21 5q28 -21 60 -21q43 0 43 37q0 23 -19 34q-14 7 -42 7zM58 276h301q7 0 12.5 -5t5.5 -13v-43q0 -7 -5.5 -12.5t-12.5 -5.5h-301q-8 0 -13 5.5t-5 12.5v43q0 8 5 13t13 5zM69 -77l150 205q11 15 29 15h31q7 0 12.5 -5.5t5.5 -12.5v-199h36
q7 0 12.5 -5t5.5 -13v-39q0 -7 -5.5 -12.5t-12.5 -5.5h-36v-43q0 -8 -5.5 -13t-12.5 -5h-50q-7 0 -12.5 5t-5.5 13v43h-134q-7 0 -12.5 5.5t-5.5 12.5v23q0 18 10 31zM163 -74h48v65z" />
    <glyph glyph-name="questiondown" unicode="&#xbf;" horiz-adv-x="497" 
d="M267 -89q41 0 78.5 17.5t87.5 55.5q5 4 12 2t10 -9l47 -94q6 -12 -7 -23q-109 -91 -236 -91q-97 0 -161 56q-61 56 -61 137q0 52 23 89t78 75q28 19 42.5 36t19 29.5t6.5 32.5q1 19 22 19h86q15 0 24 -16q14 -25 14 -60q0 -39 -41 -85q-13 -14 -84 -74q-26 -22 -26 -46
q0 -25 19 -38q18 -13 47 -13zM179 374q0 40 28 68t68 28t68 -28t28 -68t-28 -68t-68 -28q-41 0 -68.5 28t-27.5 68z" />
    <glyph glyph-name="Agrave" unicode="&#xc0;" horiz-adv-x="695" 
d="M347 526q-45 0 -73 -25q-35 -33 -35 -98v-53h217v53q0 65 -35 98q-28 25 -74 25zM632 411v-393q0 -8 -5 -13t-13 -5h-140q-8 0 -13 5t-5 13v176h-217v-176q0 -8 -5.5 -13t-12.5 -5h-140q-7 0 -12.5 5t-5.5 13v393q0 65 27.5 125t80.5 100q72 54 176 54q105 0 177 -54
q53 -40 80.5 -100t27.5 -125zM245 969h110q16 0 25 -18l68 -145q6 -14 6 -19q0 -15 -16 -15h-84q-16 0 -27 18l-95 152q-4 5 -4 12q0 15 17 15z" />
    <glyph glyph-name="Aacute" unicode="&#xc1;" horiz-adv-x="695" 
d="M347 526q-45 0 -73 -25q-35 -33 -35 -98v-53h217v53q0 65 -35 98q-28 25 -74 25zM632 411v-393q0 -8 -5 -13t-13 -5h-140q-8 0 -13 5t-5 13v176h-217v-176q0 -8 -5.5 -13t-12.5 -5h-140q-7 0 -12.5 5t-5.5 13v393q0 65 27.5 125t80.5 100q72 54 176 54q105 0 177 -54
q53 -40 80.5 -100t27.5 -125zM349 969h110q17 0 17 -15q0 -4 -4 -12l-95 -152q-11 -18 -27 -18h-84q-16 0 -16 15q0 5 6 19l68 145q9 18 25 18z" />
    <glyph glyph-name="Acircumflex" unicode="&#xc2;" horiz-adv-x="695" 
d="M347 526q-45 0 -73 -25q-35 -33 -35 -98v-53h217v53q0 65 -35 98q-28 25 -74 25zM632 411v-393q0 -8 -5 -13t-13 -5h-140q-8 0 -13 5t-5 13v176h-217v-176q0 -8 -5.5 -13t-12.5 -5h-140q-7 0 -12.5 5t-5.5 13v393q0 65 27.5 125t80.5 100q72 54 176 54q105 0 177 -54
q53 -40 80.5 -100t27.5 -125zM319 969h56q13 0 24 -13l138 -158q8 -10 5.5 -18t-13.5 -8h-102q-18 0 -32 17l-48 56l-48 -56q-14 -17 -32 -17h-102q-11 0 -13.5 8t5.5 18l138 158q11 13 24 13z" />
    <glyph glyph-name="Atilde" unicode="&#xc3;" horiz-adv-x="695" 
d="M347 526q-45 0 -73 -25q-35 -33 -35 -98v-53h217v53q0 65 -35 98q-28 25 -74 25zM632 411v-393q0 -8 -5 -13t-13 -5h-140q-8 0 -13 5t-5 13v176h-217v-176q0 -8 -5.5 -13t-12.5 -5h-140q-7 0 -12.5 5t-5.5 13v393q0 65 27.5 125t80.5 100q72 54 176 54q105 0 177 -54
q53 -40 80.5 -100t27.5 -125zM411 894q28 0 35 36q4 18 18 18h51q21 0 21 -19q0 -66 -28 -105.5t-82 -39.5q-45 0 -85 31q-37 28 -57 28q-28 0 -35 -36q-5 -18 -18 -18h-51q-21 0 -21 19q0 66 28 105.5t82 39.5q42 0 86 -33q36 -26 56 -26z" />
    <glyph glyph-name="Adieresis" unicode="&#xc4;" horiz-adv-x="695" 
d="M347 526q-45 0 -73 -25q-35 -33 -35 -98v-53h217v53q0 65 -35 98q-28 25 -74 25zM632 411v-393q0 -8 -5 -13t-13 -5h-140q-8 0 -13 5t-5 13v176h-217v-176q0 -8 -5.5 -13t-12.5 -5h-140q-7 0 -12.5 5t-5.5 13v393q0 65 27.5 125t80.5 100q72 54 176 54q105 0 177 -54
q53 -40 80.5 -100t27.5 -125zM220 765q-38 0 -65 27.5t-27 65.5t27 65t65 27q39 0 66 -27t27 -65t-27 -65.5t-66 -27.5zM474 765q-38 0 -65 27.5t-27 65.5t27 65t65 27t65 -27t27 -65t-27 -65.5t-65 -27.5z" />
    <glyph glyph-name="Aring" unicode="&#xc5;" horiz-adv-x="695" 
d="M347 526q-45 0 -73 -25q-35 -33 -35 -98v-53h217v53q0 65 -35 98q-28 25 -74 25zM632 411v-393q0 -8 -5 -13t-13 -5h-140q-8 0 -13 5t-5 13v176h-217v-176q0 -8 -5.5 -13t-12.5 -5h-140q-7 0 -12.5 5t-5.5 13v393q0 65 27.5 125t80.5 100q72 54 176 54q105 0 177 -54
q53 -40 80.5 -100t27.5 -125zM472 856q0 -51 -36.5 -87t-87.5 -36q-52 0 -88.5 36t-36.5 87q0 52 36.5 88.5t88.5 36.5q51 0 87.5 -36.5t36.5 -88.5zM403 856q0 24 -16 40.5t-39 16.5t-39 -16.5t-16 -40.5q0 -23 16 -39t39 -16q22 0 38.5 16.5t16.5 38.5z" />
    <glyph glyph-name="AE" unicode="&#xc6;" horiz-adv-x="972" 
d="M474 681h441q7 0 12.5 -5.5t5.5 -12.5v-120q0 -7 -5.5 -12.5t-12.5 -5.5h-283v-104h230q8 0 13 -5.5t5 -12.5v-120q0 -7 -5 -12.5t-13 -5.5h-230v-109h283q7 0 12.5 -5t5.5 -13v-120q0 -8 -5.5 -13t-12.5 -5h-299h-2h-140q-6 0 -8 1l-3 2q-5 3 -6 7q-1 2 -1 8v176h-217
v-176q0 -8 -5.5 -13t-12.5 -5h-140q-7 0 -12.5 5t-5.5 13v393q0 65 27.5 125t80.5 100q72 54 176 54q60 0 111 -19q5 10 16 10zM347 526q-45 0 -73 -25q-35 -33 -35 -98v-53h217v63q-3 56 -35 88q-28 25 -74 25z" />
    <glyph glyph-name="Ccedilla" unicode="&#xc7;" horiz-adv-x="652" 
d="M531 -116q0 -40 -25.5 -65t-59 -33.5t-74.5 -8.5q-28 0 -48 4q-14 2 -14 14v48q0 14 14 14q4 0 18 -1t22 -1q61 0 61 34q0 28 -51 28q-17 0 -27 -1l7 77q-150 13 -233.5 105t-83.5 243q0 150 106.5 249.5t263.5 99.5q114 0 204 -44q15 -8 7 -23l-57 -119q-7 -12 -22 -7
q-73 34 -137 34q-75 0 -128 -54t-53 -136q0 -83 51.5 -137t130.5 -54q73 0 143 35q14 7 21 -6l57 -121q6 -15 -8 -22q-80 -38 -178 -45v-16q45 -6 69 -31.5t24 -59.5z" />
    <glyph glyph-name="Egrave" unicode="&#xc8;" horiz-adv-x="629" 
d="M82 681h490q8 0 13 -5.5t5 -12.5v-120q0 -7 -5 -12.5t-13 -5.5h-332v-104h279q7 0 12.5 -5.5t5.5 -12.5v-120q0 -7 -5.5 -12.5t-12.5 -5.5h-279v-109h332q8 0 13 -5t5 -13v-120q0 -8 -5 -13t-13 -5h-490q-8 0 -13 5t-5 13v645q0 7 5 12.5t13 5.5zM208 969h110
q16 0 25 -18l68 -145q6 -14 6 -19q0 -15 -16 -15h-84q-16 0 -27 18l-95 152q-4 5 -4 12q0 15 17 15z" />
    <glyph glyph-name="Eacute" unicode="&#xc9;" horiz-adv-x="629" 
d="M82 681h490q8 0 13 -5.5t5 -12.5v-120q0 -7 -5 -12.5t-13 -5.5h-332v-104h279q7 0 12.5 -5.5t5.5 -12.5v-120q0 -7 -5.5 -12.5t-12.5 -5.5h-279v-109h332q8 0 13 -5t5 -13v-120q0 -8 -5 -13t-13 -5h-490q-8 0 -13 5t-5 13v645q0 7 5 12.5t13 5.5zM332 969h110
q17 0 17 -15q0 -4 -4 -12l-95 -152q-11 -18 -27 -18h-84q-16 0 -16 15q0 5 6 19l68 145q9 18 25 18z" />
    <glyph glyph-name="Ecircumflex" unicode="&#xca;" horiz-adv-x="629" 
d="M82 681h490q8 0 13 -5.5t5 -12.5v-120q0 -7 -5 -12.5t-13 -5.5h-332v-104h279q7 0 12.5 -5.5t5.5 -12.5v-120q0 -7 -5.5 -12.5t-12.5 -5.5h-279v-109h332q8 0 13 -5t5 -13v-120q0 -8 -5 -13t-13 -5h-490q-8 0 -13 5t-5 13v645q0 7 5 12.5t13 5.5zM292 969h56q13 0 24 -13
l138 -158q8 -10 5.5 -18t-13.5 -8h-102q-18 0 -32 17l-48 56l-48 -56q-14 -17 -32 -17h-102q-11 0 -13.5 8t5.5 18l138 158q11 13 24 13z" />
    <glyph glyph-name="Edieresis" unicode="&#xcb;" horiz-adv-x="629" 
d="M82 681h490q8 0 13 -5.5t5 -12.5v-120q0 -7 -5 -12.5t-13 -5.5h-332v-104h279q7 0 12.5 -5.5t5.5 -12.5v-120q0 -7 -5.5 -12.5t-12.5 -5.5h-279v-109h332q8 0 13 -5t5 -13v-120q0 -8 -5 -13t-13 -5h-490q-8 0 -13 5t-5 13v645q0 7 5 12.5t13 5.5zM203 765q-38 0 -65 27.5
t-27 65.5t27 65t65 27q39 0 66 -27t27 -65t-27 -65.5t-66 -27.5zM457 765q-38 0 -65 27.5t-27 65.5t27 65t65 27t65 -27t27 -65t-27 -65.5t-65 -27.5z" />
    <glyph glyph-name="Igrave" unicode="&#xcc;" horiz-adv-x="304" 
d="M82 681h140q8 0 13 -5.5t5 -12.5v-645q0 -8 -5 -13t-13 -5h-140q-8 0 -13 5t-5 13v645q0 7 5 12.5t13 5.5zM49 969h110q16 0 25 -18l68 -145q6 -14 6 -19q0 -15 -16 -15h-84q-16 0 -27 18l-95 152q-4 5 -4 12q0 15 17 15z" />
    <glyph glyph-name="Iacute" unicode="&#xcd;" horiz-adv-x="304" 
d="M82 681h140q8 0 13 -5.5t5 -12.5v-645q0 -8 -5 -13t-13 -5h-140q-8 0 -13 5t-5 13v645q0 7 5 12.5t13 5.5zM147 969h110q17 0 17 -15q0 -4 -4 -12l-95 -152q-11 -18 -27 -18h-84q-16 0 -16 15q0 5 6 19l68 145q9 18 25 18z" />
    <glyph glyph-name="Icircumflex" unicode="&#xce;" horiz-adv-x="304" 
d="M82 681h140q8 0 13 -5.5t5 -12.5v-645q0 -8 -5 -13t-13 -5h-140q-8 0 -13 5t-5 13v645q0 7 5 12.5t13 5.5zM124 969h56q13 0 24 -13l138 -158q8 -10 5.5 -18t-13.5 -8h-102q-18 0 -32 17l-48 56l-48 -56q-14 -17 -32 -17h-102q-11 0 -13.5 8t5.5 18l138 158q11 13 24 13z
" />
    <glyph glyph-name="Idieresis" unicode="&#xcf;" horiz-adv-x="304" 
d="M82 681h140q8 0 13 -5.5t5 -12.5v-645q0 -8 -5 -13t-13 -5h-140q-8 0 -13 5t-5 13v645q0 7 5 12.5t13 5.5zM25 765q-38 0 -65 27.5t-27 65.5t27 65t65 27q39 0 66 -27t27 -65t-27 -65.5t-66 -27.5zM279 765q-38 0 -65 27.5t-27 65.5t27 65t65 27t65 -27t27 -65t-27 -65.5
t-65 -27.5z" />
    <glyph glyph-name="Eth" unicode="&#xd0;" horiz-adv-x="757" 
d="M720 341q0 -206 -151 -292q-87 -49 -225 -49h-249q-7 0 -12.5 5t-5.5 13v247h-59q-8 0 -13 5.5t-5 12.5v116q0 7 5 12.5t13 5.5h59v246q0 7 5.5 12.5t12.5 5.5h262q86 0 154 -21.5t125 -80.5q84 -87 84 -238zM253 533v-116h98q7 0 12.5 -5.5t5.5 -12.5v-116
q0 -7 -5.5 -12.5t-12.5 -5.5h-98v-117h79q73 0 117 22q91 42 91 171q0 92 -47 139q-52 53 -161 53h-79z" />
    <glyph glyph-name="Ntilde" unicode="&#xd1;" horiz-adv-x="744" 
d="M512 294v369q0 7 5 12.5t13 5.5h132q8 0 13 -5.5t5 -12.5v-645q0 -8 -5 -13t-13 -5h-122q-20 0 -32 18l-276 369v-369q0 -8 -5 -13t-13 -5h-132q-8 0 -13 5t-5 13v645q0 7 5 12.5t13 5.5h123q18 0 32 -18zM436 894q28 0 35 36q5 18 18 18h51q21 0 21 -19
q0 -66 -28 -105.5t-82 -39.5q-45 0 -85 31q-37 28 -57 28q-28 0 -35 -36q-4 -18 -18 -18h-51q-21 0 -21 19q0 66 28 105.5t82 39.5q42 0 86 -33q36 -26 56 -26z" />
    <glyph glyph-name="Ograve" unicode="&#xd2;" horiz-adv-x="811" 
d="M301 969h110q16 0 25 -18l68 -145q6 -14 6 -19q0 -15 -16 -15h-84q-16 0 -27 18l-95 152q-4 5 -4 12q0 15 17 15zM774 339q0 -156 -107.5 -252.5t-260.5 -96.5t-261 97.5t-108 251.5q0 156 108 253.5t261 97.5q152 0 260 -98t108 -253zM587 339q0 81 -51 133.5t-130 52.5
t-130.5 -52.5t-51.5 -133.5t51 -133t131 -52q79 0 130 52t51 133z" />
    <glyph glyph-name="Oacute" unicode="&#xd3;" horiz-adv-x="811" 
d="M774 339q0 -156 -107.5 -252.5t-260.5 -96.5t-261 97.5t-108 251.5q0 156 108 253.5t261 97.5q152 0 260 -98t108 -253zM587 339q0 81 -51 133.5t-130 52.5t-130.5 -52.5t-51.5 -133.5t51 -133t131 -52q79 0 130 52t51 133zM399 969h110q17 0 17 -15q0 -4 -4 -12
l-95 -152q-11 -18 -27 -18h-84q-16 0 -16 15q0 5 6 19l68 145q9 18 25 18z" />
    <glyph glyph-name="Ocircumflex" unicode="&#xd4;" horiz-adv-x="811" 
d="M774 339q0 -156 -107.5 -252.5t-260.5 -96.5t-261 97.5t-108 251.5q0 156 108 253.5t261 97.5q152 0 260 -98t108 -253zM587 339q0 81 -51 133.5t-130 52.5t-130.5 -52.5t-51.5 -133.5t51 -133t131 -52q79 0 130 52t51 133zM377 969h56q13 0 24 -13l138 -158
q8 -10 5.5 -18t-13.5 -8h-102q-18 0 -32 17l-48 56l-48 -56q-14 -17 -32 -17h-102q-11 0 -13.5 8t5.5 18l138 158q11 13 24 13z" />
    <glyph glyph-name="Otilde" unicode="&#xd5;" horiz-adv-x="811" 
d="M774 339q0 -156 -107.5 -252.5t-260.5 -96.5t-261 97.5t-108 251.5q0 156 108 253.5t261 97.5q152 0 260 -98t108 -253zM587 339q0 81 -51 133.5t-130 52.5t-130.5 -52.5t-51.5 -133.5t51 -133t131 -52q79 0 130 52t51 133zM469 894q28 0 35 36q4 18 18 18h51
q21 0 21 -19q0 -66 -28 -105.5t-82 -39.5q-45 0 -85 31q-37 28 -57 28q-28 0 -35 -36q-5 -18 -18 -18h-51q-21 0 -21 19q0 66 28 105.5t82 39.5q42 0 86 -33q36 -26 56 -26z" />
    <glyph glyph-name="Odieresis" unicode="&#xd6;" horiz-adv-x="811" 
d="M774 339q0 -156 -107.5 -252.5t-260.5 -96.5t-261 97.5t-108 251.5q0 156 108 253.5t261 97.5q152 0 260 -98t108 -253zM587 339q0 81 -51 133.5t-130 52.5t-130.5 -52.5t-51.5 -133.5t51 -133t131 -52q79 0 130 52t51 133zM278 765q-38 0 -65 27.5t-27 65.5t27 65t65 27
q39 0 66 -27t27 -65t-27 -65.5t-66 -27.5zM532 765q-38 0 -65 27.5t-27 65.5t27 65t65 27t65 -27t27 -65t-27 -65.5t-65 -27.5z" />
    <glyph glyph-name="multiply" unicode="&#xd7;" horiz-adv-x="538" 
d="M130 598l138 -138l139 139q13 13 26 0l82 -82q13 -13 0 -25l-139 -139l139 -139q13 -13 0 -26l-82 -82q-13 -13 -26 0l-139 139l-138 -138q-12 -13 -25 0l-82 82q-12 12 0 26l138 138l-138 138q-13 13 0 25l82 82q13 12 25 0z" />
    <glyph glyph-name="Oslash" unicode="&#xd8;" horiz-adv-x="811" 
d="M774 339q0 -156 -107.5 -252.5t-260.5 -96.5q-103 0 -189 46l-16 -18q-15 -18 -29 -18h-102q-14 0 -18.5 8.5t4.5 18.5l69 80q-88 96 -88 232q0 156 108 253.5t261 97.5q100 0 188 -47l17 20q16 18 29 18h102q13 0 17.5 -9.5t-3.5 -17.5l-71 -81q89 -97 89 -234zM587 339
q0 52 -23 95l-232 -266q34 -14 74 -14q79 0 130 52t51 133zM224 339q0 -52 22 -94l232 266q-34 14 -72 14q-79 0 -130.5 -52.5t-51.5 -133.5z" />
    <glyph glyph-name="Ugrave" unicode="&#xd9;" horiz-adv-x="725" 
d="M486 287v376q0 7 5 12.5t13 5.5h140q8 0 13 -5.5t5 -12.5v-394q0 -113 -61 -185q-80 -94 -239 -94q-158 0 -238 94q-61 72 -61 185v394q0 7 5.5 12.5t12.5 5.5h140q7 0 12.5 -5.5t5.5 -12.5v-376q0 -65 25 -97q32 -41 97 -41q68 0 100 41q25 32 25 97zM259 969h110
q16 0 25 -18l68 -145q6 -14 6 -19q0 -15 -16 -15h-84q-16 0 -27 18l-95 152q-4 5 -4 12q0 15 17 15z" />
    <glyph glyph-name="Uacute" unicode="&#xda;" horiz-adv-x="725" 
d="M486 287v376q0 7 5 12.5t13 5.5h140q8 0 13 -5.5t5 -12.5v-394q0 -113 -61 -185q-80 -94 -239 -94q-158 0 -238 94q-61 72 -61 185v394q0 7 5.5 12.5t12.5 5.5h140q7 0 12.5 -5.5t5.5 -12.5v-376q0 -65 25 -97q32 -41 97 -41q68 0 100 41q25 32 25 97zM357 969h110
q17 0 17 -15q0 -4 -4 -12l-95 -152q-11 -18 -27 -18h-84q-16 0 -16 15q0 5 6 19l68 145q9 18 25 18z" />
    <glyph glyph-name="Ucircumflex" unicode="&#xdb;" horiz-adv-x="725" 
d="M486 287v376q0 7 5 12.5t13 5.5h140q8 0 13 -5.5t5 -12.5v-394q0 -113 -61 -185q-80 -94 -239 -94q-158 0 -238 94q-61 72 -61 185v394q0 7 5.5 12.5t12.5 5.5h140q7 0 12.5 -5.5t5.5 -12.5v-376q0 -65 25 -97q32 -41 97 -41q68 0 100 41q25 32 25 97zM334 969h56
q13 0 24 -13l138 -158q8 -10 5.5 -18t-13.5 -8h-102q-18 0 -32 17l-48 56l-48 -56q-14 -17 -32 -17h-102q-11 0 -13.5 8t5.5 18l138 158q11 13 24 13z" />
    <glyph glyph-name="Udieresis" unicode="&#xdc;" horiz-adv-x="725" 
d="M486 287v376q0 7 5 12.5t13 5.5h140q8 0 13 -5.5t5 -12.5v-394q0 -113 -61 -185q-80 -94 -239 -94q-158 0 -238 94q-61 72 -61 185v394q0 7 5.5 12.5t12.5 5.5h140q7 0 12.5 -5.5t5.5 -12.5v-376q0 -65 25 -97q32 -41 97 -41q68 0 100 41q25 32 25 97zM235 765
q-38 0 -65 27.5t-27 65.5t27 65t65 27q39 0 66 -27t27 -65t-27 -65.5t-66 -27.5zM489 765q-38 0 -65 27.5t-27 65.5t27 65t65 27t65 -27t27 -65t-27 -65.5t-65 -27.5z" />
    <glyph glyph-name="Yacute" unicode="&#xdd;" horiz-adv-x="686" 
d="M342 450l133 213q11 18 30 18h162q14 0 17 -9t-5 -20l-249 -377v-257q0 -8 -5 -13t-13 -5h-140q-8 0 -13 5t-5 13v258l-247 376q-8 11 -5 20t17 9h161q20 0 30 -18zM348 969h110q17 0 17 -15q0 -4 -4 -12l-95 -152q-11 -18 -27 -18h-84q-16 0 -16 15q0 5 6 19l68 145
q9 18 25 18z" />
    <glyph glyph-name="Thorn" unicode="&#xde;" horiz-adv-x="657" 
d="M64 -113v776q0 7 5 12.5t13 5.5h140q8 0 13 -5.5t5 -12.5v-103h133q103 0 166 -53q85 -70 85 -192q0 -126 -92 -197q-61 -48 -154 -48h-138v-183q0 -7 -5 -12.5t-13 -5.5h-140q-8 0 -13 5.5t-5 12.5zM445 315q0 42 -21 65q-23 26 -73 26h-111v-182h111q45 0 68 20
q26 23 26 71z" />
    <glyph glyph-name="germandbls" unicode="&#xdf;" 
d="M381 -10q-74 0 -135 34q-15 8 -7 23l45 93q7 15 22 7q37 -20 69 -20q20 0 30 10q9 7 9 22q0 16 -17.5 30t-51 33t-53.5 36q-52 43 -52 108q0 25 15 43t32.5 26.5t32.5 26t15 42.5q0 24 -16 40t-39 16q-24 0 -40 -15q-17 -14 -17 -44v-559q0 -8 -5.5 -13t-12.5 -5h-126
q-7 0 -12.5 5t-5.5 13v559q0 73 47 123q61 67 168 67q105 0 165 -44q58 -44 58 -120q0 -31 -11 -55.5t-26.5 -38t-31.5 -23.5t-27 -18.5t-11 -16.5q0 -12 14.5 -21.5t43.5 -22t47 -24.5q69 -48 69 -136q0 -80 -55 -132q-51 -49 -130 -49z" />
    <glyph glyph-name="agrave" unicode="&#xe0;" horiz-adv-x="493" 
d="M227 349q-52 0 -118 -36q-19 -10 -26 6l-35 77q-7 14 7 23q82 51 193 51q102 0 151 -53q41 -44 41 -121v-278q0 -8 -5 -13t-13 -5h-109q-7 0 -12.5 5t-5.5 13v4h-4q-48 -32 -115 -32q-63 0 -104 39q-42 40 -42 106q0 77 79 115q58 27 169 38v7q0 26 -9 38q-11 16 -42 16z
M229 104q26 0 49 15v66q-34 0 -58 -8q-36 -11 -36 -37q0 -18 12 -27t33 -9zM145 765h110q16 0 25 -18l68 -145q6 -14 6 -19q0 -15 -16 -15h-84q-16 0 -27 18l-95 152q-4 5 -4 12q0 15 17 15z" />
    <glyph glyph-name="aacute" unicode="&#xe1;" horiz-adv-x="493" 
d="M227 349q-52 0 -118 -36q-19 -10 -26 6l-35 77q-7 14 7 23q82 51 193 51q102 0 151 -53q41 -44 41 -121v-278q0 -8 -5 -13t-13 -5h-109q-7 0 -12.5 5t-5.5 13v4h-4q-48 -32 -115 -32q-63 0 -104 39q-42 40 -42 106q0 77 79 115q58 27 169 38v7q0 26 -9 38q-11 16 -42 16z
M229 104q26 0 49 15v66q-34 0 -58 -8q-36 -11 -36 -37q0 -18 12 -27t33 -9zM238 765h110q17 0 17 -15q0 -4 -4 -12l-95 -152q-11 -18 -27 -18h-84q-16 0 -16 15q0 5 6 19l68 145q9 18 25 18z" />
    <glyph glyph-name="acircumflex" unicode="&#xe2;" horiz-adv-x="496" 
d="M227 349q-52 0 -118 -36q-19 -10 -26 6l-35 77q-7 14 7 23q82 51 193 51q102 0 151 -53q41 -44 41 -121v-278q0 -8 -5 -13t-13 -5h-109q-7 0 -12.5 5t-5.5 13v4h-4q-48 -32 -115 -32q-63 0 -104 39q-42 40 -42 106q0 77 79 115q58 27 169 38v7q0 26 -9 38q-11 16 -42 16z
M229 104q26 0 49 15v66q-34 0 -58 -8q-36 -11 -36 -37q0 -18 12 -27t33 -9zM218 765h56q13 0 24 -13l138 -158q8 -10 5.5 -18t-13.5 -8h-102q-18 0 -32 17l-48 56l-48 -56q-14 -17 -32 -17h-102q-11 0 -13.5 8t5.5 18l138 158q11 13 24 13z" />
    <glyph glyph-name="atilde" unicode="&#xe3;" horiz-adv-x="493" 
d="M227 349q-52 0 -118 -36q-19 -10 -26 6l-35 77q-7 14 7 23q82 51 193 51q102 0 151 -53q41 -44 41 -121v-278q0 -8 -5 -13t-13 -5h-109q-7 0 -12.5 5t-5.5 13v4h-4q-48 -32 -115 -32q-63 0 -104 39q-42 40 -42 106q0 77 79 115q58 27 169 38v7q0 26 -9 38q-11 16 -42 16z
M229 104q26 0 49 15v66q-34 0 -58 -8q-36 -11 -36 -37q0 -18 12 -27t33 -9zM305 693q28 0 35 36q4 18 18 18h51q21 0 21 -19q0 -66 -28 -105.5t-82 -39.5q-45 0 -85 31q-37 28 -57 28q-28 0 -35 -36q-5 -18 -18 -18h-51q-21 0 -21 19q0 66 28 105.5t82 39.5q42 0 86 -33
q36 -26 56 -26z" />
    <glyph glyph-name="adieresis" unicode="&#xe4;" horiz-adv-x="493" 
d="M227 349q-52 0 -118 -36q-19 -10 -26 6l-35 77q-7 14 7 23q82 51 193 51q102 0 151 -53q41 -44 41 -121v-278q0 -8 -5 -13t-13 -5h-109q-7 0 -12.5 5t-5.5 13v4h-4q-48 -32 -115 -32q-63 0 -104 39q-42 40 -42 106q0 77 79 115q58 27 169 38v7q0 26 -9 38q-11 16 -42 16z
M229 104q26 0 49 15v66q-34 0 -58 -8q-36 -11 -36 -37q0 -18 12 -27t33 -9zM119 565q-38 0 -65 27.5t-27 65.5t27 65t65 27q39 0 66 -27t27 -65t-27 -65.5t-66 -27.5zM373 565q-38 0 -65 27.5t-27 65.5t27 65t65 27t65 -27t27 -65t-27 -65.5t-65 -27.5z" />
    <glyph glyph-name="aring" unicode="&#xe5;" horiz-adv-x="493" 
d="M227 349q-52 0 -118 -36q-19 -10 -26 6l-35 77q-7 14 7 23q82 51 193 51q102 0 151 -53q41 -44 41 -121v-278q0 -8 -5 -13t-13 -5h-109q-7 0 -12.5 5t-5.5 13v4h-4q-48 -32 -115 -32q-63 0 -104 39q-42 40 -42 106q0 77 79 115q58 27 169 38v7q0 26 -9 38q-11 16 -42 16z
M229 104q26 0 49 15v66q-34 0 -58 -8q-36 -11 -36 -37q0 -18 12 -27t33 -9zM371 669q0 -51 -36.5 -87t-87.5 -36q-52 0 -88.5 36t-36.5 87q0 52 36.5 88.5t88.5 36.5q51 0 87.5 -36.5t36.5 -88.5zM302 669q0 24 -16 40.5t-39 16.5t-39 -16.5t-16 -40.5q0 -23 16 -39t39 -16
t39 16t16 39z" />
    <glyph glyph-name="ae" unicode="&#xe6;" horiz-adv-x="769" 
d="M738 206q-2 -18 -18 -18h-272q7 -32 27 -50q25 -23 68 -23q53 0 101 28q19 11 26 -5l42 -78q6 -13 -7 -23q-64 -47 -173 -47q-115 0 -188 68q-34 -36 -77 -52q-40 -16 -91 -16q-68 0 -110 45q-36 39 -36 100q0 77 79 115q58 27 169 38v7q0 26 -9 38q-10 15 -40 15
q-57 0 -120 -34q-19 -12 -26 5l-35 77q-7 15 7 23q84 51 193 51q43 0 77 -10q30 -10 55 -27q23 16 54 25q38 12 83 12q125 0 184 -83q48 -70 37 -181zM229 104q19 0 37 8q15 7 30 22q-9 22 -14 53q-44 -3 -69 -13q-29 -12 -29 -34q0 -17 11 -26q11 -10 34 -10zM448 285h136
q-3 26 -16 41q-17 20 -50 20q-34 0 -51 -18q-14 -16 -19 -43z" />
    <glyph glyph-name="ccedilla" unicode="&#xe7;" horiz-adv-x="484" 
d="M300 124q44 0 91 27q19 11 26 -5l46 -86q6 -13 -7 -23q-50 -37 -129 -45v-17q45 -6 69 -31.5t24 -59.5q0 -40 -25.5 -65t-59 -33.5t-74.5 -8.5q-28 0 -48 4q-14 2 -14 14v48q0 14 14 14q4 0 18 -1t22 -1q61 0 61 34q0 28 -51 28q-17 0 -27 -1l7 77q-95 12 -150 73
q-59 64 -59 165q0 86 49 146q74 93 216 93q89 0 155 -48q13 -10 7 -23l-48 -89q-7 -16 -26 -5q-47 29 -87 29q-45 0 -73 -28q-28 -30 -28 -75q0 -48 26 -77q27 -30 75 -30z" />
    <glyph glyph-name="egrave" unicode="&#xe8;" horiz-adv-x="525" 
d="M204 285h136q-3 26 -16 41q-17 20 -50 20q-34 0 -51 -18q-14 -16 -19 -43zM301 115q52 0 99 28q17 10 26 -5l42 -78q6 -13 -7 -23q-28 -21 -76 -34t-97 -13q-116 0 -183 64q-71 66 -71 182q0 102 70 172q64 62 169 62q125 0 184 -83q48 -70 37 -181q-2 -18 -18 -18h-272
q7 -32 27 -50q25 -23 70 -23zM161 765h110q16 0 25 -18l68 -145q6 -14 6 -19q0 -15 -16 -15h-84q-16 0 -27 18l-95 152q-4 5 -4 12q0 15 17 15z" />
    <glyph glyph-name="eacute" unicode="&#xe9;" horiz-adv-x="525" 
d="M204 285h136q-3 26 -16 41q-17 20 -50 20q-34 0 -51 -18q-14 -16 -19 -43zM301 115q52 0 99 28q17 10 26 -5l42 -78q6 -13 -7 -23q-28 -21 -76 -34t-97 -13q-116 0 -183 64q-71 66 -71 182q0 102 70 172q64 62 169 62q125 0 184 -83q48 -70 37 -181q-2 -18 -18 -18h-272
q7 -32 27 -50q25 -23 70 -23zM254 765h110q17 0 17 -15q0 -4 -4 -12l-95 -152q-11 -18 -27 -18h-84q-16 0 -16 15q0 5 6 19l68 145q9 18 25 18z" />
    <glyph glyph-name="ecircumflex" unicode="&#xea;" horiz-adv-x="525" 
d="M204 285h136q-3 26 -16 41q-17 20 -50 20q-34 0 -51 -18q-14 -16 -19 -43zM301 115q52 0 99 28q17 10 26 -5l42 -78q6 -13 -7 -23q-28 -21 -76 -34t-97 -13q-116 0 -183 64q-71 66 -71 182q0 102 70 172q64 62 169 62q125 0 184 -83q48 -70 37 -181q-2 -18 -18 -18h-272
q7 -32 27 -50q25 -23 70 -23zM234 765h56q13 0 24 -13l138 -158q8 -10 5.5 -18t-13.5 -8h-102q-18 0 -32 17l-48 56l-48 -56q-14 -17 -32 -17h-102q-11 0 -13.5 8t5.5 18l138 158q11 13 24 13z" />
    <glyph glyph-name="edieresis" unicode="&#xeb;" horiz-adv-x="525" 
d="M204 285h136q-3 26 -16 41q-17 20 -50 20q-34 0 -51 -18q-14 -16 -19 -43zM301 115q52 0 99 28q17 10 26 -5l42 -78q6 -13 -7 -23q-28 -21 -76 -34t-97 -13q-116 0 -183 64q-71 66 -71 182q0 102 70 172q64 62 169 62q125 0 184 -83q48 -70 37 -181q-2 -18 -18 -18h-272
q7 -32 27 -50q25 -23 70 -23zM135 565q-38 0 -65 27.5t-27 65.5t27 65t65 27q39 0 66 -27t27 -65t-27 -65.5t-66 -27.5zM389 565q-38 0 -65 27.5t-27 65.5t27 65t65 27t65 -27t27 -65t-27 -65.5t-65 -27.5z" />
    <glyph glyph-name="igrave" unicode="&#xec;" horiz-adv-x="284" 
d="M61 444q0 8 5.5 13t12.5 5h126q7 0 12.5 -5t5.5 -13v-426q0 -8 -5.5 -13t-12.5 -5h-126q-7 0 -12.5 5t-5.5 13v426zM41 765h110q16 0 25 -18l68 -145q6 -14 6 -19q0 -15 -16 -15h-84q-16 0 -27 18l-95 152q-4 5 -4 12q0 15 17 15z" />
    <glyph glyph-name="iacute" unicode="&#xed;" horiz-adv-x="284" 
d="M61 444q0 8 5.5 13t12.5 5h126q7 0 12.5 -5t5.5 -13v-426q0 -8 -5.5 -13t-12.5 -5h-126q-7 0 -12.5 5t-5.5 13v426zM134 765h110q17 0 17 -15q0 -4 -4 -12l-95 -152q-11 -18 -27 -18h-84q-16 0 -16 15q0 5 6 19l68 145q9 18 25 18z" />
    <glyph glyph-name="icircumflex" unicode="&#xee;" horiz-adv-x="284" 
d="M61 444q0 8 5.5 13t12.5 5h126q7 0 12.5 -5t5.5 -13v-426q0 -8 -5.5 -13t-12.5 -5h-126q-7 0 -12.5 5t-5.5 13v426zM114 765h56q13 0 24 -13l138 -158q8 -10 5.5 -18t-13.5 -8h-102q-18 0 -32 17l-48 56l-48 -56q-14 -17 -32 -17h-102q-11 0 -13.5 8t5.5 18l138 158
q11 13 24 13z" />
    <glyph glyph-name="idieresis" unicode="&#xef;" horiz-adv-x="284" 
d="M61 444q0 8 5.5 13t12.5 5h126q7 0 12.5 -5t5.5 -13v-426q0 -8 -5.5 -13t-12.5 -5h-126q-7 0 -12.5 5t-5.5 13v426zM15 565q-38 0 -65 27.5t-27 65.5t27 65t65 27q39 0 66 -27t27 -65t-27 -65.5t-66 -27.5zM269 565q-38 0 -65 27.5t-27 65.5t27 65t65 27t65 -27t27 -65
t-27 -65.5t-65 -27.5z" />
    <glyph glyph-name="eth" unicode="&#xf0;" horiz-adv-x="522" 
d="M91 525l39 29q-5 4 -44 40q-12 12 -1 24l79 76q13 13 30 1q26 -19 58 -48l68 51q15 11 25 -3l43 -57q10 -14 -3 -25l-51 -39q154 -163 154 -347q0 -114 -64.5 -175.5t-162.5 -61.5q-90 0 -151 50q-76 62 -76 170q0 90 59 147q60 59 152 59q21 0 34 -4q-21 32 -65 72
l-58 -44q-15 -11 -25 3l-44 57q-11 13 4 25zM337 227q0 25 -5 55q-23 10 -61 10q-39 0 -64 -27q-23 -23 -23 -55q0 -40 21 -62q20 -22 56 -22q76 0 76 101z" />
    <glyph glyph-name="ntilde" unicode="&#xf1;" horiz-adv-x="587" 
d="M310 337q-46 0 -68 -37q-19 -33 -19 -88v-194q0 -8 -5.5 -13t-12.5 -5h-126q-7 0 -12.5 5t-5.5 13v426q0 8 5.5 13t12.5 5h121q8 0 13 -5t5 -13v-21h3q20 18 43 29q38 18 82 18q86 0 136 -46q52 -49 52 -141v-265q0 -8 -5 -13t-13 -5h-126q-8 0 -13 5t-5 13v229
q0 52 -15 71q-16 19 -47 19zM352 693q28 0 35 36q5 18 18 18h51q21 0 21 -19q0 -66 -28 -105.5t-82 -39.5q-45 0 -85 31q-37 28 -57 28q-28 0 -35 -36q-4 -18 -18 -18h-51q-21 0 -21 19q0 66 28 105.5t82 39.5q42 0 86 -33q36 -26 56 -26z" />
    <glyph glyph-name="ograve" unicode="&#xf2;" horiz-adv-x="572" 
d="M194 230q0 -50 29 -82q25 -27 63 -27t63 27q29 32 29 82t-29 82q-25 27 -63 27t-63 -27q-29 -32 -29 -82zM34 230q0 114 79 180q69 60 173 60t173 -60q79 -66 79 -180t-79 -180q-69 -60 -173 -60t-173 60q-79 66 -79 180zM184 765h110q16 0 25 -18l68 -145q6 -14 6 -19
q0 -15 -16 -15h-84q-16 0 -27 18l-95 152q-4 5 -4 12q0 15 17 15z" />
    <glyph glyph-name="oacute" unicode="&#xf3;" horiz-adv-x="572" 
d="M194 230q0 -50 29 -82q25 -27 63 -27t63 27q29 32 29 82t-29 82q-25 27 -63 27t-63 -27q-29 -32 -29 -82zM34 230q0 114 79 180q69 60 173 60t173 -60q79 -66 79 -180t-79 -180q-69 -60 -173 -60t-173 60q-79 66 -79 180zM277 765h110q17 0 17 -15q0 -4 -4 -12l-95 -152
q-11 -18 -27 -18h-84q-16 0 -16 15q0 5 6 19l68 145q9 18 25 18z" />
    <glyph glyph-name="ocircumflex" unicode="&#xf4;" horiz-adv-x="572" 
d="M194 230q0 -50 29 -82q25 -27 63 -27t63 27q29 32 29 82t-29 82q-25 27 -63 27t-63 -27q-29 -32 -29 -82zM34 230q0 114 79 180q69 60 173 60t173 -60q79 -66 79 -180t-79 -180q-69 -60 -173 -60t-173 60q-79 66 -79 180zM258 765h56q13 0 24 -13l138 -158q8 -10 5.5 -18
t-13.5 -8h-102q-18 0 -32 17l-48 56l-48 -56q-14 -17 -32 -17h-102q-11 0 -13.5 8t5.5 18l138 158q11 13 24 13z" />
    <glyph glyph-name="otilde" unicode="&#xf5;" horiz-adv-x="572" 
d="M194 230q0 -50 29 -82q25 -27 63 -27t63 27q29 32 29 82t-29 82q-25 27 -63 27t-63 -27q-29 -32 -29 -82zM34 230q0 114 79 180q69 60 173 60t173 -60q79 -66 79 -180t-79 -180q-69 -60 -173 -60t-173 60q-79 66 -79 180zM344 693q28 0 35 36q5 18 18 18h51q21 0 21 -19
q0 -66 -28 -105.5t-82 -39.5q-45 0 -85 31q-37 28 -57 28q-28 0 -35 -36q-4 -18 -18 -18h-51q-21 0 -21 19q0 66 28 105.5t82 39.5q42 0 86 -33q36 -26 56 -26z" />
    <glyph glyph-name="odieresis" unicode="&#xf6;" horiz-adv-x="572" 
d="M194 230q0 -50 29 -82q25 -27 63 -27t63 27q29 32 29 82t-29 82q-25 27 -63 27t-63 -27q-29 -32 -29 -82zM34 230q0 114 79 180q69 60 173 60t173 -60q79 -66 79 -180t-79 -180q-69 -60 -173 -60t-173 60q-79 66 -79 180zM159 565q-38 0 -65 27.5t-27 65.5t27 65t65 27
q39 0 66 -27t27 -65t-27 -65.5t-66 -27.5zM413 565q-38 0 -65 27.5t-27 65.5t27 65t65 27t65 -27t27 -65t-27 -65.5t-65 -27.5z" />
    <glyph glyph-name="divide" unicode="&#xf7;" horiz-adv-x="624" 
d="M312 675q40 0 68 -28t28 -68t-28 -68t-68 -28t-68 28t-28 68t28 68t68 28zM216 127q0 40 28 68t68 28t68 -28t28 -68t-28 -68t-68 -28t-68 28t-28 68zM63 429h498q7 0 12.5 -5.5t5.5 -12.5v-116q0 -7 -5.5 -12.5t-12.5 -5.5h-498q-7 0 -12.5 5.5t-5.5 12.5v116
q0 7 5.5 12.5t12.5 5.5z" />
    <glyph glyph-name="oslash" unicode="&#xf8;" horiz-adv-x="572" 
d="M34 230q0 114 79 180q69 60 173 60q71 0 130 -31l4 5q16 18 29 18h54q14 0 17.5 -8t-5.5 -19l-37 -43q60 -66 60 -162q0 -114 -79 -180q-69 -60 -173 -60q-72 0 -129 30l-1 -2q-15 -18 -29 -18h-54q-14 0 -18 7t6 20l34 40q-61 63 -61 163zM194 230q0 -23 6 -41l122 142
q-18 8 -36 8q-38 0 -63 -27q-29 -32 -29 -82zM378 230q0 21 -6 39l-122 -141q15 -7 36 -7q38 0 63 27q29 32 29 82z" />
    <glyph glyph-name="ugrave" unicode="&#xf9;" horiz-adv-x="578" 
d="M53 201v243q0 8 5.5 13t12.5 5h126q7 0 12.5 -5t5.5 -13v-238q0 -29 10 -49q18 -35 64 -35t64 35q10 20 10 49v238q0 8 5.5 13t12.5 5h126q7 0 12.5 -5t5.5 -13v-243q0 -87 -44 -139q-60 -72 -192 -72t-192 72q-44 52 -44 139zM187 765h110q16 0 25 -18l68 -145
q6 -14 6 -19q0 -15 -16 -15h-84q-16 0 -27 18l-95 152q-4 5 -4 12q0 15 17 15z" />
    <glyph glyph-name="uacute" unicode="&#xfa;" horiz-adv-x="578" 
d="M53 201v243q0 8 5.5 13t12.5 5h126q7 0 12.5 -5t5.5 -13v-238q0 -29 10 -49q18 -35 64 -35t64 35q10 20 10 49v238q0 8 5.5 13t12.5 5h126q7 0 12.5 -5t5.5 -13v-243q0 -87 -44 -139q-60 -72 -192 -72t-192 72q-44 52 -44 139zM280 765h110q17 0 17 -15q0 -4 -4 -12
l-95 -152q-11 -18 -27 -18h-84q-16 0 -16 15q0 5 6 19l68 145q9 18 25 18z" />
    <glyph glyph-name="ucircumflex" unicode="&#xfb;" horiz-adv-x="578" 
d="M53 201v243q0 8 5.5 13t12.5 5h126q7 0 12.5 -5t5.5 -13v-238q0 -29 10 -49q18 -35 64 -35t64 35q10 20 10 49v238q0 8 5.5 13t12.5 5h126q7 0 12.5 -5t5.5 -13v-243q0 -87 -44 -139q-60 -72 -192 -72t-192 72q-44 52 -44 139zM261 765h56q13 0 24 -13l138 -158
q8 -10 5.5 -18t-13.5 -8h-102q-18 0 -32 17l-48 56l-48 -56q-14 -17 -32 -17h-102q-11 0 -13.5 8t5.5 18l138 158q11 13 24 13z" />
    <glyph glyph-name="udieresis" unicode="&#xfc;" horiz-adv-x="578" 
d="M53 201v243q0 8 5.5 13t12.5 5h126q7 0 12.5 -5t5.5 -13v-238q0 -29 10 -49q18 -35 64 -35t64 35q10 20 10 49v238q0 8 5.5 13t12.5 5h126q7 0 12.5 -5t5.5 -13v-243q0 -87 -44 -139q-60 -72 -192 -72t-192 72q-44 52 -44 139zM162 565q-38 0 -65 27.5t-27 65.5t27 65
t65 27q39 0 66 -27t27 -65t-27 -65.5t-66 -27.5zM416 565q-38 0 -65 27.5t-27 65.5t27 65t65 27t65 -27t27 -65t-27 -65.5t-65 -27.5z" />
    <glyph glyph-name="yacute" unicode="&#xfd;" horiz-adv-x="565" 
d="M560 437l-170 -463q-35 -94 -95 -147q-86 -74 -223 -65q-14 0 -14 14v125q0 13 15 13q3 0 14.5 -1t21.5 -1q41 0 66 14q25 15 41 40l-211 471q-4 7 -1 16t15 9h152q23 0 30 -20l98 -274l77 274q5 20 30 20h140q22 0 14 -25zM273 765h110q17 0 17 -15q0 -4 -4 -12
l-95 -152q-11 -18 -27 -18h-84q-16 0 -16 15q0 5 6 19l68 145q9 18 25 18z" />
    <glyph glyph-name="thorn" unicode="&#xfe;" horiz-adv-x="561" 
d="M61 663q0 7 5.5 12.5t12.5 5.5h126q7 0 12.5 -5.5t5.5 -12.5v-194q9 1 30 1q141 0 213 -75q61 -63 61 -166q0 -100 -53 -161q-68 -78 -199 -78q-36 0 -52 2v-210q0 -8 -5.5 -13t-12.5 -5h-126q-7 0 -12.5 5t-5.5 13v881zM270 339q-26 0 -47 -3v-211q13 -3 35 -3
q51 0 77 21q31 25 31 86q0 49 -23 78q-26 32 -73 32z" />
    <glyph glyph-name="ydieresis" unicode="&#xff;" horiz-adv-x="565" 
d="M560 437l-170 -463q-35 -94 -95 -147q-86 -74 -223 -65q-14 0 -14 14v125q0 13 15 13q3 0 14.5 -1t21.5 -1q41 0 66 14q25 15 41 40l-211 471q-4 7 -1 16t15 9h152q23 0 30 -20l98 -274l77 274q5 20 30 20h140q22 0 14 -25zM155 565q-38 0 -65 27.5t-27 65.5t27 65t65 27
q39 0 66 -27t27 -65t-27 -65.5t-66 -27.5zM409 565q-38 0 -65 27.5t-27 65.5t27 65t65 27t65 -27t27 -65t-27 -65.5t-65 -27.5z" />
    <glyph glyph-name="Amacron" unicode="&#x100;" horiz-adv-x="695" 
d="M347 526q-45 0 -73 -25q-35 -33 -35 -98v-53h217v53q0 65 -35 98q-28 25 -74 25zM632 411v-393q0 -8 -5 -13t-13 -5h-140q-8 0 -13 5t-5 13v176h-217v-176q0 -8 -5.5 -13t-12.5 -5h-140q-7 0 -12.5 5t-5.5 13v393q0 65 27.5 125t80.5 100q72 54 176 54q105 0 177 -54
q53 -40 80.5 -100t27.5 -125zM225 931h244q7 0 12.5 -5.5t5.5 -12.5v-95q0 -8 -5.5 -13t-12.5 -5h-244q-7 0 -12.5 5t-5.5 13v95q0 7 5.5 12.5t12.5 5.5z" />
    <glyph glyph-name="amacron" unicode="&#x101;" horiz-adv-x="493" 
d="M124 708h244q8 0 13 -5t5 -13v-95q0 -7 -5 -12.5t-13 -5.5h-244q-8 0 -13 5.5t-5 12.5v95q0 8 5 13t13 5zM227 349q-52 0 -118 -36q-19 -10 -26 6l-35 77q-7 14 7 23q82 51 193 51q102 0 151 -53q41 -44 41 -121v-278q0 -8 -5 -13t-13 -5h-109q-7 0 -12.5 5t-5.5 13v4h-4
q-48 -32 -115 -32q-63 0 -104 39q-42 40 -42 106q0 77 79 115q58 27 169 38v7q0 26 -9 38q-11 16 -42 16zM229 104q26 0 49 15v66q-34 0 -58 -8q-36 -11 -36 -37q0 -18 12 -27t33 -9z" />
    <glyph glyph-name="Abreve" unicode="&#x102;" horiz-adv-x="695" 
d="M347 526q-45 0 -73 -25q-35 -33 -35 -98v-53h217v53q0 65 -35 98q-28 25 -74 25zM632 411v-393q0 -8 -5 -13t-13 -5h-140q-8 0 -13 5t-5 13v176h-217v-176q0 -8 -5.5 -13t-12.5 -5h-140q-7 0 -12.5 5t-5.5 13v393q0 65 27.5 125t80.5 100q72 54 176 54q105 0 177 -54
q53 -40 80.5 -100t27.5 -125zM347 887q53 0 63 51q3 18 20 18h58q21 0 21 -19q0 -68 -42.5 -116t-119.5 -48t-119.5 48t-42.5 116q0 19 21 19h58q17 0 20 -18q10 -51 63 -51z" />
    <glyph glyph-name="abreve" unicode="&#x103;" horiz-adv-x="493" 
d="M246 678q53 0 63 51q3 18 20 18h58q21 0 21 -19q0 -68 -42.5 -116t-119.5 -48t-119.5 48t-42.5 116q0 19 21 19h58q17 0 20 -18q10 -51 63 -51zM227 349q-52 0 -118 -36q-19 -10 -26 6l-35 77q-7 14 7 23q82 51 193 51q102 0 151 -53q41 -44 41 -121v-278q0 -8 -5 -13
t-13 -5h-109q-7 0 -12.5 5t-5.5 13v4h-4q-48 -32 -115 -32q-63 0 -104 39q-42 40 -42 106q0 77 79 115q58 27 169 38v7q0 26 -9 38q-11 16 -42 16zM229 104q26 0 49 15v66q-34 0 -58 -8q-36 -11 -36 -37q0 -18 12 -27t33 -9z" />
    <glyph glyph-name="Aogonek" unicode="&#x104;" horiz-adv-x="695" 
d="M632 411v-393q0 -8 -5 -13t-13 -5h-70q-54 -41 -54 -76q0 -32 39 -32q16 0 31.5 4t21.5 4q11 0 11 -12v-65q0 -12 -10 -17q-39 -18 -88 -18t-82 21t-33 69q0 69 80 128q-4 4 -4 12v176h-217v-176q0 -8 -5.5 -13t-12.5 -5h-140q-7 0 -12.5 5t-5.5 13v393q0 65 27.5 125
t80.5 100q72 54 176 54q105 0 177 -54q53 -40 80.5 -100t27.5 -125zM347 526q-45 0 -73 -25q-35 -33 -35 -98v-53h217v53q0 65 -35 98q-28 25 -74 25z" />
    <glyph glyph-name="aogonek" unicode="&#x105;" horiz-adv-x="493" 
d="M358 -113q16 0 31.5 4t21.5 4q11 0 11 -12v-65q0 -12 -10 -17q-39 -18 -88 -18t-82 21t-33 69q0 38 26 74t63 60q-3 4 -3 11v4h-4q-48 -32 -115 -32q-63 0 -104 39q-42 40 -42 106q0 77 79 115q58 27 169 38v7q0 26 -9 38q-11 16 -42 16q-52 0 -118 -36q-19 -10 -26 6
l-35 77q-7 14 7 23q82 51 193 51q102 0 151 -53q41 -44 41 -121v-278q0 -8 -5 -13t-13 -5h-42q-61 -42 -61 -81q0 -32 39 -32zM229 104q26 0 49 15v66q-34 0 -58 -8q-36 -11 -36 -37q0 -18 12 -27t33 -9z" />
    <glyph glyph-name="Cacute" unicode="&#x106;" horiz-adv-x="652" 
d="M352 969h110q17 0 17 -15q0 -4 -4 -12l-95 -152q-11 -18 -27 -18h-84q-16 0 -16 15q0 5 6 19l68 145q9 18 25 18zM402 -10q-171 0 -268 94t-97 257q0 150 106.5 249.5t263.5 99.5q114 0 204 -44q15 -8 7 -23l-57 -119q-7 -12 -22 -7q-73 34 -137 34q-75 0 -128 -54
t-53 -136q0 -83 51.5 -137t130.5 -54q73 0 143 35q14 7 21 -6l57 -121q6 -15 -8 -22q-97 -46 -214 -46z" />
    <glyph glyph-name="cacute" unicode="&#x107;" horiz-adv-x="484" 
d="M285 765h110q17 0 17 -15q0 -4 -4 -12l-95 -152q-11 -18 -27 -18h-84q-16 0 -16 15q0 5 6 19l68 145q9 18 25 18zM300 124q44 0 91 27q19 11 26 -5l46 -86q6 -13 -7 -23q-64 -47 -161 -47q-132 0 -202 76q-59 64 -59 165q0 86 49 146q74 93 216 93q89 0 155 -48
q13 -10 7 -23l-48 -89q-7 -16 -26 -5q-47 29 -87 29q-45 0 -73 -28q-28 -30 -28 -75q0 -48 26 -77q27 -30 75 -30z" />
    <glyph glyph-name="Ccaron" unicode="&#x10c;" horiz-adv-x="652" 
d="M402 -10q-171 0 -268 94t-97 257q0 150 106.5 249.5t263.5 99.5q114 0 204 -44q15 -8 7 -23l-57 -119q-7 -12 -22 -7q-73 34 -137 34q-75 0 -128 -54t-53 -136q0 -83 51.5 -137t130.5 -54q73 0 143 35q14 7 21 -6l57 -121q6 -15 -8 -22q-97 -46 -214 -46zM409 772h-56
q-13 0 -24 13l-138 158q-8 9 -5.5 17.5t13.5 8.5h102q18 0 32 -17l48 -56l48 56q14 17 32 17h102q11 0 13.5 -8.5t-5.5 -17.5l-138 -158q-11 -13 -24 -13z" />
    <glyph glyph-name="ccaron" unicode="&#x10d;" horiz-adv-x="484" 
d="M300 124q44 0 91 27q19 11 26 -5l46 -86q6 -13 -7 -23q-64 -47 -161 -47q-132 0 -202 76q-59 64 -59 165q0 86 49 146q74 93 216 93q89 0 155 -48q13 -10 7 -23l-48 -89q-7 -16 -26 -5q-47 29 -87 29q-45 0 -73 -28q-28 -30 -28 -75q0 -48 26 -77q27 -30 75 -30zM298 568
h-56q-13 0 -24 13l-138 158q-8 9 -5.5 17.5t13.5 8.5h102q18 0 32 -17l48 -56l48 56q14 17 32 17h102q11 0 13.5 -8.5t-5.5 -17.5l-138 -158q-11 -13 -24 -13z" />
    <glyph glyph-name="Dcaron" unicode="&#x10e;" horiz-adv-x="744" 
d="M707 341q0 -206 -152 -292q-87 -49 -224 -49h-249q-8 0 -13 5t-5 13v645q0 7 5 12.5t13 5.5h262q86 0 154 -21.5t125 -80.5q84 -87 84 -238zM240 533v-385h79q72 0 117 22q91 43 91 171q0 92 -47 139q-52 53 -161 53h-79zM396 772h-56q-13 0 -24 13l-138 158
q-8 9 -5.5 17.5t13.5 8.5h102q18 0 32 -17l48 -56l48 56q14 17 32 17h102q11 0 13.5 -8.5t-5.5 -17.5l-138 -158q-11 -13 -24 -13z" />
    <glyph glyph-name="dcaron" unicode="&#x10f;" horiz-adv-x="812" 
d="M325 135h12v195q-14 2 -42 2q-48 0 -74 -34q-21 -27 -21 -68q0 -51 34 -75q29 -20 91 -20zM481 0h-174q-124 0 -196 56q-77 61 -77 171q0 100 53 164q66 80 198 80q31 0 52 -4v196q0 7 5.5 12.5t12.5 5.5h126q7 0 12.5 -5.5t5.5 -12.5v-645q0 -8 -5.5 -13t-12.5 -5z
M802 558q1 -67 -49.5 -128t-118.5 -80q-18 -4 -26 7l-16 25q-10 15 5 25q46 31 57 50q7 13 7 25q0 15 -11.5 26.5t-25.5 18.5t-25.5 25.5t-11.5 46.5q0 41 27 66.5t72 25.5q56 0 85 -35t31 -98z" />
    <glyph glyph-name="Dcroat" unicode="&#x110;" horiz-adv-x="757" 
d="M720 341q0 -206 -151 -292q-87 -49 -225 -49h-249q-7 0 -12.5 5t-5.5 13v247h-59q-8 0 -13 5.5t-5 12.5v116q0 7 5 12.5t13 5.5h59v246q0 7 5.5 12.5t12.5 5.5h262q86 0 154 -21.5t125 -80.5q84 -87 84 -238zM253 533v-116h98q7 0 12.5 -5.5t5.5 -12.5v-116
q0 -7 -5.5 -12.5t-12.5 -5.5h-98v-117h79q73 0 117 22q91 42 91 171q0 92 -47 139q-52 53 -161 53h-79z" />
    <glyph glyph-name="dcroat" unicode="&#x111;" horiz-adv-x="560" 
d="M266 606h71v57q0 7 5.5 12.5t12.5 5.5h126q7 0 12.5 -5.5t5.5 -12.5v-57h67q8 0 13 -5t5 -13v-76q0 -8 -5 -13t-13 -5h-67v-476q0 -8 -5.5 -13t-12.5 -5h-174q-124 0 -196 56q-77 61 -77 171q0 100 53 164q66 80 198 80q31 0 52 -4v27h-71q-8 0 -13 5t-5 13v76q0 8 5 13
t13 5zM325 135h12v195q-14 2 -42 2q-48 0 -74 -34q-21 -27 -21 -68q0 -51 34 -75q29 -20 91 -20z" />
    <glyph glyph-name="Emacron" unicode="&#x112;" horiz-adv-x="629" 
d="M82 681h490q8 0 13 -5.5t5 -12.5v-120q0 -7 -5 -12.5t-13 -5.5h-332v-104h279q7 0 12.5 -5.5t5.5 -12.5v-120q0 -7 -5.5 -12.5t-12.5 -5.5h-279v-109h332q8 0 13 -5t5 -13v-120q0 -8 -5 -13t-13 -5h-490q-8 0 -13 5t-5 13v645q0 7 5 12.5t13 5.5zM191 931h244
q7 0 12.5 -5.5t5.5 -12.5v-95q0 -8 -5.5 -13t-12.5 -5h-244q-7 0 -12.5 5t-5.5 13v95q0 7 5.5 12.5t12.5 5.5z" />
    <glyph glyph-name="emacron" unicode="&#x113;" horiz-adv-x="525" 
d="M204 285h136q-3 26 -16 41q-17 20 -50 20q-34 0 -51 -18q-14 -16 -19 -43zM301 115q52 0 99 28q17 10 26 -5l42 -78q6 -13 -7 -23q-28 -21 -76 -34t-97 -13q-116 0 -183 64q-71 66 -71 182q0 102 70 172q64 62 169 62q125 0 184 -83q48 -70 37 -181q-2 -18 -18 -18h-272
q7 -32 27 -50q25 -23 70 -23zM140 708h244q8 0 13 -5t5 -13v-95q0 -7 -5 -12.5t-13 -5.5h-244q-8 0 -13 5.5t-5 12.5v95q0 8 5 13t13 5z" />
    <glyph glyph-name="Edotaccent" unicode="&#x116;" horiz-adv-x="629" 
d="M82 681h490q8 0 13 -5.5t5 -12.5v-120q0 -7 -5 -12.5t-13 -5.5h-332v-104h279q7 0 12.5 -5.5t5.5 -12.5v-120q0 -7 -5.5 -12.5t-12.5 -5.5h-279v-109h332q8 0 13 -5t5 -13v-120q0 -8 -5 -13t-13 -5h-490q-8 0 -13 5t-5 13v645q0 7 5 12.5t13 5.5zM334 771q-38 0 -65 27
t-27 65t27 65t65 27t65 -27t27 -65t-27 -65t-65 -27z" />
    <glyph glyph-name="edotaccent" unicode="&#x117;" horiz-adv-x="525" 
d="M204 285h136q-3 26 -16 41q-17 20 -50 20q-34 0 -51 -18q-14 -16 -19 -43zM301 115q52 0 99 28q17 10 26 -5l42 -78q6 -13 -7 -23q-28 -21 -76 -34t-97 -13q-116 0 -183 64q-71 66 -71 182q0 102 70 172q64 62 169 62q125 0 184 -83q48 -70 37 -181q-2 -18 -18 -18h-272
q7 -32 27 -50q25 -23 70 -23zM273 566q-38 0 -65 27t-27 65t27 65t65 27t65 -27t27 -65t-27 -65t-65 -27z" />
    <glyph glyph-name="Eogonek" unicode="&#x118;" horiz-adv-x="629" 
d="M526 -108q16 0 31.5 4t21.5 4q11 0 11 -12v-65q0 -12 -10 -17q-39 -18 -88 -18t-82 21t-33 69q0 67 72 122h-367q-8 0 -13 5t-5 13v645q0 7 5 12.5t13 5.5h490q8 0 13 -5.5t5 -12.5v-120q0 -7 -5 -12.5t-13 -5.5h-332v-104h279q7 0 12.5 -5.5t5.5 -12.5v-120
q0 -7 -5.5 -12.5t-12.5 -5.5h-279v-109h332q8 0 13 -5t5 -13v-120q0 -8 -5 -13t-13 -5h-31q-54 -41 -54 -76q0 -32 39 -32z" />
    <glyph glyph-name="eogonek" unicode="&#x119;" horiz-adv-x="525" 
d="M405 -96q16 0 31.5 4t21.5 4q11 0 11 -12v-65q0 -12 -10 -17q-39 -18 -88 -18t-82 21t-33 69q0 51 48 101q-5 -1 -16 -1q-116 0 -183 64q-71 66 -71 182q0 102 70 172q64 62 169 62q125 0 184 -83q48 -70 37 -181q-2 -18 -18 -18h-272q7 -32 27 -50q25 -23 70 -23
q52 0 99 28q17 10 26 -5l42 -78q6 -13 -7 -23q-14 -11 -31 -18q-64 -44 -64 -83q0 -32 39 -32zM204 285h136q-3 26 -16 41q-17 20 -50 20q-34 0 -51 -18q-14 -16 -19 -43z" />
    <glyph glyph-name="Ecaron" unicode="&#x11a;" horiz-adv-x="629" 
d="M82 681h490q8 0 13 -5.5t5 -12.5v-120q0 -7 -5 -12.5t-13 -5.5h-332v-104h279q7 0 12.5 -5.5t5.5 -12.5v-120q0 -7 -5.5 -12.5t-12.5 -5.5h-279v-109h332q8 0 13 -5t5 -13v-120q0 -8 -5 -13t-13 -5h-490q-8 0 -13 5t-5 13v645q0 7 5 12.5t13 5.5zM361 772h-56
q-13 0 -24 13l-138 158q-8 9 -5.5 17.5t13.5 8.5h102q18 0 32 -17l48 -56l48 56q14 17 32 17h102q11 0 13.5 -8.5t-5.5 -17.5l-138 -158q-11 -13 -24 -13z" />
    <glyph glyph-name="ecaron" unicode="&#x11b;" horiz-adv-x="525" 
d="M204 285h136q-3 26 -16 41q-17 20 -50 20q-34 0 -51 -18q-14 -16 -19 -43zM301 115q52 0 99 28q17 10 26 -5l42 -78q6 -13 -7 -23q-28 -21 -76 -34t-97 -13q-116 0 -183 64q-71 66 -71 182q0 102 70 172q64 62 169 62q125 0 184 -83q48 -70 37 -181q-2 -18 -18 -18h-272
q7 -32 27 -50q25 -23 70 -23zM292 568h-56q-13 0 -24 13l-138 158q-8 9 -5.5 17.5t13.5 8.5h102q18 0 32 -17l48 -56l48 56q14 17 32 17h102q11 0 13.5 -8.5t-5.5 -17.5l-138 -158q-11 -13 -24 -13z" />
    <glyph glyph-name="Gbreve" unicode="&#x11e;" horiz-adv-x="751" 
d="M407 690q114 0 204 -44q15 -8 7 -23l-57 -119q-7 -13 -22 -7q-88 34 -137 34q-77 0 -129.5 -54.5t-52.5 -135.5q0 -84 50 -139t132 -55q68 0 122 26v54h-104q-8 0 -13 5.5t-5 12.5v120q0 7 5 12.5t13 5.5h253q7 0 12.5 -5.5t5.5 -12.5v-347q0 -8 -5.5 -13t-12.5 -5h-131
q-16 0 -18 16q-58 -26 -141 -26q-153 0 -249.5 92.5t-96.5 258.5q0 149 107.5 249t262.5 100zM375 887q53 0 63 51q3 18 20 18h58q21 0 21 -19q0 -68 -42.5 -116t-119.5 -48t-119.5 48t-42.5 116q0 19 21 19h58q17 0 20 -18q10 -51 63 -51z" />
    <glyph glyph-name="gbreve" unicode="&#x11f;" horiz-adv-x="581" 
d="M291 678q53 0 63 51q3 18 20 18h58q21 0 21 -19q0 -68 -42.5 -116t-119.5 -48t-119.5 48t-42.5 116q0 19 21 19h58q17 0 20 -18q10 -51 63 -51zM279 126q41 0 79 19v163q-43 29 -75 29q-36 0 -57 -21q-27 -28 -27 -84q0 -60 26 -86q20 -20 54 -20zM276 -110q40 0 60 19
q22 22 22 61v39q-48 -17 -98 -17q-94 0 -154 57q-72 67 -72 183q0 108 65 176q60 62 160 62q52 0 101 -32h3v6q0 8 5.5 13t12.5 5h121q8 0 13 -5t5 -13v-452q0 -126 -74 -185q-61 -48 -173 -48q-113 0 -186 52q-13 10 -7 23l48 91q8 18 26 5q58 -40 122 -40z" />
    <glyph glyph-name="Gcommaaccent" unicode="&#x122;" horiz-adv-x="751" 
d="M407 690q114 0 204 -44q15 -8 7 -23l-57 -119q-7 -13 -22 -7q-88 34 -137 34q-77 0 -129.5 -54.5t-52.5 -135.5q0 -84 50 -139t132 -55q68 0 122 26v54h-104q-8 0 -13 5.5t-5 12.5v120q0 7 5 12.5t13 5.5h253q7 0 12.5 -5.5t5.5 -12.5v-347q0 -8 -5.5 -13t-12.5 -5h-131
q-16 0 -18 16q-58 -26 -141 -26q-153 0 -249.5 92.5t-96.5 258.5q0 149 107.5 249t262.5 100zM508 -190q1 -67 -49.5 -128t-118.5 -80q-18 -4 -26 7l-16 25q-10 15 5 25q46 31 57 50q7 13 7 25q0 15 -11.5 26.5t-25.5 18.5t-25.5 25.5t-11.5 46.5q0 41 27 66.5t72 25.5
q56 0 85 -35t31 -98z" />
    <glyph glyph-name="gcommaaccent" unicode="&#x123;" horiz-adv-x="581" 
d="M182 691q-2 67 49 128t119 80q18 5 25 -8l17 -25q9 -15 -5 -24q-46 -31 -57 -50q-7 -13 -7 -25q0 -15 11.5 -26.5t25.5 -18.5t25.5 -25.5t11.5 -46.5q0 -41 -27.5 -66.5t-71.5 -25.5q-56 0 -85 35t-31 98zM279 126q41 0 79 19v163q-43 29 -75 29q-36 0 -57 -21
q-27 -28 -27 -84q0 -60 26 -86q20 -20 54 -20zM276 -110q40 0 60 19q22 22 22 61v39q-48 -17 -98 -17q-94 0 -154 57q-72 67 -72 183q0 108 65 176q60 62 160 62q52 0 101 -32h3v6q0 8 5.5 13t12.5 5h121q8 0 13 -5t5 -13v-452q0 -126 -74 -185q-61 -48 -173 -48
q-113 0 -186 52q-13 10 -7 23l48 91q8 18 26 5q58 -40 122 -40z" />
    <glyph glyph-name="Imacron" unicode="&#x12a;" horiz-adv-x="304" 
d="M82 681h140q8 0 13 -5.5t5 -12.5v-645q0 -8 -5 -13t-13 -5h-140q-8 0 -13 5t-5 13v645q0 7 5 12.5t13 5.5zM30 931h244q8 0 13 -5.5t5 -12.5v-95q0 -8 -5 -13t-13 -5h-244q-8 0 -13 5t-5 13v95q0 7 5 12.5t13 5.5z" />
    <glyph glyph-name="imacron" unicode="&#x12b;" horiz-adv-x="284" 
d="M20 708h244q8 0 13 -5t5 -13v-95q0 -7 -5 -12.5t-13 -5.5h-244q-8 0 -13 5.5t-5 12.5v95q0 8 5 13t13 5zM61 444q0 8 5.5 13t12.5 5h126q7 0 12.5 -5t5.5 -13v-426q0 -8 -5.5 -13t-12.5 -5h-126q-7 0 -12.5 5t-5.5 13v426z" />
    <glyph glyph-name="Iogonek" unicode="&#x12e;" horiz-adv-x="304" 
d="M82 681h140q8 0 13 -5.5t5 -12.5v-645q0 -8 -5 -13t-13 -5h-80q-54 -41 -54 -76q0 -32 39 -32q16 0 31.5 4t21.5 4q11 0 11 -12v-65q0 -12 -10 -17q-39 -18 -88 -18t-82 21t-33 69q0 37 25.5 73t61.5 60q-1 2 -1 7v645q0 7 5 12.5t13 5.5z" />
    <glyph glyph-name="iogonek" unicode="&#x12f;" horiz-adv-x="284" 
d="M61 444q0 8 5.5 13t12.5 5h126q7 0 12.5 -5t5.5 -13v-426q0 -8 -5.5 -13t-12.5 -5h-49q-61 -42 -61 -81q0 -32 39 -32q16 0 31.5 4t21.5 4q11 0 11 -12v-65q0 -12 -10 -17q-39 -18 -88 -18t-82 21t-33 69q0 36 24 71t59 59q-7 6 -7 15v426zM142 565q-38 0 -65 27t-27 65
t27 65t65 27t65 -27t27 -65t-27 -65t-65 -27z" />
    <glyph glyph-name="Idotaccent" unicode="&#x130;" horiz-adv-x="304" 
d="M82 681h140q8 0 13 -5.5t5 -12.5v-645q0 -8 -5 -13t-13 -5h-140q-8 0 -13 5t-5 13v645q0 7 5 12.5t13 5.5zM152 771q-38 0 -65 27t-27 65t27 65t65 27t65 -27t27 -65t-27 -65t-65 -27z" />
    <glyph glyph-name="dotlessi" unicode="&#x131;" horiz-adv-x="284" 
d="M61 444q0 8 5.5 13t12.5 5h126q7 0 12.5 -5t5.5 -13v-426q0 -8 -5.5 -13t-12.5 -5h-126q-7 0 -12.5 5t-5.5 13v426z" />
    <glyph glyph-name="Kcommaaccent" unicode="&#x136;" horiz-adv-x="676" 
d="M455 18l-170 240l-45 -48v-192q0 -8 -5 -13t-13 -5h-140q-8 0 -13 5t-5 13v645q0 7 5 12.5t13 5.5h140q8 0 13 -5.5t5 -12.5v-228l196 228q15 18 37 18h178q12 0 15 -8.5t-6 -18.5l-251 -266l254 -357q5 -7 7 -14t-2 -12t-14 -5h-165q-22 0 -34 18zM444 -190
q1 -67 -49.5 -128t-118.5 -80q-18 -4 -26 7l-16 25q-10 15 5 25q46 31 57 50q7 13 7 25q0 15 -11.5 26.5t-25.5 18.5t-25.5 25.5t-11.5 46.5q0 41 27 66.5t72 25.5q56 0 85 -35t31 -98z" />
    <glyph glyph-name="kcommaaccent" unicode="&#x137;" horiz-adv-x="567" 
d="M396 -190q1 -67 -49.5 -128t-118.5 -80q-18 -4 -26 7l-16 25q-10 15 5 25q46 31 57 50q7 13 7 25q0 15 -11.5 26.5t-25.5 18.5t-25.5 25.5t-11.5 46.5q0 41 27 66.5t72 25.5q56 0 85 -35t31 -98zM366 18l-99 150l-44 -41v-109q0 -8 -5.5 -13t-12.5 -5h-126q-7 0 -12.5 5
t-5.5 13v645q0 7 5.5 12.5t12.5 5.5h126q7 0 12.5 -5.5t5.5 -12.5v-361l133 144q15 16 35 16h148q15 0 18.5 -10.5t-6.5 -19.5l-172 -160l177 -244q8 -9 4.5 -18.5t-18.5 -9.5h-145q-20 0 -31 18z" />
    <glyph glyph-name="Lacute" unicode="&#x139;" horiz-adv-x="549" 
d="M163 969h110q17 0 17 -15q0 -4 -4 -12l-95 -152q-11 -18 -27 -18h-84q-16 0 -16 15q0 5 6 19l68 145q9 18 25 18zM84 681h140q8 0 13 -5.5t5 -12.5v-507h263q7 0 12.5 -5t5.5 -13v-120q0 -8 -5.5 -13t-12.5 -5h-421q-8 0 -13 5t-5 13v645q0 7 5 12.5t13 5.5z" />
    <glyph glyph-name="lacute" unicode="&#x13a;" horiz-adv-x="284" 
d="M61 663q0 7 5.5 12.5t12.5 5.5h126q7 0 12.5 -5.5t5.5 -12.5v-645q0 -8 -5.5 -13t-12.5 -5h-126q-7 0 -12.5 5t-5.5 13v645zM136 969h110q17 0 17 -15q0 -4 -4 -12l-95 -152q-11 -18 -27 -18h-84q-16 0 -16 15q0 5 6 19l68 145q9 18 25 18z" />
    <glyph glyph-name="Lcommaaccent" unicode="&#x13b;" horiz-adv-x="547" 
d="M82 681h140q8 0 13 -5.5t5 -12.5v-507h263q7 0 12.5 -5t5.5 -13v-120q0 -8 -5.5 -13t-12.5 -5h-421q-8 0 -13 5t-5 13v645q0 7 5 12.5t13 5.5zM402 -190q1 -67 -49.5 -128t-118.5 -80q-18 -4 -26 7l-16 25q-10 15 5 25q46 31 57 50q7 13 7 25q0 15 -11.5 26.5t-25.5 18.5
t-25.5 25.5t-11.5 46.5q0 41 27 66.5t72 25.5q56 0 85 -35t31 -98z" />
    <glyph glyph-name="lcommaaccent" unicode="&#x13c;" horiz-adv-x="284" 
d="M61 663q0 7 5.5 12.5t12.5 5.5h126q7 0 12.5 -5.5t5.5 -12.5v-645q0 -8 -5.5 -13t-12.5 -5h-126q-7 0 -12.5 5t-5.5 13v645zM251 -190q1 -67 -49.5 -128t-118.5 -80q-18 -4 -26 7l-16 25q-10 15 5 25q46 31 57 50q7 13 7 25q0 15 -11.5 26.5t-25.5 18.5t-25.5 25.5
t-11.5 46.5q0 41 27 66.5t72 25.5q56 0 85 -35t31 -98z" />
    <glyph glyph-name="Lcaron" unicode="&#x13d;" horiz-adv-x="552" 
d="M82 681h140q8 0 13 -5.5t5 -12.5v-507h263q7 0 12.5 -5t5.5 -13v-120q0 -8 -5.5 -13t-12.5 -5h-421q-8 0 -13 5t-5 13v645q0 7 5 12.5t13 5.5zM525 558q1 -67 -49.5 -128t-118.5 -80q-18 -4 -26 7l-16 25q-10 15 5 25q46 31 57 50q7 13 7 25q0 15 -11.5 26.5t-25.5 18.5
t-25.5 25.5t-11.5 46.5q0 41 27 66.5t72 25.5q56 0 85 -35t31 -98z" />
    <glyph glyph-name="lcaron" unicode="&#x13e;" horiz-adv-x="504" 
d="M61 663q0 7 5.5 12.5t12.5 5.5h126q7 0 12.5 -5.5t5.5 -12.5v-645q0 -8 -5.5 -13t-12.5 -5h-126q-7 0 -12.5 5t-5.5 13v645zM494 557q1 -67 -49.5 -128t-118.5 -80q-18 -4 -26 7l-16 25q-10 15 5 25q46 31 57 50q7 13 7 25q0 15 -11.5 26.5t-25.5 18.5t-25.5 25.5
t-11.5 46.5q0 41 27 66.5t72 25.5q56 0 85 -35t31 -98z" />
    <glyph glyph-name="Lslash" unicode="&#x141;" horiz-adv-x="560" 
d="M95 681h140q7 0 12.5 -5.5t5.5 -12.5v-184l55 35q14 9 25 -5l56 -87q4 -6 2.5 -13.5t-7.5 -11.5l-131 -84v-157h263q8 0 13 -5t5 -13v-120q0 -8 -5 -13t-13 -5h-421q-7 0 -12.5 5t-5.5 13v182l-34 -21q-14 -9 -25 5l-56 87q-11 14 5 25l110 70v297q0 7 5.5 12.5t12.5 5.5
z" />
    <glyph glyph-name="lslash" unicode="&#x142;" horiz-adv-x="284" 
d="M363 391l-140 -90v-283q0 -8 -5.5 -13t-12.5 -5h-126q-7 0 -12.5 5t-5.5 13v180l-39 -25q-16 -11 -25 5l-56 87q-11 14 5 25l115 73v300q0 7 5.5 12.5t12.5 5.5h126q7 0 12.5 -5.5t5.5 -12.5v-196l64 41q14 9 25 -5l56 -87q9 -16 -5 -25z" />
    <glyph glyph-name="Nacute" unicode="&#x143;" horiz-adv-x="744" 
d="M365 969h110q17 0 17 -15q0 -4 -4 -12l-95 -152q-11 -18 -27 -18h-84q-16 0 -16 15q0 5 6 19l68 145q9 18 25 18zM512 294v369q0 7 5 12.5t13 5.5h132q8 0 13 -5.5t5 -12.5v-645q0 -8 -5 -13t-13 -5h-122q-20 0 -32 18l-276 369v-369q0 -8 -5 -13t-13 -5h-132q-8 0 -13 5
t-5 13v645q0 7 5 12.5t13 5.5h123q18 0 32 -18z" />
    <glyph glyph-name="nacute" unicode="&#x144;" horiz-adv-x="587" 
d="M310 337q-46 0 -68 -37q-19 -33 -19 -88v-194q0 -8 -5.5 -13t-12.5 -5h-126q-7 0 -12.5 5t-5.5 13v426q0 8 5.5 13t12.5 5h121q8 0 13 -5t5 -13v-21h3q20 18 43 29q38 18 82 18q86 0 136 -46q52 -49 52 -141v-265q0 -8 -5 -13t-13 -5h-126q-8 0 -13 5t-5 13v229
q0 52 -15 71q-16 19 -47 19zM292 765h110q17 0 17 -15q0 -4 -4 -12l-95 -152q-11 -18 -27 -18h-84q-16 0 -16 15q0 5 6 19l68 145q9 18 25 18z" />
    <glyph glyph-name="Ncommaaccent" unicode="&#x145;" horiz-adv-x="744" 
d="M512 294v369q0 7 5 12.5t13 5.5h132q8 0 13 -5.5t5 -12.5v-645q0 -8 -5 -13t-13 -5h-122q-20 0 -32 18l-276 369v-369q0 -8 -5 -13t-13 -5h-132q-8 0 -13 5t-5 13v645q0 7 5 12.5t13 5.5h123q18 0 32 -18zM480 -190q1 -67 -49.5 -128t-118.5 -80q-18 -4 -26 7l-16 25
q-10 15 5 25q46 31 57 50q7 13 7 25q0 15 -11.5 26.5t-25.5 18.5t-25.5 25.5t-11.5 46.5q0 41 27 66.5t72 25.5q56 0 85 -35t31 -98z" />
    <glyph glyph-name="ncommaaccent" unicode="&#x146;" horiz-adv-x="587" 
d="M310 337q-46 0 -68 -37q-19 -33 -19 -88v-194q0 -8 -5.5 -13t-12.5 -5h-126q-7 0 -12.5 5t-5.5 13v426q0 8 5.5 13t12.5 5h121q8 0 13 -5t5 -13v-21h3q20 18 43 29q38 18 82 18q86 0 136 -46q52 -49 52 -141v-265q0 -8 -5 -13t-13 -5h-126q-8 0 -13 5t-5 13v229
q0 52 -15 71q-16 19 -47 19zM401 -190q1 -67 -49.5 -128t-118.5 -80q-18 -4 -26 7l-16 25q-10 15 5 25q46 31 57 50q7 13 7 25q0 15 -11.5 26.5t-25.5 18.5t-25.5 25.5t-11.5 46.5q0 41 27 66.5t72 25.5q56 0 85 -35t31 -98z" />
    <glyph glyph-name="Ncaron" unicode="&#x147;" horiz-adv-x="744" 
d="M512 294v369q0 7 5 12.5t13 5.5h132q8 0 13 -5.5t5 -12.5v-645q0 -8 -5 -13t-13 -5h-122q-20 0 -32 18l-276 369v-369q0 -8 -5 -13t-13 -5h-132q-8 0 -13 5t-5 13v645q0 7 5 12.5t13 5.5h123q18 0 32 -18zM400 772h-56q-13 0 -24 13l-138 158q-8 9 -5.5 17.5t13.5 8.5
h102q18 0 32 -17l48 -56l48 56q14 17 32 17h102q11 0 13.5 -8.5t-5.5 -17.5l-138 -158q-11 -13 -24 -13z" />
    <glyph glyph-name="ncaron" unicode="&#x148;" horiz-adv-x="587" 
d="M310 337q-46 0 -68 -37q-19 -33 -19 -88v-194q0 -8 -5.5 -13t-12.5 -5h-126q-7 0 -12.5 5t-5.5 13v426q0 8 5.5 13t12.5 5h121q8 0 13 -5t5 -13v-21h3q20 18 43 29q38 18 82 18q86 0 136 -46q52 -49 52 -141v-265q0 -8 -5 -13t-13 -5h-126q-8 0 -13 5t-5 13v229
q0 52 -15 71q-16 19 -47 19zM327 568h-56q-13 0 -24 13l-138 158q-8 9 -5.5 17.5t13.5 8.5h102q18 0 32 -17l48 -56l48 56q14 17 32 17h102q11 0 13.5 -8.5t-5.5 -17.5l-138 -158q-11 -13 -24 -13z" />
    <glyph glyph-name="Omacron" unicode="&#x14c;" horiz-adv-x="811" 
d="M774 339q0 -156 -107.5 -252.5t-260.5 -96.5t-261 97.5t-108 251.5q0 156 108 253.5t261 97.5q152 0 260 -98t108 -253zM587 339q0 81 -51 133.5t-130 52.5t-130.5 -52.5t-51.5 -133.5t51 -133t131 -52q79 0 130 52t51 133zM285 931h244q7 0 12.5 -5.5t5.5 -12.5v-95
q0 -8 -5.5 -13t-12.5 -5h-244q-7 0 -12.5 5t-5.5 13v95q0 7 5.5 12.5t12.5 5.5z" />
    <glyph glyph-name="omacron" unicode="&#x14d;" horiz-adv-x="572" 
d="M194 230q0 -50 29 -82q25 -27 63 -27t63 27q29 32 29 82t-29 82q-25 27 -63 27t-63 -27q-29 -32 -29 -82zM34 230q0 114 79 180q69 60 173 60t173 -60q79 -66 79 -180t-79 -180q-69 -60 -173 -60t-173 60q-79 66 -79 180zM164 708h244q8 0 13 -5t5 -13v-95q0 -7 -5 -12.5
t-13 -5.5h-244q-8 0 -13 5.5t-5 12.5v95q0 8 5 13t13 5z" />
    <glyph glyph-name="Ohungarumlaut" unicode="&#x150;" horiz-adv-x="811" 
d="M774 339q0 -156 -107.5 -252.5t-260.5 -96.5t-261 97.5t-108 251.5q0 156 108 253.5t261 97.5q152 0 260 -98t108 -253zM587 339q0 81 -51 133.5t-130 52.5t-130.5 -52.5t-51.5 -133.5t51 -133t131 -52q79 0 130 52t51 133zM515 969h109q16 0 16 -12q0 -7 -6 -15
l-118 -156q-11 -14 -24 -14h-88q-15 0 -15 12q0 6 5 14l92 153q10 18 29 18zM309 969h109q16 0 16 -12q0 -7 -6 -15l-118 -156q-11 -14 -24 -14h-88q-15 0 -15 12q0 6 5 14l92 153q10 18 29 18z" />
    <glyph glyph-name="ohungarumlaut" unicode="&#x151;" horiz-adv-x="572" 
d="M194 230q0 -50 29 -82q25 -27 63 -27t63 27q29 32 29 82t-29 82q-25 27 -63 27t-63 -27q-29 -32 -29 -82zM34 230q0 114 79 180q69 60 173 60t173 -60q79 -66 79 -180t-79 -180q-69 -60 -173 -60t-173 60q-79 66 -79 180zM403 764h109q16 0 16 -12q0 -7 -6 -15l-118 -156
q-11 -14 -24 -14h-88q-15 0 -15 12q0 6 5 14l92 153q10 18 29 18zM197 764h109q16 0 16 -12q0 -7 -6 -15l-118 -156q-11 -14 -24 -14h-88q-15 0 -15 12q0 6 5 14l92 153q10 18 29 18z" />
    <glyph glyph-name="OE" unicode="&#x152;" horiz-adv-x="1157" 
d="M610 681h490q8 0 13 -5.5t5 -12.5v-120q0 -7 -5 -12.5t-13 -5.5h-332v-104h279q7 0 12.5 -5.5t5.5 -12.5v-120q0 -7 -5.5 -12.5t-12.5 -5.5h-279v-109h332q8 0 13 -5t5 -13v-120q0 -8 -5 -13t-13 -5h-490q-8 0 -13 5t-5 13v16q-83 -44 -186 -44q-153 0 -261 97.5
t-108 251.5q0 156 108 253.5t261 97.5q102 0 186 -46v19q0 7 5 12.5t13 5.5zM587 339q0 81 -51 133.5t-130 52.5t-130.5 -52.5t-51.5 -133.5t51 -133t131 -52q79 0 130 52t51 133z" />
    <glyph glyph-name="oe" unicode="&#x153;" horiz-adv-x="869" 
d="M34 230q0 114 79 180q69 60 173 60q100 0 168 -56q64 56 163 56q125 0 184 -83q48 -70 37 -181q-2 -18 -18 -18h-272q7 -32 27 -50q25 -23 70 -23q52 0 99 28q17 10 26 -5l42 -78q6 -13 -7 -23q-28 -21 -76 -34t-97 -13q-111 0 -176 57q-69 -57 -170 -57q-104 0 -173 60
q-79 66 -79 180zM194 230q0 -50 29 -82q25 -27 63 -27t63 27q28 31 29 77v5v6v1q-3 44 -29 75q-25 27 -63 27t-63 -27q-29 -32 -29 -82zM548 285h136q-3 26 -16 41q-17 20 -50 20q-34 0 -51 -18q-14 -16 -19 -43z" />
    <glyph glyph-name="Racute" unicode="&#x154;" horiz-adv-x="678" 
d="M564 285q-21 -18 -42 -30l130 -224q7 -11 5.5 -21t-15.5 -10h-154q-24 0 -34 18l-107 204h-107v-204q0 -8 -5 -13t-13 -5h-140q-8 0 -13 5t-5 13v645q0 7 5 12.5t13 5.5h303q112 0 175 -49q79 -62 79 -179q0 -101 -75 -168zM373 532h-133v-162h118q49 0 71 15
q31 20 31 66q0 44 -28 64q-23 17 -59 17zM333 969h110q17 0 17 -15q0 -4 -4 -12l-95 -152q-11 -18 -27 -18h-84q-16 0 -16 15q0 5 6 19l68 145q9 18 25 18z" />
    <glyph glyph-name="racute" unicode="&#x155;" horiz-adv-x="453" 
d="M242 765h110q17 0 17 -15q0 -4 -4 -12l-95 -152q-11 -18 -27 -18h-84q-16 0 -16 15q0 5 6 19l68 145q9 18 25 18zM327 470q70 0 115 -39q13 -11 6 -24l-45 -95q-9 -15 -26 -5q-46 25 -81 25q-33 0 -51 -24q-22 -29 -22 -94v-196q0 -8 -5.5 -13t-12.5 -5h-126
q-7 0 -12.5 5t-5.5 13v426q0 8 5.5 13t12.5 5h121q8 0 13 -5t5 -13v-25h3q13 16 35 31q32 20 71 20z" />
    <glyph glyph-name="Rcommaaccent" unicode="&#x156;" horiz-adv-x="678" 
d="M564 285q-21 -18 -42 -30l130 -224q7 -11 5.5 -21t-15.5 -10h-154q-24 0 -34 18l-107 204h-107v-204q0 -8 -5 -13t-13 -5h-140q-8 0 -13 5t-5 13v645q0 7 5 12.5t13 5.5h303q112 0 175 -49q79 -62 79 -179q0 -101 -75 -168zM462 -190q1 -67 -49.5 -128t-118.5 -80
q-18 -4 -26 7l-16 25q-10 15 5 25q46 31 57 50q7 13 7 25q0 15 -11.5 26.5t-25.5 18.5t-25.5 25.5t-11.5 46.5q0 41 27 66.5t72 25.5q56 0 85 -35t31 -98zM373 532h-133v-162h118q49 0 71 15q31 20 31 66q0 44 -28 64q-23 17 -59 17z" />
    <glyph glyph-name="rcommaaccent" unicode="&#x157;" horiz-adv-x="453" 
d="M297 -190q1 -67 -49.5 -128t-118.5 -80q-18 -4 -26 7l-16 25q-10 15 5 25q46 31 57 50q7 13 7 25q0 15 -11.5 26.5t-25.5 18.5t-25.5 25.5t-11.5 46.5q0 41 27 66.5t72 25.5q56 0 85 -35t31 -98zM327 470q70 0 115 -39q13 -11 6 -24l-45 -95q-9 -15 -26 -5q-46 25 -81 25
q-33 0 -51 -24q-22 -29 -22 -94v-196q0 -8 -5.5 -13t-12.5 -5h-126q-7 0 -12.5 5t-5.5 13v426q0 8 5.5 13t12.5 5h121q8 0 13 -5t5 -13v-25h3q13 16 35 31q32 20 71 20z" />
    <glyph glyph-name="Rcaron" unicode="&#x158;" horiz-adv-x="678" 
d="M564 285q-21 -18 -42 -30l130 -224q7 -11 5.5 -21t-15.5 -10h-154q-24 0 -34 18l-107 204h-107v-204q0 -8 -5 -13t-13 -5h-140q-8 0 -13 5t-5 13v645q0 7 5 12.5t13 5.5h303q112 0 175 -49q79 -62 79 -179q0 -101 -75 -168zM364 772h-56q-13 0 -24 13l-138 158
q-8 9 -5.5 17.5t13.5 8.5h102q18 0 32 -17l48 -56l48 56q14 17 32 17h102q11 0 13.5 -8.5t-5.5 -17.5l-138 -158q-11 -13 -24 -13zM373 532h-133v-162h118q49 0 71 15q31 20 31 66q0 44 -28 64q-23 17 -59 17z" />
    <glyph glyph-name="rcaron" unicode="&#x159;" horiz-adv-x="453" 
d="M266 568h-56q-13 0 -24 13l-138 158q-8 9 -5.5 17.5t13.5 8.5h102q18 0 32 -17l48 -56l48 56q14 17 32 17h102q11 0 13.5 -8.5t-5.5 -17.5l-138 -158q-11 -13 -24 -13zM327 470q70 0 115 -39q13 -11 6 -24l-45 -95q-9 -15 -26 -5q-46 25 -81 25q-33 0 -51 -24
q-22 -29 -22 -94v-196q0 -8 -5.5 -13t-12.5 -5h-126q-7 0 -12.5 5t-5.5 13v426q0 8 5.5 13t12.5 5h121q8 0 13 -5t5 -13v-25h3q13 16 35 31q32 20 71 20z" />
    <glyph glyph-name="Sacute" unicode="&#x15a;" horiz-adv-x="590" 
d="M284 969h110q17 0 17 -15q0 -4 -4 -12l-95 -152q-11 -18 -27 -18h-84q-16 0 -16 15q0 5 6 19l68 145q9 18 25 18zM285 -10q-142 0 -250 63q-14 8 -7 23l57 119q7 16 22 7q97 -60 176 -60q42 0 62 15q20 14 20 39q0 24 -21.5 39t-62.5 28q-9 3 -40 12.5t-47.5 15t-41 17
t-42.5 24.5q-77 58 -77 158q0 95 77 149q70 51 191 51q124 0 228 -53q14 -8 7 -23l-57 -119q-8 -15 -22 -7q-92 50 -166 50q-30 0 -50 -9q-22 -12 -22 -31q0 -21 20 -34t61 -25l43 -12t52.5 -16t43 -18.5t45.5 -26.5q74 -56 74 -156q0 -98 -78 -160q-75 -60 -195 -60z" />
    <glyph glyph-name="sacute" unicode="&#x15b;" horiz-adv-x="440" 
d="M219 765h110q17 0 17 -15q0 -4 -4 -12l-95 -152q-11 -18 -27 -18h-84q-16 0 -16 15q0 5 6 19l68 145q9 18 25 18zM202 107q20 0 31 7q12 6 12 20q0 17 -30 30q-15 6 -46 16.5t-49 18.5q-81 36 -81 128q0 66 47 104q50 40 140 40q91 0 160 -37q15 -8 7 -23l-42 -87
q-6 -13 -21 -5q-53 28 -97 28q-16 0 -26 -5q-9 -6 -9 -15q0 -15 36 -30q2 -1 37.5 -13t56.5 -22q78 -37 78 -118q0 -70 -60 -114q-56 -40 -141 -40q-101 0 -168 39q-15 7 -8 21l42 87q7 15 22 7q58 -37 109 -37z" />
    <glyph glyph-name="Scedilla" unicode="&#x15e;" horiz-adv-x="590" 
d="M412 -116q0 -40 -25.5 -65t-59 -33.5t-74.5 -8.5q-28 0 -48 4q-14 2 -14 14v48q0 14 14 14q4 0 18 -1t22 -1q61 0 61 34q0 28 -51 28q-17 0 -27 -1l7 76q-116 11 -200 61q-14 8 -7 23l57 119q7 16 22 7q97 -60 176 -60q42 0 62 15q20 14 20 39q0 24 -21.5 39t-62.5 28
q-9 3 -40 12.5t-47.5 15t-41 17t-42.5 24.5q-77 58 -77 158q0 95 77 149q70 51 191 51q124 0 228 -53q14 -8 7 -23l-57 -119q-8 -15 -22 -7q-92 50 -166 50q-30 0 -50 -9q-22 -12 -22 -31q0 -21 20 -34t61 -25l43 -12t52.5 -16t43 -18.5t45.5 -26.5q74 -56 74 -156
q0 -98 -78 -160q-64 -50 -161 -58v-17q45 -6 69 -31.5t24 -59.5z" />
    <glyph glyph-name="scedilla" unicode="&#x15f;" horiz-adv-x="440" 
d="M331 -116q0 -40 -25.5 -65t-59 -33.5t-74.5 -8.5q-28 0 -48 4q-14 2 -14 14v48q0 14 14 14q4 0 18 -1t22 -1q61 0 61 34q0 28 -51 28q-17 0 -27 -1l7 77q-66 6 -117 36q-15 7 -8 21l42 87q7 15 22 7q58 -37 109 -37q20 0 31 7q12 6 12 20q0 17 -30 30q-15 6 -46 16.5
t-49 18.5q-81 36 -81 128q0 66 47 104q50 40 140 40q91 0 160 -37q15 -8 7 -23l-42 -87q-6 -13 -21 -5q-53 28 -97 28q-16 0 -26 -5q-9 -6 -9 -15q0 -15 36 -30q2 -1 37.5 -13t56.5 -22q78 -37 78 -118q0 -70 -60 -114q-45 -32 -108 -38v-17q45 -6 69 -31.5t24 -59.5z" />
    <glyph glyph-name="Scaron" unicode="&#x160;" horiz-adv-x="590" 
d="M285 -10q-142 0 -250 63q-14 8 -7 23l57 119q7 16 22 7q97 -60 176 -60q42 0 62 15q20 14 20 39q0 24 -21.5 39t-62.5 28q-9 3 -40 12.5t-47.5 15t-41 17t-42.5 24.5q-77 58 -77 158q0 95 77 149q70 51 191 51q124 0 228 -53q14 -8 7 -23l-57 -119q-8 -15 -22 -7
q-92 50 -166 50q-30 0 -50 -9q-22 -12 -22 -31q0 -21 20 -34t61 -25l43 -12t52.5 -16t43 -18.5t45.5 -26.5q74 -56 74 -156q0 -98 -78 -160q-75 -60 -195 -60zM323 797h-56q-13 0 -24 13l-138 158q-8 9 -5.5 17.5t13.5 8.5h102q18 0 32 -17l48 -56l48 56q14 17 32 17h102
q11 0 13.5 -8.5t-5.5 -17.5l-138 -158q-11 -13 -24 -13z" />
    <glyph glyph-name="scaron" unicode="&#x161;" horiz-adv-x="456" 
d="M210 107q20 0 31 7q12 6 12 20q0 17 -30 30q-15 6 -46 16.5t-49 18.5q-81 36 -81 128q0 66 47 104q50 40 140 40q91 0 160 -37q15 -8 7 -23l-42 -87q-6 -13 -21 -5q-53 28 -97 28q-16 0 -26 -5q-9 -6 -9 -15q0 -15 36 -30q2 -1 37.5 -13t56.5 -22q78 -37 78 -118
q0 -70 -60 -114q-56 -40 -141 -40q-101 0 -168 39q-15 7 -8 21l42 87q7 15 22 7q58 -37 109 -37zM253 568h-56q-13 0 -24 13l-138 158q-8 9 -5.5 17.5t13.5 8.5h102q18 0 32 -17l48 -56l48 56q14 17 32 17h102q11 0 13.5 -8.5t-5.5 -17.5l-138 -158q-11 -13 -24 -13z" />
    <glyph glyph-name="Tcommaaccent" unicode="&#x162;" horiz-adv-x="616" 
d="M28 681h560q8 0 13 -5.5t5 -12.5v-120q0 -7 -5 -12.5t-13 -5.5h-192v-507q0 -8 -5 -13t-13 -5h-140q-8 0 -13 5t-5 13v507h-192q-8 0 -13 5.5t-5 12.5v120q0 7 5 12.5t13 5.5zM418 -190q1 -67 -49.5 -128t-118.5 -80q-18 -4 -26 7l-16 25q-10 15 5 25q46 31 57 50
q7 13 7 25q0 15 -11.5 26.5t-25.5 18.5t-25.5 25.5t-11.5 46.5q0 41 27 66.5t72 25.5q56 0 85 -35t31 -98z" />
    <glyph glyph-name="tcommaaccent" unicode="&#x163;" horiz-adv-x="413" 
d="M349 -190q1 -67 -49.5 -128t-118.5 -80q-18 -4 -26 7l-16 25q-10 15 5 25q46 31 57 50q7 13 7 25q0 15 -11.5 26.5t-25.5 18.5t-25.5 25.5t-11.5 46.5q0 41 27 66.5t72 25.5q56 0 85 -35t31 -98zM242 335v-145q0 -25 6 -40q9 -21 34 -21q28 0 56 24q18 14 25 -3l43 -91
q6 -13 -7 -23q-63 -46 -160 -46q-80 0 -120 45q-39 45 -39 133v167h-48q-8 0 -13 5.5t-5 12.5v91q0 8 5 13t13 5h48v91q0 7 5 12.5t13 5.5h126q8 0 13 -5.5t5 -12.5v-91h110q8 0 13 -5t5 -13v-91q0 -7 -5 -12.5t-13 -5.5h-110z" />
    <glyph glyph-name="Tcaron" unicode="&#x164;" horiz-adv-x="616" 
d="M28 681h560q8 0 13 -5.5t5 -12.5v-120q0 -7 -5 -12.5t-13 -5.5h-192v-507q0 -8 -5 -13t-13 -5h-140q-8 0 -13 5t-5 13v507h-192q-8 0 -13 5.5t-5 12.5v120q0 7 5 12.5t13 5.5zM336 772h-56q-13 0 -24 13l-138 158q-8 9 -5.5 17.5t13.5 8.5h102q18 0 32 -17l48 -56l48 56
q14 17 32 17h102q11 0 13.5 -8.5t-5.5 -17.5l-138 -158q-11 -13 -24 -13z" />
    <glyph glyph-name="tcaron" unicode="&#x165;" horiz-adv-x="558" 
d="M607 558q1 -67 -49.5 -128t-118.5 -80q-18 -4 -26 7l-16 25q-10 15 5 25q46 31 57 50q7 13 7 25q0 15 -11.5 26.5t-25.5 18.5t-25.5 25.5t-11.5 46.5q0 41 27 66.5t72 25.5q56 0 85 -35t31 -98zM242 335v-145q0 -25 6 -40q9 -21 34 -21q28 0 56 24q18 14 25 -3l43 -91
q6 -13 -7 -23q-63 -46 -160 -46q-80 0 -120 45q-39 45 -39 133v167h-48q-8 0 -13 5.5t-5 12.5v91q0 8 5 13t13 5h48v91q0 7 5 12.5t13 5.5h126q8 0 13 -5.5t5 -12.5v-91h110q8 0 13 -5t5 -13v-91q0 -7 -5 -12.5t-13 -5.5h-110z" />
    <glyph glyph-name="Umacron" unicode="&#x16a;" horiz-adv-x="725" 
d="M486 287v376q0 7 5 12.5t13 5.5h140q8 0 13 -5.5t5 -12.5v-394q0 -113 -61 -185q-80 -94 -239 -94q-158 0 -238 94q-61 72 -61 185v394q0 7 5.5 12.5t12.5 5.5h140q7 0 12.5 -5.5t5.5 -12.5v-376q0 -65 25 -97q32 -41 97 -41q68 0 100 41q25 32 25 97zM239 931h244
q7 0 12.5 -5.5t5.5 -12.5v-95q0 -8 -5.5 -13t-12.5 -5h-244q-7 0 -12.5 5t-5.5 13v95q0 7 5.5 12.5t12.5 5.5z" />
    <glyph glyph-name="umacron" unicode="&#x16b;" horiz-adv-x="578" 
d="M53 201v243q0 8 5.5 13t12.5 5h126q7 0 12.5 -5t5.5 -13v-238q0 -29 10 -49q18 -35 64 -35t64 35q10 20 10 49v238q0 8 5.5 13t12.5 5h126q7 0 12.5 -5t5.5 -13v-243q0 -87 -44 -139q-60 -72 -192 -72t-192 72q-44 52 -44 139zM167 708h244q7 0 12.5 -5t5.5 -13v-95
q0 -7 -5.5 -12.5t-12.5 -5.5h-244q-7 0 -12.5 5.5t-5.5 12.5v95q0 8 5.5 13t12.5 5z" />
    <glyph glyph-name="Uring" unicode="&#x16e;" horiz-adv-x="725" 
d="M486 287v376q0 7 5 12.5t13 5.5h140q8 0 13 -5.5t5 -12.5v-394q0 -113 -61 -185q-80 -94 -239 -94q-158 0 -238 94q-61 72 -61 185v394q0 7 5.5 12.5t12.5 5.5h140q7 0 12.5 -5.5t5.5 -12.5v-376q0 -65 25 -97q32 -41 97 -41q68 0 100 41q25 32 25 97zM487 856
q0 -51 -36.5 -87t-87.5 -36q-52 0 -88.5 36t-36.5 87q0 52 36.5 88.5t88.5 36.5q51 0 87.5 -36.5t36.5 -88.5zM418 856q0 24 -16 40.5t-39 16.5t-39 -16.5t-16 -40.5q0 -23 16 -39t39 -16t39 16.5t16 38.5z" />
    <glyph glyph-name="uring" unicode="&#x16f;" horiz-adv-x="578" 
d="M53 201v243q0 8 5.5 13t12.5 5h126q7 0 12.5 -5t5.5 -13v-238q0 -29 10 -49q18 -35 64 -35t64 35q10 20 10 49v238q0 8 5.5 13t12.5 5h126q7 0 12.5 -5t5.5 -13v-243q0 -87 -44 -139q-60 -72 -192 -72t-192 72q-44 52 -44 139zM414 669q0 -51 -36.5 -87t-87.5 -36
q-52 0 -88.5 36t-36.5 87q0 52 36.5 88.5t88.5 36.5q51 0 87.5 -36.5t36.5 -88.5zM345 669q0 24 -16 40.5t-39 16.5t-39 -16.5t-16 -40.5q0 -23 16 -39t39 -16q22 0 38.5 16t16.5 39z" />
    <glyph glyph-name="Uhungarumlaut" unicode="&#x170;" horiz-adv-x="725" 
d="M486 287v376q0 7 5 12.5t13 5.5h140q8 0 13 -5.5t5 -12.5v-394q0 -113 -61 -185q-80 -94 -239 -94q-158 0 -238 94q-61 72 -61 185v394q0 7 5.5 12.5t12.5 5.5h140q7 0 12.5 -5.5t5.5 -12.5v-376q0 -65 25 -97q32 -41 97 -41q68 0 100 41q25 32 25 97zM481 969h109
q16 0 16 -12q0 -7 -6 -15l-118 -156q-11 -14 -24 -14h-88q-15 0 -15 12q0 6 5 14l92 153q11 18 29 18zM275 969h109q16 0 16 -12q0 -7 -6 -15l-118 -156q-11 -14 -24 -14h-88q-15 0 -15 12q0 6 5 14l92 153q10 18 29 18z" />
    <glyph glyph-name="uhungarumlaut" unicode="&#x171;" horiz-adv-x="589" 
d="M53 201v243q0 8 5.5 13t12.5 5h126q7 0 12.5 -5t5.5 -13v-238q0 -29 10 -49q18 -35 64 -35t64 35q10 20 10 49v238q0 8 5.5 13t12.5 5h126q7 0 12.5 -5t5.5 -13v-243q0 -87 -44 -139q-60 -72 -192 -72t-192 72q-44 52 -44 139zM411 764h109q16 0 16 -12q0 -7 -6 -15
l-118 -156q-11 -14 -24 -14h-88q-15 0 -15 12q0 6 5 14l92 153q11 18 29 18zM205 764h109q16 0 16 -12q0 -7 -6 -15l-118 -156q-11 -14 -24 -14h-88q-15 0 -15 12q0 6 5 14l92 153q10 18 29 18z" />
    <glyph glyph-name="Uogonek" unicode="&#x172;" horiz-adv-x="725" 
d="M399 -108q16 0 31.5 4t21.5 4q11 0 11 -12v-65q0 -12 -10 -17q-39 -18 -88 -18t-82 21t-33 69q0 61 63 115q-122 12 -189 91q-61 72 -61 185v394q0 7 5.5 12.5t12.5 5.5h140q7 0 12.5 -5.5t5.5 -12.5v-376q0 -65 25 -97q32 -41 97 -41q68 0 100 41q25 32 25 97v376
q0 7 5 12.5t13 5.5h140q8 0 13 -5.5t5 -12.5v-394q0 -113 -61 -185q-68 -80 -197 -92q-44 -36 -44 -68t39 -32z" />
    <glyph glyph-name="uogonek" unicode="&#x173;" horiz-adv-x="578" 
d="M53 201v243q0 8 5.5 13t12.5 5h126q7 0 12.5 -5t5.5 -13v-238q0 -29 10 -49q18 -35 64 -35t64 35q10 20 10 49v238q0 8 5.5 13t12.5 5h126q7 0 12.5 -5t5.5 -13v-243q0 -87 -44 -139q-42 -51 -121 -65q-49 -39 -49 -73q0 -32 39 -32q16 0 31.5 4t21.5 4q11 0 11 -12v-65
q0 -12 -10 -17q-39 -18 -88 -18t-82 21t-33 69q0 59 61 113q-113 8 -165 71q-44 52 -44 139z" />
    <glyph glyph-name="Wcircumflex" unicode="&#x174;" horiz-adv-x="1032" 
d="M793 248v415q0 7 5.5 12.5t12.5 5.5h140q7 0 12.5 -5.5t5.5 -12.5v-418q0 -123 -72 -188q-73 -66 -198 -66q-57 0 -103 15q-44 14 -80 46q-36 -32 -80 -46q-46 -15 -103 -15q-125 0 -198 66q-72 65 -72 188v418q0 7 5.5 12.5t12.5 5.5h140q7 0 12.5 -5.5t5.5 -12.5v-415
q0 -48 26 -72q24 -23 68 -23q55 0 76 29q19 26 19 86v395q0 7 5 12.5t13 5.5h140q8 0 13 -5.5t5 -12.5v-395q0 -60 19 -86q21 -29 76 -29q44 0 68 23q26 24 26 72zM487 969h56q13 0 24 -13l138 -158q8 -10 5.5 -18t-13.5 -8h-102q-18 0 -32 17l-48 56l-48 -56
q-14 -17 -32 -17h-102q-11 0 -13.5 8t5.5 18l138 158q11 13 24 13z" />
    <glyph glyph-name="wcircumflex" unicode="&#x175;" horiz-adv-x="813" 
d="M760 444v-242q0 -88 -33 -138q-48 -74 -165 -74q-65 0 -110 23q-25 13 -45 38q-20 -25 -45 -38q-43 -23 -109 -23q-116 0 -166 73q-34 51 -34 139v242q0 8 5.5 13t12.5 5h126q7 0 12.5 -5t5.5 -13v-242q0 -36 11 -55q13 -23 41 -23q38 0 52 37q7 18 7 45v238q0 8 5 13
t13 5h126q8 0 13 -5t5 -13v-238q0 -27 7 -45q14 -37 53 -37q28 0 41 23q11 19 11 55v242q0 8 5 13t13 5h124q8 0 13 -5t5 -13zM378 765h56q13 0 24 -13l138 -158q8 -10 5.5 -18t-13.5 -8h-102q-18 0 -32 17l-48 56l-48 -56q-14 -17 -32 -17h-102q-11 0 -13.5 8t5.5 18
l138 158q11 13 24 13z" />
    <glyph glyph-name="Ycircumflex" unicode="&#x176;" horiz-adv-x="686" 
d="M342 450l133 213q11 18 30 18h162q14 0 17 -9t-5 -20l-249 -377v-257q0 -8 -5 -13t-13 -5h-140q-8 0 -13 5t-5 13v258l-247 376q-8 11 -5 20t17 9h161q20 0 30 -18zM315 969h56q13 0 24 -13l138 -158q8 -10 5.5 -18t-13.5 -8h-102q-18 0 -32 17l-48 56l-48 -56
q-14 -17 -32 -17h-102q-11 0 -13.5 8t5.5 18l138 158q11 13 24 13z" />
    <glyph glyph-name="ycircumflex" unicode="&#x177;" horiz-adv-x="565" 
d="M560 437l-170 -463q-35 -94 -95 -147q-86 -74 -223 -65q-14 0 -14 14v125q0 13 15 13q3 0 14.5 -1t21.5 -1q41 0 66 14q25 15 41 40l-211 471q-4 7 -1 16t15 9h152q23 0 30 -20l98 -274l77 274q5 20 30 20h140q22 0 14 -25zM261 765h56q13 0 24 -13l138 -158
q8 -10 5.5 -18t-13.5 -8h-102q-18 0 -32 17l-48 56l-48 -56q-14 -17 -32 -17h-102q-11 0 -13.5 8t5.5 18l138 158q11 13 24 13z" />
    <glyph glyph-name="Ydieresis" unicode="&#x178;" horiz-adv-x="686" 
d="M342 450l133 213q11 18 30 18h162q14 0 17 -9t-5 -20l-249 -377v-257q0 -8 -5 -13t-13 -5h-140q-8 0 -13 5t-5 13v258l-247 376q-8 11 -5 20t17 9h161q20 0 30 -18zM216 765q-38 0 -65 27.5t-27 65.5t27 65t65 27q39 0 66 -27t27 -65t-27 -65.5t-66 -27.5zM470 765
q-38 0 -65 27.5t-27 65.5t27 65t65 27t65 -27t27 -65t-27 -65.5t-65 -27.5z" />
    <glyph glyph-name="Zacute" unicode="&#x179;" horiz-adv-x="640" 
d="M318 969h110q17 0 17 -15q0 -4 -4 -12l-95 -152q-11 -18 -27 -18h-84q-16 0 -16 15q0 5 6 19l68 145q9 18 25 18zM11 25l310 500h-267q-8 0 -13 5.5t-5 12.5v120q0 7 5 12.5t13 5.5h542q17 0 17 -15q0 -6 -3 -10l-310 -500h300q8 0 13 -5t5 -13v-120q0 -8 -5 -13t-13 -5
h-575q-17 0 -17 15q0 6 3 10z" />
    <glyph glyph-name="zacute" unicode="&#x17a;" horiz-adv-x="468" 
d="M235 765h110q17 0 17 -15q0 -4 -4 -12l-95 -152q-11 -18 -27 -18h-84q-16 0 -16 15q0 5 6 19l68 145q9 18 25 18zM439 0h-416q-13 0 -14.5 8.5t4.5 13.5l189 299h-162q-8 0 -13 5.5t-5 12.5v105q0 8 5 13t13 5h403q9 0 13.5 -7t-1.5 -17l-187 -296h171q7 0 12.5 -5
t5.5 -13v-106q0 -8 -5.5 -13t-12.5 -5z" />
    <glyph glyph-name="Zdotaccent" unicode="&#x17b;" horiz-adv-x="640" 
d="M11 25l310 500h-267q-8 0 -13 5.5t-5 12.5v120q0 7 5 12.5t13 5.5h542q17 0 17 -15q0 -6 -3 -10l-310 -500h300q8 0 13 -5t5 -13v-120q0 -8 -5 -13t-13 -5h-575q-17 0 -17 15q0 6 3 10zM303 771q-38 0 -65 27t-27 65t27 65t65 27t65 -27t27 -65t-27 -65t-65 -27z" />
    <glyph glyph-name="zdotaccent" unicode="&#x17c;" horiz-adv-x="468" 
d="M439 0h-416q-13 0 -14.5 8.5t4.5 13.5l189 299h-162q-8 0 -13 5.5t-5 12.5v105q0 8 5 13t13 5h403q9 0 13.5 -7t-1.5 -17l-187 -296h171q7 0 12.5 -5t5.5 -13v-106q0 -8 -5.5 -13t-12.5 -5zM230 566q-38 0 -65 27t-27 65t27 65t65 27t65 -27t27 -65t-27 -65t-65 -27z" />
    <glyph glyph-name="Zcaron" unicode="&#x17d;" horiz-adv-x="640" 
d="M11 25l310 500h-267q-8 0 -13 5.5t-5 12.5v120q0 7 5 12.5t13 5.5h542q17 0 17 -15q0 -6 -3 -10l-310 -500h300q8 0 13 -5t5 -13v-120q0 -8 -5 -13t-13 -5h-575q-17 0 -17 15q0 6 3 10zM348 797h-56q-13 0 -24 13l-138 158q-8 9 -5.5 17.5t13.5 8.5h102q18 0 32 -17
l48 -56l48 56q14 17 32 17h102q11 0 13.5 -8.5t-5.5 -17.5l-138 -158q-11 -13 -24 -13z" />
    <glyph glyph-name="zcaron" unicode="&#x17e;" horiz-adv-x="468" 
d="M439 0h-416q-13 0 -14.5 8.5t4.5 13.5l189 299h-162q-8 0 -13 5.5t-5 12.5v105q0 8 5 13t13 5h403q9 0 13.5 -7t-1.5 -17l-187 -296h171q7 0 12.5 -5t5.5 -13v-106q0 -8 -5.5 -13t-12.5 -5zM262 568h-56q-13 0 -24 13l-138 158q-8 9 -5.5 17.5t13.5 8.5h102q18 0 32 -17
l48 -56l48 56q14 17 32 17h102q11 0 13.5 -8.5t-5.5 -17.5l-138 -158q-11 -13 -24 -13z" />
    <glyph glyph-name="florin" unicode="&#x192;" 
d="M169 462h86l9 49q14 73 52 120q51 58 132 58q87 0 150 -40q14 -9 7 -23l-40 -83q-9 -15 -26 -5q-38 22 -62 22q-27 0 -41 -17q-11 -14 -17 -44l-7 -37h101q7 0 12.5 -5t5.5 -13v-88q0 -8 -5.5 -13t-12.5 -5h-123l-71 -400q-15 -84 -59 -128q-52 -52 -145 -52
q-72 0 -122 33q-14 9 -7 23l41 84q9 15 26 5q28 -17 57 -17q26 0 38 19q9 16 15 44l70 389h-64q-7 0 -12.5 5t-5.5 13v88q0 8 5.5 13t12.5 5z" />
    <glyph glyph-name="Scommaaccent" unicode="&#x218;" horiz-adv-x="590" 
d="M418 -190q1 -67 -49.5 -128t-118.5 -80q-18 -4 -26 7l-16 25q-10 15 5 25q46 31 57 50q7 13 7 25q0 15 -11.5 26.5t-25.5 18.5t-25.5 25.5t-11.5 46.5q0 41 27 66.5t72 25.5q56 0 85 -35t31 -98zM285 -10q-142 0 -250 63q-14 8 -7 23l57 119q7 16 22 7q97 -60 176 -60
q42 0 62 15q20 14 20 39q0 24 -21.5 39t-62.5 28q-9 3 -40 12.5t-47.5 15t-41 17t-42.5 24.5q-77 58 -77 158q0 95 77 149q70 51 191 51q124 0 228 -53q14 -8 7 -23l-57 -119q-8 -15 -22 -7q-92 50 -166 50q-30 0 -50 -9q-22 -12 -22 -31q0 -21 20 -34t61 -25l43 -12
t52.5 -16t43 -18.5t45.5 -26.5q74 -56 74 -156q0 -98 -78 -160q-75 -60 -195 -60z" />
    <glyph glyph-name="scommaaccent" unicode="&#x219;" horiz-adv-x="440" 
d="M332 -190q1 -67 -49.5 -128t-118.5 -80q-18 -4 -26 7l-16 25q-10 15 5 25q46 31 57 50q7 13 7 25q0 15 -11.5 26.5t-25.5 18.5t-25.5 25.5t-11.5 46.5q0 41 27 66.5t72 25.5q56 0 85 -35t31 -98zM202 107q20 0 31 7q12 6 12 20q0 17 -30 30q-15 6 -46 16.5t-49 18.5
q-81 36 -81 128q0 66 47 104q50 40 140 40q91 0 160 -37q15 -8 7 -23l-42 -87q-6 -13 -21 -5q-53 28 -97 28q-16 0 -26 -5q-9 -6 -9 -15q0 -15 36 -30q2 -1 37.5 -13t56.5 -22q78 -37 78 -118q0 -70 -60 -114q-56 -40 -141 -40q-101 0 -168 39q-15 7 -8 21l42 87q7 15 22 7
q58 -37 109 -37z" />
    <glyph glyph-name="uni021A" unicode="&#x21a;" horiz-adv-x="616" 
d="M28 681h560q8 0 13 -5.5t5 -12.5v-120q0 -7 -5 -12.5t-13 -5.5h-192v-507q0 -8 -5 -13t-13 -5h-140q-8 0 -13 5t-5 13v507h-192q-8 0 -13 5.5t-5 12.5v120q0 7 5 12.5t13 5.5zM418 -190q1 -67 -49.5 -128t-118.5 -80q-18 -4 -26 7l-16 25q-10 15 5 25q46 31 57 50
q7 13 7 25q0 15 -11.5 26.5t-25.5 18.5t-25.5 25.5t-11.5 46.5q0 41 27 66.5t72 25.5q56 0 85 -35t31 -98z" />
    <glyph glyph-name="uni021B" unicode="&#x21b;" horiz-adv-x="413" 
d="M349 -190q1 -67 -49.5 -128t-118.5 -80q-18 -4 -26 7l-16 25q-10 15 5 25q46 31 57 50q7 13 7 25q0 15 -11.5 26.5t-25.5 18.5t-25.5 25.5t-11.5 46.5q0 41 27 66.5t72 25.5q56 0 85 -35t31 -98zM242 335v-145q0 -25 6 -40q9 -21 34 -21q28 0 56 24q18 14 25 -3l43 -91
q6 -13 -7 -23q-63 -46 -160 -46q-80 0 -120 45q-39 45 -39 133v167h-48q-8 0 -13 5.5t-5 12.5v91q0 8 5 13t13 5h48v91q0 7 5 12.5t13 5.5h126q8 0 13 -5.5t5 -12.5v-91h110q8 0 13 -5t5 -13v-91q0 -7 -5 -12.5t-13 -5.5h-110z" />
    <glyph glyph-name="circumflex" unicode="&#x2c6;" horiz-adv-x="490" 
d="M217 765h56q13 0 24 -13l138 -158q8 -10 5.5 -18t-13.5 -8h-102q-18 0 -32 17l-48 56l-48 -56q-14 -17 -32 -17h-102q-11 0 -13.5 8t5.5 18l138 158q11 13 24 13z" />
    <glyph glyph-name="caron" unicode="&#x2c7;" horiz-adv-x="490" 
d="M273 568h-56q-13 0 -24 13l-138 158q-8 9 -5.5 17.5t13.5 8.5h102q18 0 32 -17l48 -56l48 56q14 17 32 17h102q11 0 13.5 -8.5t-5.5 -17.5l-138 -158q-11 -13 -24 -13z" />
    <glyph glyph-name="breve" unicode="&#x2d8;" horiz-adv-x="490" 
d="M244 678q53 0 63 51q3 18 20 18h58q21 0 21 -19q0 -68 -42.5 -116t-119.5 -48t-119.5 48t-42.5 116q0 19 21 19h58q17 0 20 -18q10 -51 63 -51z" />
    <glyph glyph-name="dotaccent" unicode="&#x2d9;" horiz-adv-x="490" 
d="M245 566q-38 0 -65 27t-27 65t27 65t65 27t65 -27t27 -65t-27 -65t-65 -27z" />
    <glyph glyph-name="ring" unicode="&#x2da;" horiz-adv-x="490" 
d="M369 669q0 -51 -36.5 -87t-87.5 -36q-52 0 -88.5 36t-36.5 87q0 52 36.5 88.5t88.5 36.5q51 0 87.5 -36.5t36.5 -88.5zM300 669q0 24 -16 40.5t-39 16.5t-39 -16.5t-16 -40.5q0 -23 16 -39t39 -16t39 16t16 39z" />
    <glyph glyph-name="ogonek" unicode="&#x2db;" horiz-adv-x="490" 
d="M272 -108q16 0 31.5 4t21.5 4q11 0 11 -12v-65q0 -12 -10 -17q-39 -18 -88 -18t-82 21t-33 69q0 40 30 79t70 62l75 -11q-65 -45 -65 -84q0 -32 39 -32z" />
    <glyph glyph-name="tilde" unicode="&#x2dc;" horiz-adv-x="490" 
d="M308 693q28 0 35 36q5 18 18 18h51q21 0 21 -19q0 -66 -28 -105.5t-82 -39.5q-45 0 -85 31q-37 28 -57 28q-28 0 -35 -36q-4 -18 -18 -18h-51q-21 0 -21 19q0 66 28 105.5t82 39.5q42 0 86 -33q36 -26 56 -26z" />
    <glyph glyph-name="hungarumlaut" unicode="&#x2dd;" horiz-adv-x="490" 
d="M348 765h109q16 0 16 -12q0 -7 -6 -15l-118 -156q-11 -14 -24 -14h-88q-15 0 -15 12q0 6 5 14l92 153q11 18 29 18zM142 765h109q16 0 16 -12q0 -7 -6 -15l-118 -156q-11 -14 -24 -14h-88q-15 0 -15 12q0 6 5 14l92 153q11 18 29 18z" />
    <glyph glyph-name="pi" unicode="&#x3c0;" horiz-adv-x="640" 
d="M63 462h514q7 0 12.5 -5t5.5 -13v-105q0 -7 -5.5 -12.5t-12.5 -5.5h-52v-147q0 -75 41 -138q23 -36 -14 -36h-97q-25 0 -43 19q-46 49 -46 147v155h-93l-14 -156q-9 -101 -54 -146q-19 -19 -43 -19h-97q-18 0 -21.5 10.5t7.5 27.5q42 62 49 135l14 148h-51
q-7 0 -12.5 5.5t-5.5 12.5v105q0 8 5.5 13t12.5 5z" />
    <glyph glyph-name="afii10023" unicode="&#x401;" horiz-adv-x="629" 
d="M82 681h490q8 0 13 -5.5t5 -12.5v-120q0 -7 -5 -12.5t-13 -5.5h-332v-104h279q7 0 12.5 -5.5t5.5 -12.5v-120q0 -7 -5.5 -12.5t-12.5 -5.5h-279v-109h332q8 0 13 -5t5 -13v-120q0 -8 -5 -13t-13 -5h-490q-8 0 -13 5t-5 13v645q0 7 5 12.5t13 5.5zM203 765q-38 0 -65 27.5
t-27 65.5t27 65t65 27q39 0 66 -27t27 -65t-27 -65.5t-66 -27.5zM457 765q-38 0 -65 27.5t-27 65.5t27 65t65 27t65 -27t27 -65t-27 -65.5t-65 -27.5z" />
    <glyph glyph-name="afii10051" unicode="&#x402;" horiz-adv-x="772" 
d="M719 269v-18q0 -70 -22.5 -133t-70.5 -100q-22 -18 -56 -18h-105q-14 0 -16 9t7 16q101 88 101 205v18q0 39 -16 62q-19 28 -57 28q-47 0 -69 -37q-19 -29 -19 -71v-212q0 -8 -5 -13t-13 -5h-140q-8 0 -13 5t-5 13v507h-192q-8 0 -13 5.5t-5 12.5v120q0 7 5 12.5t13 5.5
h560q8 0 13 -5.5t5 -12.5v-120q0 -7 -5 -12.5t-13 -5.5h-192v-98q23 19 50 29q34 14 74 14q87 0 138 -45q61 -53 61 -156z" />
    <glyph glyph-name="afii10052" unicode="&#x403;" horiz-adv-x="547" 
d="M291 969h110q17 0 17 -15q0 -4 -4 -12l-95 -152q-11 -18 -27 -18h-84q-16 0 -16 15q0 5 6 19l68 145q9 18 25 18zM222 0h-140q-8 0 -13 5t-5 13v645q0 7 5 12.5t13 5.5h421q7 0 12.5 -5.5t5.5 -12.5v-120q0 -7 -5.5 -12.5t-12.5 -5.5h-263v-507q0 -8 -5 -13t-13 -5z" />
    <glyph glyph-name="afii10053" unicode="&#x404;" horiz-adv-x="646" 
d="M402 -10q-165 0 -261 88q-104 95 -104 263q0 147 103 247q107 102 267 102q114 0 204 -44q15 -8 7 -23l-57 -119q-7 -13 -22 -7q-88 34 -137 34q-56 0 -105 -34q-40 -29 -61 -77h281q7 0 12.5 -5t5.5 -13v-118q0 -8 -5.5 -13t-12.5 -5h-283q19 -53 67 -87q44 -29 102 -29
q73 0 143 35q14 7 21 -6l57 -121q6 -15 -8 -22q-97 -46 -214 -46z" />
    <glyph glyph-name="afii10054" unicode="&#x405;" horiz-adv-x="590" 
d="M285 -10q-142 0 -250 63q-14 8 -7 23l57 119q7 16 22 7q97 -60 176 -60q42 0 62 15q20 14 20 39q0 24 -21.5 39t-62.5 28q-9 3 -40 12.5t-47.5 15t-41 17t-42.5 24.5q-77 58 -77 158q0 95 77 149q70 51 191 51q124 0 228 -53q14 -8 7 -23l-57 -119q-8 -15 -22 -7
q-92 50 -166 50q-30 0 -50 -9q-22 -12 -22 -31q0 -21 20 -34t61 -25l43 -12t52.5 -16t43 -18.5t45.5 -26.5q74 -56 74 -156q0 -98 -78 -160q-75 -60 -195 -60z" />
    <glyph glyph-name="afii10055" unicode="&#x406;" horiz-adv-x="304" 
d="M82 681h140q8 0 13 -5.5t5 -12.5v-645q0 -8 -5 -13t-13 -5h-140q-8 0 -13 5t-5 13v645q0 7 5 12.5t13 5.5z" />
    <glyph glyph-name="afii10056" unicode="&#x407;" horiz-adv-x="304" 
d="M25 765q-38 0 -65 27.5t-27 65.5t27 65t65 27q39 0 66 -27t27 -65t-27 -65.5t-66 -27.5zM279 765q-38 0 -65 27.5t-27 65.5t27 65t65 27t65 -27t27 -65t-27 -65.5t-65 -27.5zM82 681h140q8 0 13 -5.5t5 -12.5v-645q0 -8 -5 -13t-13 -5h-140q-8 0 -13 5t-5 13v645
q0 7 5 12.5t13 5.5z" />
    <glyph glyph-name="afii10057" unicode="&#x408;" horiz-adv-x="543" 
d="M216 -10q-115 0 -199 69q-13 10 -4 24l66 111q10 14 23 3q56 -51 112 -51q42 0 62 17q28 25 28 101v399q0 7 5 12.5t13 5.5h140q8 0 13 -5.5t5 -12.5v-415q0 -143 -86 -208q-68 -50 -178 -50z" />
    <glyph glyph-name="afii10058" unicode="&#x409;" horiz-adv-x="1028" 
d="M136 681h502q8 0 13 -5.5t5 -12.5v-246h65q108 0 168 -29q101 -48 101 -178q0 -125 -101 -177q-62 -33 -151 -33h-240q-8 0 -13 5t-5 13v507h-186v-67q0 -145 -27 -258q-11 -48 -33 -101t-44 -80q-15 -19 -43 -19h-106q-15 0 -20 9.5t6 28.5q49 79 71 178q20 93 20 242
v205q0 7 5 12.5t13 5.5zM810 210q0 41 -38 56q-27 10 -65 10h-51v-133h65q40 0 61 12q28 16 28 55z" />
    <glyph glyph-name="afii10059" unicode="&#x40a;" horiz-adv-x="1048" 
d="M500 18v258h-260v-258q0 -8 -5 -13t-13 -5h-140q-8 0 -13 5t-5 13v645q0 7 5 12.5t13 5.5h140q8 0 13 -5.5t5 -12.5v-247h260v247q0 7 5 12.5t13 5.5h140q8 0 13 -5.5t5 -12.5v-246h65q108 0 168 -29q101 -48 101 -178q0 -125 -101 -177q-62 -33 -151 -33h-240
q-8 0 -13 5t-5 13zM830 210q0 41 -38 56q-27 10 -65 10h-51v-133h65q40 0 61 12q28 16 28 55z" />
    <glyph glyph-name="afii10060" unicode="&#x40b;" horiz-adv-x="772" 
d="M220 525h-192q-8 0 -13 5.5t-5 12.5v120q0 7 5 12.5t13 5.5h560q8 0 13 -5.5t5 -12.5v-120q0 -7 -5 -12.5t-13 -5.5h-192v-98q23 19 50 29q34 14 74 14q87 0 138 -45q61 -53 61 -149v-258q0 -8 -5.5 -13t-12.5 -5h-126q-7 0 -12.5 5t-5.5 13v230q0 39 -16 62
q-19 28 -57 28q-47 0 -69 -37q-19 -29 -19 -71v-212q0 -8 -5 -13t-13 -5h-140q-8 0 -13 5t-5 13v507z" />
    <glyph glyph-name="afii10061" unicode="&#x40c;" horiz-adv-x="677" 
d="M486 681h157q14 0 17 -8.5t-5 -18.5l-234 -301l243 -322q6 -7 7.5 -14.5t-2.5 -12t-13 -4.5h-166q-22 0 -34 18l-179 247h-37v-247q0 -8 -5 -13t-13 -5h-140q-8 0 -13 5t-5 13v645q0 7 5 12.5t13 5.5h140q8 0 13 -5.5t5 -12.5v-242h36l176 242q12 18 34 18zM337 969h110
q17 0 17 -15q0 -4 -4 -12l-95 -152q-11 -18 -27 -18h-84q-16 0 -16 15q0 5 6 19l68 145q9 18 25 18z" />
    <glyph glyph-name="afii10062" unicode="&#x40e;" horiz-adv-x="644" 
d="M324 887q53 0 63 51q3 18 20 18h58q21 0 21 -19q0 -68 -42.5 -116t-119.5 -48t-119.5 48t-42.5 116q0 19 21 19h58q17 0 20 -18q10 -51 63 -51zM87 151h42q48 0 73 10q22 8 42 28l-240 467q-5 8 -1.5 16.5t15.5 8.5h157q21 0 30 -20l129 -292l111 292q8 20 30 20h149
q12 0 15.5 -8.5t-1.5 -16.5l-194 -450q-35 -82 -90 -132q-81 -74 -205 -74h-62q-7 0 -12.5 5t-5.5 13v115q0 7 5.5 12.5t12.5 5.5z" />
    <glyph glyph-name="afii10145" unicode="&#x40f;" horiz-adv-x="724" 
d="M502 681h140q8 0 13 -5.5t5 -12.5v-645q0 -8 -5 -13t-13 -5h-192v-210q0 -8 -5 -13t-13 -5h-140q-8 0 -13 5t-5 13v210h-192q-8 0 -13 5t-5 13v645q0 7 5 12.5t13 5.5h140q8 0 13 -5.5t5 -12.5v-507h244v507q0 7 5 12.5t13 5.5z" />
    <glyph glyph-name="afii10017" unicode="&#x410;" horiz-adv-x="648" 
d="M218 123l-31 -103q-6 -20 -30 -20h-138q-16 0 -16 14q0 3 2 11l219 641q6 18 28 18h148q22 0 28 -18l215 -641q2 -8 2 -11q0 -14 -16 -14h-142q-24 0 -30 20l-30 103h-209zM385 264l-61 207l-63 -207h124z" />
    <glyph glyph-name="afii10018" unicode="&#x411;" horiz-adv-x="612" 
d="M82 681h421q7 0 12.5 -5.5t5.5 -12.5v-120q0 -7 -5.5 -12.5t-12.5 -5.5h-263v-108h65q108 0 168 -29q101 -48 101 -178q0 -125 -101 -177q-62 -33 -151 -33h-240q-8 0 -13 5t-5 13v645q0 7 5 12.5t13 5.5zM394 210q0 41 -38 56q-27 10 -65 10h-51v-133h65q40 0 61 12
q28 16 28 55z" />
    <glyph glyph-name="afii10019" unicode="&#x412;" horiz-adv-x="612" 
d="M574 186q0 -89 -68.5 -137.5t-160.5 -48.5h-263q-8 0 -13 5t-5 13v645q0 7 5 12.5t13 5.5h199q113 0 174 -46q63 -49 63 -127q0 -104 -83 -143v-4q139 -35 139 -175zM341 477q0 33 -21 49q-16 13 -42 13h-38v-122h30q24 0 41 8q30 15 30 52zM394 209q0 42 -41 58
q-22 9 -62 9h-51v-133h65q35 0 53 7q36 15 36 59z" />
    <glyph glyph-name="afii10020" unicode="&#x413;" horiz-adv-x="547" 
d="M222 0h-140q-8 0 -13 5t-5 13v645q0 7 5 12.5t13 5.5h421q7 0 12.5 -5.5t5.5 -12.5v-120q0 -7 -5.5 -12.5t-12.5 -5.5h-263v-507q0 -8 -5 -13t-13 -5z" />
    <glyph glyph-name="afii10021" unicode="&#x414;" horiz-adv-x="914" 
d="M401 458q0 -97 -11 -163q-13 -79 -40 -139h200v369h-149v-67zM16 -210v348q0 8 5 13t13 5h139q32 60 43 140q9 60 9 162v205q0 18 18 18h465q8 0 13 -5.5t5 -12.5v-507h154q8 0 13 -5t5 -13v-348q0 -8 -5 -13t-13 -5h-140q-8 0 -13 5t-5 13v210h-530v-210q0 -8 -5 -13
t-13 -5h-140q-8 0 -13 5t-5 13z" />
    <glyph glyph-name="afii10022" unicode="&#x415;" horiz-adv-x="629" 
d="M82 681h490q8 0 13 -5.5t5 -12.5v-120q0 -7 -5 -12.5t-13 -5.5h-332v-104h279q7 0 12.5 -5.5t5.5 -12.5v-120q0 -7 -5.5 -12.5t-12.5 -5.5h-279v-109h332q8 0 13 -5t5 -13v-120q0 -8 -5 -13t-13 -5h-490q-8 0 -13 5t-5 13v645q0 7 5 12.5t13 5.5z" />
    <glyph glyph-name="afii10024" unicode="&#x416;" horiz-adv-x="1050" 
d="M401 421h36v242q0 7 5.5 12.5t12.5 5.5h140q7 0 12.5 -5.5t5.5 -12.5v-242h36l176 242q12 18 34 18h157q14 0 17 -8.5t-5 -18.5l-234 -301l243 -322q6 -7 7.5 -14.5t-2.5 -12t-13 -4.5h-166q-22 0 -34 18l-179 247h-37v-247q0 -8 -5.5 -13t-12.5 -5h-140q-7 0 -12.5 5
t-5.5 13v247h-37l-179 -247q-12 -18 -34 -18h-166q-14 0 -16 10t7 21l244 322l-234 301q-8 10 -5 18.5t17 8.5h157q20 0 34 -18z" />
    <glyph glyph-name="afii10025" unicode="&#x417;" horiz-adv-x="529" 
d="M208 277h-78q-8 0 -13 5.5t-5 12.5v100q0 7 5 12.5t13 5.5h65q49 0 77 14q36 19 36 63q0 26 -18 41q-20 15 -50 15q-59 0 -122 -44q-19 -13 -27 4l-47 95q-8 17 6 26q95 63 206 63q98 0 156 -56q52 -50 52 -123q0 -110 -93 -155q120 -50 120 -174q0 -90 -68 -143
q-63 -49 -167 -49q-118 0 -206 56q-14 9 -6 23l49 100q8 15 25 4q67 -46 122 -46q43 0 64 18q23 20 23 53q0 43 -38 65q-25 14 -81 14z" />
    <glyph glyph-name="afii10026" unicode="&#x418;" horiz-adv-x="742" 
d="M502 18v346l-262 -267v-79q0 -8 -5 -13t-13 -5h-140q-8 0 -13 5t-5 13v645q0 7 5 12.5t13 5.5h140q8 0 13 -5.5t5 -12.5v-350l262 266v84q0 7 5 12.5t13 5.5h140q8 0 13 -5.5t5 -12.5v-645q0 -8 -5 -13t-13 -5h-140q-8 0 -13 5t-5 13z" />
    <glyph glyph-name="afii10027" unicode="&#x419;" horiz-adv-x="742" 
d="M502 18v346l-262 -267v-79q0 -8 -5 -13t-13 -5h-140q-8 0 -13 5t-5 13v645q0 7 5 12.5t13 5.5h140q8 0 13 -5.5t5 -12.5v-350l262 266v84q0 7 5 12.5t13 5.5h140q8 0 13 -5.5t5 -12.5v-645q0 -8 -5 -13t-13 -5h-140q-8 0 -13 5t-5 13zM371 887q53 0 63 51q3 18 20 18h58
q21 0 21 -19q0 -68 -42.5 -116t-119.5 -48t-119.5 48t-42.5 116q0 19 21 19h58q17 0 20 -18q10 -51 63 -51z" />
    <glyph glyph-name="afii10028" unicode="&#x41a;" horiz-adv-x="677" 
d="M486 681h157q14 0 17 -8.5t-5 -18.5l-234 -301l243 -322q6 -7 7.5 -14.5t-2.5 -12t-13 -4.5h-166q-22 0 -34 18l-179 247h-37v-247q0 -8 -5 -13t-13 -5h-140q-8 0 -13 5t-5 13v645q0 7 5 12.5t13 5.5h140q8 0 13 -5.5t5 -12.5v-242h36l176 242q12 18 34 18z" />
    <glyph glyph-name="afii10029" unicode="&#x41b;" horiz-adv-x="720" 
d="M190 19q-15 -19 -43 -19h-106q-15 0 -20 9.5t6 28.5q49 79 71 178q20 93 20 242v205q0 7 5 12.5t13 5.5h502q8 0 13 -5.5t5 -12.5v-645q0 -8 -5 -13t-13 -5h-140q-8 0 -13 5t-5 13v507h-186v-67q0 -145 -27 -258q-11 -48 -33 -101t-44 -80z" />
    <glyph glyph-name="afii10030" unicode="&#x41c;" horiz-adv-x="843" 
d="M779 663v-645q0 -8 -5.5 -13t-12.5 -5h-134q-7 0 -12.5 5t-5.5 13v357l-105 -195q-10 -18 -28 -18h-103q-17 0 -28 18l-111 195v-357q0 -8 -5 -13t-13 -5h-134q-8 0 -13 5t-5 13v645q0 7 5 12.5t13 5.5h141q22 0 32 -18l166 -298l166 298q10 18 32 18h142q7 0 12.5 -5.5
t5.5 -12.5z" />
    <glyph glyph-name="afii10031" unicode="&#x41d;" horiz-adv-x="740" 
d="M518 681h140q8 0 13 -5.5t5 -12.5v-645q0 -8 -5 -13t-13 -5h-140q-8 0 -13 5t-5 13v247h-260v-247q0 -8 -5 -13t-13 -5h-140q-8 0 -13 5t-5 13v645q0 7 5 12.5t13 5.5h140q8 0 13 -5.5t5 -12.5v-242h260v242q0 7 5 12.5t13 5.5z" />
    <glyph glyph-name="afii10032" unicode="&#x41e;" horiz-adv-x="811" 
d="M774 339q0 -156 -107.5 -252.5t-260.5 -96.5t-261 97.5t-108 251.5q0 156 108 253.5t261 97.5q152 0 260 -98t108 -253zM587 339q0 81 -51 133.5t-130 52.5t-130.5 -52.5t-51.5 -133.5t51 -133t131 -52q79 0 130 52t51 133z" />
    <glyph glyph-name="afii10033" unicode="&#x41f;" horiz-adv-x="724" 
d="M642 0h-140q-8 0 -13 5t-5 13v507h-244v-507q0 -8 -5 -13t-13 -5h-140q-8 0 -13 5t-5 13v645q0 7 5 12.5t13 5.5h560q8 0 13 -5.5t5 -12.5v-645q0 -8 -5 -13t-13 -5z" />
    <glyph glyph-name="afii10034" unicode="&#x420;" horiz-adv-x="657" 
d="M445 436q0 54 -35 76q-23 15 -59 15h-111v-182h111q36 0 58 14q36 21 36 77zM82 681h291q103 0 166 -53q85 -70 85 -192q0 -126 -92 -197q-61 -48 -154 -48h-138v-173q0 -8 -5 -13t-13 -5h-140q-8 0 -13 5t-5 13v645q0 7 5 12.5t13 5.5z" />
    <glyph glyph-name="afii10035" unicode="&#x421;" horiz-adv-x="652" 
d="M402 -10q-171 0 -268 94t-97 257q0 150 106.5 249.5t263.5 99.5q114 0 204 -44q15 -8 7 -23l-57 -119q-7 -12 -22 -7q-73 34 -137 34q-75 0 -128 -54t-53 -136q0 -83 51.5 -137t130.5 -54q73 0 143 35q14 7 21 -6l57 -121q6 -15 -8 -22q-97 -46 -214 -46z" />
    <glyph glyph-name="afii10036" unicode="&#x422;" horiz-adv-x="616" 
d="M28 681h560q8 0 13 -5.5t5 -12.5v-120q0 -7 -5 -12.5t-13 -5.5h-192v-507q0 -8 -5 -13t-13 -5h-140q-8 0 -13 5t-5 13v507h-192q-8 0 -13 5.5t-5 12.5v120q0 7 5 12.5t13 5.5z" />
    <glyph glyph-name="afii10037" unicode="&#x423;" horiz-adv-x="642" 
d="M87 151h42q48 0 73 10q22 8 42 28l-240 467q-5 8 -1.5 16.5t15.5 8.5h157q21 0 30 -20l129 -292l111 292q8 20 30 20h149q12 0 15.5 -8.5t-1.5 -16.5l-194 -450q-35 -82 -90 -132q-81 -74 -205 -74h-62q-7 0 -12.5 5t-5.5 13v115q0 7 5.5 12.5t12.5 5.5z" />
    <glyph glyph-name="afii10038" unicode="&#x424;" horiz-adv-x="834" 
d="M505 248h19q36 0 58 14q36 21 36 78t-36 78q-22 14 -58 14h-19v-184zM329 248v184h-19q-36 0 -58 -14q-36 -21 -36 -78t36 -78q22 -14 58 -14h19zM797 340q0 -130 -89 -198q-64 -48 -163 -48h-40v-76q0 -8 -5.5 -13t-12.5 -5h-140q-7 0 -12.5 5t-5.5 13v76h-39
q-100 0 -164 48q-89 68 -89 198q0 127 89 198q61 48 164 48h39v77q0 7 5.5 12.5t12.5 5.5h140q7 0 12.5 -5.5t5.5 -12.5v-77h40q102 0 163 -48q89 -71 89 -198z" />
    <glyph glyph-name="afii10039" unicode="&#x425;" horiz-adv-x="728" 
d="M476 343l245 -314q9 -11 5.5 -20t-17.5 -9h-184q-19 0 -31 17l-129 190l-131 -190q-11 -17 -30 -17h-185q-14 0 -17.5 9t5.5 20l250 310l-243 313q-9 10 -5.5 19.5t17.5 9.5h185q19 0 30 -18l125 -181l119 181q13 18 31 18h187q14 0 17.5 -9.5t-5.5 -19.5z" />
    <glyph glyph-name="afii10040" unicode="&#x426;" horiz-adv-x="848" 
d="M82 0q-8 0 -13 5t-5 13v645q0 7 5 12.5t13 5.5h140q8 0 13 -5.5t5 -12.5v-507h244v507q0 7 5 12.5t13 5.5h140q8 0 13 -5.5t5 -12.5v-507h154q8 0 13 -5t5 -13v-348q0 -8 -5 -13t-13 -5h-140q-8 0 -13 5t-5 13v210h-574z" />
    <glyph glyph-name="afii10041" unicode="&#x427;" horiz-adv-x="686" 
d="M50 468v195q0 7 5 12.5t13 5.5h140q8 0 13 -5.5t5 -12.5v-192q0 -53 20 -76q23 -24 77 -24q47 0 123 20v272q0 7 5 12.5t13 5.5h140q8 0 13 -5.5t5 -12.5v-645q0 -8 -5 -13t-13 -5h-140q-8 0 -13 5t-5 13v211q-73 -17 -136 -17q-141 0 -206 76q-54 63 -54 180z" />
    <glyph glyph-name="afii10042" unicode="&#x428;" horiz-adv-x="1084" 
d="M1020 663v-645q0 -8 -5 -13t-13 -5h-920q-8 0 -13 5t-5 13v645q0 7 5 12.5t13 5.5h140q8 0 13 -5.5t5 -12.5v-507h214v507q0 7 5 12.5t13 5.5h140q8 0 13 -5.5t5 -12.5v-507h214v507q0 7 5 12.5t13 5.5h140q8 0 13 -5.5t5 -12.5z" />
    <glyph glyph-name="afii10043" unicode="&#x429;" horiz-adv-x="1208" 
d="M82 0q-8 0 -13 5t-5 13v645q0 7 5 12.5t13 5.5h140q8 0 13 -5.5t5 -12.5v-507h214v507q0 7 5 12.5t13 5.5h140q8 0 13 -5.5t5 -12.5v-507h214v507q0 7 5 12.5t13 5.5h140q8 0 13 -5.5t5 -12.5v-507h154q8 0 13 -5t5 -13v-348q0 -8 -5 -13t-13 -5h-140q-8 0 -13 5t-5 13
v210h-934z" />
    <glyph glyph-name="afii10044" unicode="&#x42a;" horiz-adv-x="794" 
d="M504 0h-240q-8 0 -13 5t-5 13v507h-198q-8 0 -13 5.5t-5 12.5v120q0 7 5 12.5t13 5.5h356q8 0 13 -5.5t5 -12.5v-246h65q108 0 168 -29q101 -48 101 -178q0 -125 -101 -177q-62 -33 -151 -33zM576 210q0 41 -38 56q-27 10 -65 10h-51v-133h65q40 0 61 12q28 16 28 55z
" />
    <glyph glyph-name="afii10045" unicode="&#x42b;" horiz-adv-x="916" 
d="M694 681h140q8 0 13 -5.5t5 -12.5v-645q0 -8 -5 -13t-13 -5h-140q-8 0 -13 5t-5 13v645q0 7 5 12.5t13 5.5zM64 18v645q0 7 5 12.5t13 5.5h140q8 0 13 -5.5t5 -12.5v-246h65q108 0 168 -29q101 -48 101 -178q0 -125 -101 -177q-62 -33 -151 -33h-240q-8 0 -13 5t-5 13z
M394 210q0 41 -38 56q-27 10 -65 10h-51v-133h65q40 0 61 12q28 16 28 55z" />
    <glyph glyph-name="afii10046" unicode="&#x42c;" horiz-adv-x="612" 
d="M64 18v645q0 7 5 12.5t13 5.5h140q8 0 13 -5.5t5 -12.5v-246h65q108 0 168 -29q101 -48 101 -178q0 -125 -101 -177q-62 -33 -151 -33h-240q-8 0 -13 5t-5 13zM394 210q0 41 -38 56q-27 10 -65 10h-51v-133h65q40 0 61 12q28 16 28 55z" />
    <glyph glyph-name="afii10047" unicode="&#x42d;" horiz-adv-x="646" 
d="M243 -10q-117 0 -214 46q-14 8 -7 22l56 121q7 14 22 6q70 -35 143 -35q58 0 101 29q47 32 68 87h-283q-7 0 -12.5 5t-5.5 13v118q0 8 5.5 13t12.5 5h280q-19 47 -60 77q-49 34 -105 34q-49 0 -137 -34q-16 -7 -22 7l-57 119q-8 15 7 23q90 44 204 44q161 0 266 -102
q104 -99 104 -247q0 -168 -104 -263q-97 -88 -262 -88z" />
    <glyph glyph-name="afii10048" unicode="&#x42e;" horiz-adv-x="1132" 
d="M1095 340q0 -156 -107.5 -252.5t-260.5 -96.5q-133 0 -234.5 75t-127.5 199h-125v-247q0 -8 -5 -13t-13 -5h-140q-8 0 -13 5t-5 13v645q0 7 5 12.5t13 5.5h140q8 0 13 -5.5t5 -12.5v-242h126q28 123 129 196.5t232 73.5q152 0 260 -98t108 -253zM908 340q0 81 -51 133.5
t-130 52.5t-130.5 -52.5t-51.5 -133.5t51 -133t131 -52q79 0 130 52t51 133z" />
    <glyph glyph-name="afii10049" unicode="&#x42f;" horiz-adv-x="678" 
d="M114 285q-75 67 -75 168q0 117 79 179q63 49 175 49h303q8 0 13 -5.5t5 -12.5v-645q0 -8 -5 -13t-13 -5h-140q-8 0 -13 5t-5 13v204h-107l-107 -204q-10 -18 -34 -18h-154q-16 0 -16 14q0 8 6 18l129 224q-25 14 -41 29zM438 532h-133q-36 0 -59 -17q-28 -20 -28 -64
q0 -45 31 -66q24 -15 58 -15h131v162z" />
    <glyph glyph-name="afii10065" unicode="&#x430;" horiz-adv-x="493" 
d="M227 349q-52 0 -118 -36q-19 -10 -26 6l-35 77q-7 14 7 23q82 51 193 51q102 0 151 -53q41 -44 41 -121v-278q0 -8 -5 -13t-13 -5h-109q-7 0 -12.5 5t-5.5 13v4h-4q-48 -32 -115 -32q-63 0 -104 39q-42 40 -42 106q0 77 79 115q58 27 169 38v7q0 26 -9 38q-11 16 -42 16z
M229 104q26 0 49 15v66q-34 0 -58 -8q-36 -11 -36 -37q0 -18 12 -27t33 -9z" />
    <glyph glyph-name="afii10066" unicode="&#x431;" horiz-adv-x="573" 
d="M496 663q0 -87 -59 -139q-22 -19 -48 -33.5t-66.5 -30t-48.5 -19.5q-53 -23 -70 -49q71 22 134 22q96 0 152 -62q49 -54 49 -141q0 -98 -68 -158q-70 -63 -184 -63q-112 0 -177 63q-77 74 -77 223q0 163 116 240q29 19 82 42t80 44q37 28 37 61q0 7 5 12.5t13 5.5h112
q18 0 18 -18zM190 277v-28q3 -57 21 -88q24 -44 76 -44q45 0 70 27q24 24 24 67q0 38 -23 64q-26 29 -68 29q-55 0 -100 -27z" />
    <glyph glyph-name="afii10067" unicode="&#x432;" horiz-adv-x="513" 
d="M323 0h-244q-7 0 -12.5 5t-5.5 13v426q0 8 5.5 13t12.5 5h201q78 0 118 -32q43 -33 43 -86q0 -70 -57 -97v-3q95 -22 95 -117q0 -62 -46.5 -94.5t-109.5 -32.5zM285 318q0 15 -13 25q-10 6 -27 6h-28v-62h22q18 0 27 4q19 8 19 27zM319 149q0 25 -28 33q-13 5 -42 5h-32
v-76h41q23 0 36 4q25 8 25 34z" />
    <glyph glyph-name="afii10068" unicode="&#x433;" horiz-adv-x="440" 
d="M204 0h-125q-7 0 -12.5 5t-5.5 13v426q0 8 5.5 13t12.5 5h318q7 0 12.5 -5t5.5 -13v-107q0 -7 -5.5 -12.5t-12.5 -5.5h-175v-301q0 -8 -5 -13t-13 -5z" />
    <glyph glyph-name="afii10069" unicode="&#x434;" horiz-adv-x="783" 
d="M612 444v-301h137q7 0 12.5 -5.5t5.5 -12.5v-276q0 -7 -5.5 -12.5t-12.5 -5.5h-123q-8 0 -13 5.5t-5 12.5v151h-424v-151q0 -7 -5 -12.5t-13 -5.5h-124q-8 0 -13 5.5t-5 12.5v276q0 7 5 12.5t13 5.5h100q27 52 38 114q8 45 10 128v59q0 8 5 13t13 5h386q8 0 13 -5t5 -13z
M347 319q-4 -51 -15 -97q-10 -37 -29 -79h148v176h-104z" />
    <glyph glyph-name="afii10070" unicode="&#x435;" horiz-adv-x="525" 
d="M204 285h136q-3 26 -16 41q-17 20 -50 20q-34 0 -51 -18q-14 -16 -19 -43zM301 115q52 0 99 28q17 10 26 -5l42 -78q6 -13 -7 -23q-28 -21 -76 -34t-97 -13q-116 0 -183 64q-71 66 -71 182q0 102 70 172q64 62 169 62q125 0 184 -83q48 -70 37 -181q-2 -18 -18 -18h-272
q7 -32 27 -50q25 -23 70 -23z" />
    <glyph glyph-name="afii10072" unicode="&#x436;" horiz-adv-x="861" 
d="M685 462h145q12 0 15 -9t-7 -23l-153 -189l161 -209q10 -13 7 -22.5t-15 -9.5h-150q-22 0 -34 18l-106 145h-37v-145q0 -8 -5.5 -13t-12.5 -5h-125q-8 0 -13 5t-5 13v145h-37l-106 -145q-12 -18 -34 -18h-150q-12 0 -15 9.5t7 22.5l161 209l-153 189q-10 14 -7 23t15 9
h145q22 0 34 -18l101 -140h39v140q0 8 5 13t13 5h125q7 0 12.5 -5t5.5 -13v-140h39l101 140q12 18 34 18z" />
    <glyph glyph-name="afii10073" unicode="&#x437;" horiz-adv-x="420" 
d="M196 -10q-95 0 -164 41q-14 8 -7 23l38 81q3 6 10 8t12 -1q59 -33 97 -33q21 0 34 8q15 7 15 24q0 21 -29 30q-17 5 -43 5h-42q-7 0 -12.5 5t-5.5 13v79q0 7 5.5 12.5t12.5 5.5h31q28 0 44 5q24 7 24 25q0 12 -11 18q-10 5 -22 5q-41 0 -93 -29q-5 -3 -12 -1t-10 8
l-38 81q-7 15 7 23q75 44 161 44q76 0 123 -39q42 -38 44 -92q1 -62 -54 -97q75 -34 75 -115q0 -61 -47 -97q-51 -40 -143 -40z" />
    <glyph glyph-name="afii10074" unicode="&#x438;" horiz-adv-x="606" 
d="M545 444v-426q0 -8 -5.5 -13t-12.5 -5h-126q-7 0 -12.5 5t-5.5 13v195l-160 -134v-61q0 -8 -5.5 -13t-12.5 -5h-126q-7 0 -12.5 5t-5.5 13v426q0 8 5.5 13t12.5 5h126q7 0 12.5 -5t5.5 -13v-198l160 135v63q0 8 5.5 13t12.5 5h126q7 0 12.5 -5t5.5 -13z" />
    <glyph glyph-name="afii10075" unicode="&#x439;" horiz-adv-x="606" 
d="M303 678q53 0 63 51q3 18 20 18h58q21 0 21 -19q0 -68 -42.5 -116t-119.5 -48t-119.5 48t-42.5 116q0 19 21 19h58q17 0 20 -18q10 -51 63 -51zM545 444v-426q0 -8 -5.5 -13t-12.5 -5h-126q-7 0 -12.5 5t-5.5 13v195l-160 -134v-61q0 -8 -5.5 -13t-12.5 -5h-126
q-7 0 -12.5 5t-5.5 13v426q0 8 5.5 13t12.5 5h126q7 0 12.5 -5t5.5 -13v-198l160 135v63q0 8 5.5 13t12.5 5h126q7 0 12.5 -5t5.5 -13z" />
    <glyph glyph-name="afii10076" unicode="&#x43a;" horiz-adv-x="572" 
d="M396 462h145q13 0 16 -9.5t-8 -22.5l-153 -189l161 -209q11 -12 8 -22t-16 -10h-150q-22 0 -34 18l-106 145h-37v-145q0 -8 -5 -13t-13 -5h-125q-7 0 -12.5 5t-5.5 13v426q0 8 5.5 13t12.5 5h125q8 0 13 -5t5 -13v-140h39l101 140q12 18 34 18z" />
    <glyph glyph-name="afii10077" unicode="&#x43b;" horiz-adv-x="596" 
d="M258 319q-7 -113 -22 -181q-18 -76 -52 -119q-15 -19 -43 -19h-102q-15 0 -19.5 9.5t5.5 28.5q37 65 53 125q19 77 19 222v59q0 8 5.5 13t12.5 5h402q7 0 12.5 -5t5.5 -13v-426q0 -8 -5.5 -13t-12.5 -5h-125q-8 0 -13 5t-5 13v301h-116z" />
    <glyph glyph-name="afii10078" unicode="&#x43c;" horiz-adv-x="681" 
d="M377 70h-74q-19 0 -30 18l-54 94v-164q0 -8 -5.5 -13t-12.5 -5h-122q-7 0 -12.5 5t-5.5 13v426q0 8 5.5 13t12.5 5h121q22 0 32 -18l108 -192l107 192q10 18 32 18h123q8 0 13 -5t5 -13v-426q0 -8 -5 -13t-13 -5h-122q-8 0 -13 5t-5 13v164l-55 -94q-11 -18 -30 -18z" />
    <glyph glyph-name="afii10079" unicode="&#x43d;" 
d="M397 462h124q7 0 12.5 -5t5.5 -13v-426q0 -8 -5.5 -13t-12.5 -5h-124q-7 0 -12.5 5t-5.5 13v145h-157v-145q0 -8 -5 -13t-13 -5h-125q-7 0 -12.5 5t-5.5 13v426q0 8 5.5 13t12.5 5h125q8 0 13 -5t5 -13v-140h157v140q0 8 5.5 13t12.5 5z" />
    <glyph glyph-name="afii10080" unicode="&#x43e;" horiz-adv-x="572" 
d="M194 230q0 -50 29 -82q25 -27 63 -27t63 27q29 32 29 82t-29 82q-25 27 -63 27t-63 -27q-29 -32 -29 -82zM34 230q0 114 79 180q69 60 173 60t173 -60q79 -66 79 -180t-79 -180q-69 -60 -173 -60t-173 60q-79 66 -79 180z" />
    <glyph glyph-name="afii10081" unicode="&#x43f;" horiz-adv-x="590" 
d="M79 462h432q7 0 12.5 -5t5.5 -13v-426q0 -8 -5.5 -13t-12.5 -5h-124q-7 0 -12.5 5t-5.5 13v301h-147v-301q0 -8 -5 -13t-13 -5h-125q-7 0 -12.5 5t-5.5 13v426q0 8 5.5 13t12.5 5z" />
    <glyph glyph-name="afii10082" unicode="&#x440;" horiz-adv-x="561" 
d="M223 336v-211q13 -3 35 -3q51 0 77 21q31 25 31 86q0 49 -23 78q-26 32 -73 32q-26 0 -47 -3zM79 454q69 16 174 16q141 0 213 -75q61 -63 61 -166q0 -100 -53 -161q-68 -78 -199 -78q-36 0 -52 2v-210q0 -8 -5.5 -13t-12.5 -5h-126q-7 0 -12.5 5t-5.5 13v652q0 16 18 20
z" />
    <glyph glyph-name="afii10083" unicode="&#x441;" horiz-adv-x="484" 
d="M300 124q44 0 91 27q19 11 26 -5l46 -86q6 -13 -7 -23q-64 -47 -161 -47q-132 0 -202 76q-59 64 -59 165q0 86 49 146q74 93 216 93q89 0 155 -48q13 -10 7 -23l-48 -89q-7 -16 -26 -5q-47 29 -87 29q-45 0 -73 -28q-28 -30 -28 -75q0 -48 26 -77q27 -30 75 -30z" />
    <glyph glyph-name="afii10084" unicode="&#x442;" horiz-adv-x="475" 
d="M28 462h419q7 0 12.5 -5t5.5 -13v-107q0 -7 -5.5 -12.5t-12.5 -5.5h-129v-301q0 -8 -5 -13t-13 -5h-125q-7 0 -12.5 5t-5.5 13v301h-129q-8 0 -13 5.5t-5 12.5v107q0 8 5 13t13 5z" />
    <glyph glyph-name="afii10085" unicode="&#x443;" horiz-adv-x="565" 
d="M560 437l-170 -463q-35 -94 -95 -147q-86 -74 -223 -65q-14 0 -14 14v125q0 13 15 13q3 0 14.5 -1t21.5 -1q41 0 66 14q25 15 41 40l-211 471q-4 7 -1 16t15 9h152q23 0 30 -20l98 -274l77 274q5 20 30 20h140q22 0 14 -25z" />
    <glyph glyph-name="afii10086" unicode="&#x444;" horiz-adv-x="786" 
d="M502 338q-18 0 -29 -3v-210q11 -3 29 -3q42 0 64 21q25 24 25 87t-25 87q-22 21 -64 21zM284 122q18 0 29 3v210q-10 3 -29 3q-42 0 -64 -21q-25 -24 -25 -87t25 -87q22 -21 64 -21zM473 602v-134q14 2 47 2q120 0 182 -78q50 -60 50 -162t-50 -162q-62 -78 -182 -78
q-33 0 -47 2v-142q0 -8 -5.5 -13t-12.5 -5h-124q-7 0 -12.5 5t-5.5 13v142q-14 -2 -47 -2q-120 0 -182 78q-50 60 -50 162t50 162q62 78 182 78q33 0 47 -2v134q0 8 5.5 13t12.5 5h124q7 0 12.5 -5t5.5 -13z" />
    <glyph glyph-name="afii10087" unicode="&#x445;" horiz-adv-x="562" 
d="M6 29l174 207l-164 197q-9 11 -5.5 20t17.5 9h157q19 0 30 -18l65 -97l69 97q11 18 30 18h151q14 0 17.5 -9t-5.5 -20l-165 -186l179 -218q9 -11 5.5 -20t-17.5 -9h-153q-18 0 -31 17l-80 106l-79 -106q-14 -17 -31 -17h-152q-14 0 -17.5 9t5.5 20z" />
    <glyph glyph-name="afii10088" unicode="&#x446;" horiz-adv-x="700" 
d="M61 18v426q0 8 5.5 13t12.5 5h125q8 0 13 -5t5 -13v-301h146v301q0 8 5 13t13 5h125q7 0 12.5 -5t5.5 -13v-301h137q8 0 13 -5.5t5 -12.5v-276q0 -7 -5 -12.5t-13 -5.5h-123q-7 0 -12.5 5.5t-5.5 12.5v151h-446q-7 0 -12.5 5t-5.5 13z" />
    <glyph glyph-name="afii10089" unicode="&#x447;" horiz-adv-x="582" 
d="M521 444v-426q0 -8 -5.5 -13t-12.5 -5h-126q-7 0 -12.5 5t-5.5 13v112q-48 -12 -93 -12q-108 0 -161 46q-55 49 -55 155v125q0 8 5 13t13 5h126q8 0 13 -5t5 -13v-125q0 -37 18 -53q15 -15 53 -15q28 0 76 12v181q0 8 5.5 13t12.5 5h126q7 0 12.5 -5t5.5 -13z" />
    <glyph glyph-name="afii10090" unicode="&#x448;" horiz-adv-x="878" 
d="M817 444v-426q0 -8 -5.5 -13t-12.5 -5h-720q-7 0 -12.5 5t-5.5 13v426q0 8 5.5 13t12.5 5h125q8 0 13 -5t5 -13v-301h137v301q0 8 5.5 13t12.5 5h125q8 0 13 -5t5 -13v-301h136v301q0 8 5 13t13 5h125q7 0 12.5 -5t5.5 -13z" />
    <glyph glyph-name="afii10091" unicode="&#x449;" horiz-adv-x="988" 
d="M813 0h-734q-7 0 -12.5 5t-5.5 13v426q0 8 5.5 13t12.5 5h125q8 0 13 -5t5 -13v-301h137v301q0 8 5.5 13t12.5 5h125q8 0 13 -5t5 -13v-301h136v301q0 8 5 13t13 5h125q7 0 12.5 -5t5.5 -13v-301h137q8 0 13 -5.5t5 -12.5v-276q0 -7 -5 -12.5t-13 -5.5h-123
q-7 0 -12.5 5.5t-5.5 12.5v151z" />
    <glyph glyph-name="afii10092" unicode="&#x44a;" horiz-adv-x="655" 
d="M450 0h-228q-8 0 -13 5t-5 13v302h-166q-8 0 -13 5t-5 13v106q0 8 5 13t13 5h310q8 0 13 -5t5 -13v-151h84q91 0 137 -52q34 -39 34 -96q0 -64 -42 -103q-45 -42 -129 -42zM462 145q0 13 -8 20q-13 11 -46 11h-42v-59h49q28 0 39 9q8 6 8 19z" />
    <glyph glyph-name="afii10093" unicode="&#x44b;" horiz-adv-x="758" 
d="M321 145q0 13 -8 20q-13 11 -46 11h-44v-59h51q28 0 39 9q8 6 8 19zM553 462h126q7 0 12.5 -5t5.5 -13v-426q0 -8 -5.5 -13t-12.5 -5h-126q-7 0 -12.5 5t-5.5 13v426q0 8 5.5 13t12.5 5zM223 444v-151h86q91 0 137 -52q34 -39 34 -96q0 -64 -42 -103q-45 -42 -129 -42
h-230q-7 0 -12.5 5t-5.5 13v426q0 8 5.5 13t12.5 5h126q7 0 12.5 -5t5.5 -13z" />
    <glyph glyph-name="afii10094" unicode="&#x44c;" horiz-adv-x="514" 
d="M223 444v-151h86q91 0 137 -52q34 -39 34 -96q0 -64 -42 -103q-45 -42 -129 -42h-230q-7 0 -12.5 5t-5.5 13v426q0 8 5.5 13t12.5 5h126q7 0 12.5 -5t5.5 -13zM321 145q0 13 -8 20q-13 11 -46 11h-44v-59h51q28 0 39 9q8 6 8 19z" />
    <glyph glyph-name="afii10095" unicode="&#x44d;" horiz-adv-x="484" 
d="M276 180h-175q-7 0 -12.5 5t-5.5 13v68q0 8 5.5 13t12.5 5h172q-13 24 -33 37q-26 18 -66 18q-39 0 -94 -31q-15 -9 -22 6l-41 86q-7 14 7 23q70 47 161 47q142 0 216 -93q49 -60 49 -146q0 -101 -59 -165q-70 -76 -202 -76q-92 0 -165 47q-14 9 -7 23l42 87q7 13 21 5
q49 -32 97 -32q39 0 65 17q24 16 34 43z" />
    <glyph glyph-name="afii10096" unicode="&#x44e;" horiz-adv-x="843" 
d="M61 444q0 8 5.5 13t12.5 5h126q7 0 12.5 -5t5.5 -13v-138h93q20 63 68 104q69 60 173 60t173 -60q79 -66 79 -180t-79 -180q-69 -60 -173 -60t-173 60q-52 44 -70 111h-91v-143q0 -8 -5.5 -13t-12.5 -5h-126q-7 0 -12.5 5t-5.5 13v426zM465 230q0 -50 29 -82
q25 -27 63 -27t63 27q29 32 29 82t-29 82q-25 27 -63 27t-63 -27q-29 -32 -29 -82z" />
    <glyph glyph-name="afii10097" unicode="&#x44f;" horiz-adv-x="491" 
d="M200 462h212q8 0 13 -5t5 -13v-426q0 -8 -5 -13t-13 -5h-120q-8 0 -13 5t-5 13v119h-39l-63 -122q-9 -15 -29 -15h-123q-25 0 -10 27l88 145q-32 18 -50 44q-25 34 -25 87q0 95 75 136q43 23 102 23zM274 332h-57q-19 0 -27 -8t-8 -24t8 -24q8 -9 28 -9h56v65z" />
    <glyph glyph-name="afii10071" unicode="&#x451;" horiz-adv-x="525" 
d="M204 285h136q-3 26 -16 41q-17 20 -50 20q-34 0 -51 -18q-14 -16 -19 -43zM301 115q52 0 99 28q17 10 26 -5l42 -78q6 -13 -7 -23q-28 -21 -76 -34t-97 -13q-116 0 -183 64q-71 66 -71 182q0 102 70 172q64 62 169 62q125 0 184 -83q48 -70 37 -181q-2 -18 -18 -18h-272
q7 -32 27 -50q25 -23 70 -23zM135 565q-38 0 -65 27.5t-27 65.5t27 65t65 27q39 0 66 -27t27 -65t-27 -65.5t-66 -27.5zM389 565q-38 0 -65 27.5t-27 65.5t27 65t65 27t65 -27t27 -65t-27 -65.5t-65 -27.5z" />
    <glyph glyph-name="afii10099" unicode="&#x452;" horiz-adv-x="588" 
d="M373 126v122q0 51 -16 71q-16 19 -46 19q-46 0 -69 -37q-19 -31 -19 -71v-212q0 -8 -5.5 -13t-12.5 -5h-126q-7 0 -12.5 5t-5.5 13v465h-60q-7 0 -12.5 5.5t-5.5 12.5v90q0 7 5.5 12.5t12.5 5.5h60v54q0 7 5.5 12.5t12.5 5.5h126q7 0 12.5 -5.5t5.5 -12.5v-54h100
q7 0 12.5 -5.5t5.5 -12.5v-90q0 -7 -5.5 -12.5t-12.5 -5.5h-100v-56q15 13 40 25q41 18 84 18q86 0 136 -46q52 -49 52 -141v-179q0 -200 -124 -271q-19 -11 -31 1l-80 83q-13 13 2 25q39 31 55 66t16 118z" />
    <glyph glyph-name="afii10100" unicode="&#x453;" horiz-adv-x="440" 
d="M204 0h-125q-7 0 -12.5 5t-5.5 13v426q0 8 5.5 13t12.5 5h318q7 0 12.5 -5t5.5 -13v-107q0 -7 -5.5 -12.5t-12.5 -5.5h-175v-301q0 -8 -5 -13t-13 -5zM230 765h110q17 0 17 -15q0 -4 -4 -12l-95 -152q-11 -18 -27 -18h-84q-16 0 -16 15q0 5 6 19l68 145q9 18 25 18z" />
    <glyph glyph-name="afii10101" unicode="&#x454;" horiz-adv-x="484" 
d="M383 180h-175q8 -25 34 -43q26 -17 65 -17q47 0 97 32q14 9 20 -5l43 -87q6 -14 -7 -23q-73 -47 -165 -47q-132 0 -202 76q-59 64 -59 165q0 86 49 146q74 93 216 93q90 0 161 -47q14 -9 7 -23l-42 -86q-7 -15 -21 -6q-55 31 -94 31q-40 0 -67 -18q-21 -14 -32 -37h172
q7 0 12.5 -5t5.5 -13v-68q0 -8 -5.5 -13t-12.5 -5z" />
    <glyph glyph-name="afii10102" unicode="&#x455;" horiz-adv-x="440" 
d="M202 107q20 0 31 7q12 6 12 20q0 17 -30 30q-15 6 -46 16.5t-49 18.5q-81 36 -81 128q0 66 47 104q50 40 140 40q91 0 160 -37q15 -8 7 -23l-42 -87q-6 -13 -21 -5q-53 28 -97 28q-16 0 -26 -5q-9 -6 -9 -15q0 -15 36 -30q2 -1 37.5 -13t56.5 -22q78 -37 78 -118
q0 -70 -60 -114q-56 -40 -141 -40q-101 0 -168 39q-15 7 -8 21l42 87q7 15 22 7q58 -37 109 -37z" />
    <glyph glyph-name="afii10103" unicode="&#x456;" horiz-adv-x="284" 
d="M61 444q0 8 5.5 13t12.5 5h126q7 0 12.5 -5t5.5 -13v-426q0 -8 -5.5 -13t-12.5 -5h-126q-7 0 -12.5 5t-5.5 13v426zM142 565q-38 0 -65 27t-27 65t27 65t65 27t65 -27t27 -65t-27 -65t-65 -27z" />
    <glyph glyph-name="afii10104" unicode="&#x457;" horiz-adv-x="284" 
d="M61 444q0 8 5.5 13t12.5 5h126q7 0 12.5 -5t5.5 -13v-426q0 -8 -5.5 -13t-12.5 -5h-126q-7 0 -12.5 5t-5.5 13v426zM15 565q-38 0 -65 27.5t-27 65.5t27 65t65 27q39 0 66 -27t27 -65t-27 -65.5t-66 -27.5zM269 565q-38 0 -65 27.5t-27 65.5t27 65t65 27t65 -27t27 -65
t-27 -65.5t-65 -27.5z" />
    <glyph glyph-name="afii10105" unicode="&#x458;" horiz-adv-x="284" 
d="M234 657q0 -38 -27 -65t-65 -27t-65 27t-27 65t27 65t65 27t65 -27t27 -65zM61 57v387q0 8 5.5 13t12.5 5h126q7 0 12.5 -5t5.5 -13v-409q0 -204 -121 -273q-19 -11 -35 7l-77 77q-16 15 -1 27q26 20 39.5 37t23 53.5t9.5 93.5z" />
    <glyph glyph-name="afii10106" unicode="&#x459;" horiz-adv-x="855" 
d="M404 319h-146q-7 -113 -22 -181q-18 -76 -52 -119q-15 -19 -43 -19h-102q-15 0 -19.5 9.5t5.5 28.5q37 65 53 125q19 77 19 222v59q0 8 5.5 13t12.5 5h433q8 0 13 -5t5 -13v-151h84q91 0 137 -52q34 -39 34 -96q0 -64 -42 -103q-45 -42 -129 -42h-228q-8 0 -13 5t-5 13
v301zM662 145q0 13 -8 20q-13 11 -46 11h-42v-59h49q28 0 39 9q8 6 8 19z" />
    <glyph glyph-name="afii10107" unicode="&#x45a;" horiz-adv-x="829" 
d="M541 444v-151h83q91 0 137 -52q34 -39 34 -96q0 -64 -42 -103q-45 -42 -129 -42h-227q-7 0 -12.5 5t-5.5 13v158h-156v-158q0 -8 -5.5 -13t-12.5 -5h-126q-7 0 -12.5 5t-5.5 13v426q0 8 5.5 13t12.5 5h126q7 0 12.5 -5t5.5 -13v-151h156v151q0 8 5.5 13t12.5 5h126
q7 0 12.5 -5t5.5 -13zM636 145q0 13 -8 20q-13 11 -46 11h-41v-59h48q28 0 39 9q8 6 8 19z" />
    <glyph glyph-name="afii10108" unicode="&#x45b;" horiz-adv-x="588" 
d="M311 338q-47 0 -69 -37q-19 -29 -19 -71v-212q0 -8 -5.5 -13t-12.5 -5h-126q-7 0 -12.5 5t-5.5 13v465h-60q-7 0 -12.5 5.5t-5.5 12.5v90q0 7 5.5 12.5t12.5 5.5h60v54q0 7 5.5 12.5t12.5 5.5h126q7 0 12.5 -5.5t5.5 -12.5v-54h100q7 0 12.5 -5.5t5.5 -12.5v-90
q0 -7 -5.5 -12.5t-12.5 -5.5h-100v-56q15 13 40 25q41 18 84 18q86 0 136 -46q52 -49 52 -141v-265q0 -8 -5.5 -13t-12.5 -5h-126q-7 0 -12.5 5t-5.5 13v230q0 51 -16 71q-16 19 -46 19z" />
    <glyph glyph-name="afii10109" unicode="&#x45c;" horiz-adv-x="572" 
d="M396 462h145q13 0 16 -9.5t-8 -22.5l-153 -189l161 -209q11 -12 8 -22t-16 -10h-150q-22 0 -34 18l-106 145h-37v-145q0 -8 -5 -13t-13 -5h-125q-7 0 -12.5 5t-5.5 13v426q0 8 5.5 13t12.5 5h125q8 0 13 -5t5 -13v-140h39l101 140q12 18 34 18zM308 765h110q17 0 17 -15
q0 -4 -4 -12l-95 -152q-11 -18 -27 -18h-84q-16 0 -16 15q0 5 6 19l68 145q9 18 25 18z" />
    <glyph glyph-name="afii10110" unicode="&#x45e;" horiz-adv-x="565" 
d="M286 678q53 0 63 51q3 18 20 18h58q21 0 21 -19q0 -68 -42.5 -116t-119.5 -48t-119.5 48t-42.5 116q0 19 21 19h58q17 0 20 -18q10 -51 63 -51zM560 437l-170 -463q-35 -94 -95 -147q-86 -74 -223 -65q-14 0 -14 14v125q0 13 15 13q3 0 14.5 -1t21.5 -1q41 0 66 14
q25 15 41 40l-211 471q-4 7 -1 16t15 9h152q23 0 30 -20l98 -274l77 274q5 20 30 20h140q22 0 14 -25z" />
    <glyph glyph-name="afii10193" unicode="&#x45f;" horiz-adv-x="591" 
d="M387 462h125q8 0 13 -5t5 -13v-426q0 -8 -5 -13t-13 -5h-136v-151q0 -7 -5 -12.5t-13 -5.5h-124q-8 0 -13 5.5t-5 12.5v151h-137q-7 0 -12.5 5t-5.5 13v426q0 8 5.5 13t12.5 5h126q7 0 12.5 -5t5.5 -13v-301h146v301q0 8 5.5 13t12.5 5z" />
    <glyph glyph-name="afii10050" unicode="&#x490;" horiz-adv-x="547" 
d="M385 862h118q7 0 12.5 -5t5.5 -13v-301q0 -7 -5.5 -12.5t-12.5 -5.5h-263v-507q0 -8 -5 -13t-13 -5h-140q-8 0 -13 5t-5 13v645q0 7 5 12.5t13 5.5h285v163q0 8 5.5 13t12.5 5z" />
    <glyph glyph-name="afii10098" unicode="&#x491;" horiz-adv-x="440" 
d="M270 614q0 8 5 13t13 5h118q8 0 13 -5t5 -13v-277q0 -7 -5 -12.5t-13 -5.5h-184v-301q0 -8 -5 -13t-13 -5h-125q-7 0 -12.5 5t-5.5 13v426q0 8 5.5 13t12.5 5h191v152z" />
    <glyph glyph-name="endash" unicode="&#x2013;" horiz-adv-x="730" 
d="M617 173h-504q-7 0 -12.5 5.5t-5.5 12.5v122q0 7 5.5 12.5t12.5 5.5h504q7 0 12.5 -5.5t5.5 -12.5v-122q0 -7 -5.5 -12.5t-12.5 -5.5z" />
    <glyph glyph-name="emdash" unicode="&#x2014;" horiz-adv-x="1290" 
d="M1177 173h-1064q-7 0 -12.5 5.5t-5.5 12.5v122q0 7 5.5 12.5t12.5 5.5h1064q7 0 12.5 -5.5t5.5 -12.5v-122q0 -7 -5.5 -12.5t-12.5 -5.5z" />
    <glyph glyph-name="quoteleft" unicode="&#x2018;" horiz-adv-x="315" 
d="M50 486q-2 67 48.5 128.5t119.5 79.5q18 5 25 -8l17 -25q9 -15 -5 -24q-46 -31 -57 -50q-7 -13 -7 -25q0 -15 11.5 -26.5t25.5 -18.5t25.5 -25.5t11.5 -46.5q0 -41 -27.5 -66.5t-71.5 -25.5q-56 0 -85 35t-31 98z" />
    <glyph glyph-name="quoteright" unicode="&#x2019;" horiz-adv-x="315" 
d="M265 558q1 -68 -49.5 -129t-118.5 -79q-18 -4 -26 7l-16 25q-10 15 5 25q46 31 57 50q7 13 7 25q0 15 -11.5 26.5t-25.5 18.5t-25.5 25.5t-11.5 46.5q0 41 27 66.5t72 25.5q56 0 85 -35t31 -98z" />
    <glyph glyph-name="quotesinglbase" unicode="&#x201a;" horiz-adv-x="311" 
d="M261 42q1 -68 -49.5 -129t-118.5 -79q-18 -4 -26 7l-16 25q-10 15 5 25q46 31 57 50q7 13 7 25q0 15 -11.5 26.5t-25.5 18.5t-25.5 25.5t-11.5 46.5q0 41 27 66.5t72 25.5q56 0 85 -35t31 -98z" />
    <glyph glyph-name="quotedblleft" unicode="&#x201c;" horiz-adv-x="575" 
d="M310 486q-2 67 48.5 128.5t119.5 79.5q18 5 25 -8l17 -25q9 -15 -5 -24q-46 -31 -57 -50q-7 -13 -7 -25q0 -15 11.5 -26.5t25.5 -18.5t25.5 -25.5t11.5 -46.5q0 -41 -27.5 -66.5t-71.5 -25.5q-56 0 -85 35t-31 98zM50 486q-2 67 48.5 128.5t119.5 79.5q18 5 25 -8l17 -25
q9 -15 -5 -24q-46 -31 -57 -50q-7 -13 -7 -25q0 -15 11.5 -26.5t25.5 -18.5t25.5 -25.5t11.5 -46.5q0 -41 -27.5 -66.5t-71.5 -25.5q-56 0 -85 35t-31 98z" />
    <glyph glyph-name="quotedblright" unicode="&#x201d;" horiz-adv-x="575" 
d="M265 558q1 -68 -49.5 -129t-118.5 -79q-18 -4 -26 7l-16 25q-10 15 5 25q46 31 57 50q7 13 7 25q0 15 -11.5 26.5t-25.5 18.5t-25.5 25.5t-11.5 46.5q0 41 27 66.5t72 25.5q56 0 85 -35t31 -98zM525 558q1 -68 -49.5 -129t-118.5 -79q-18 -4 -26 7l-16 25q-10 15 5 25
q46 31 57 50q7 13 7 25q0 15 -11.5 26.5t-25.5 18.5t-25.5 25.5t-11.5 46.5q0 41 27 66.5t72 25.5q56 0 85 -35t31 -98z" />
    <glyph glyph-name="quotedblbase" unicode="&#x201e;" horiz-adv-x="571" 
d="M261 42q1 -68 -49.5 -129t-118.5 -79q-18 -4 -26 7l-16 25q-10 15 5 25q46 31 57 50q7 13 7 25q0 15 -11.5 26.5t-25.5 18.5t-25.5 25.5t-11.5 46.5q0 41 27 66.5t72 25.5q56 0 85 -35t31 -98zM521 42q1 -68 -49.5 -129t-118.5 -79q-18 -4 -26 7l-16 25q-10 15 5 25
q46 31 57 50q7 13 7 25q0 15 -11.5 26.5t-25.5 18.5t-25.5 25.5t-11.5 46.5q0 41 27 66.5t72 25.5q56 0 85 -35t31 -98z" />
    <glyph glyph-name="dagger" unicode="&#x2020;" horiz-adv-x="521" 
d="M261 -229q-34 0 -58 24t-24 58q0 5 32 486q-103 -24 -116 -24q-31 0 -54 22.5t-23 54.5t22.5 54.5t54.5 22.5q13 0 115 -24q-25 164 -25 170q0 32 22 54t54 22t54 -22t22 -54q0 -6 -25 -170q102 24 115 24q32 0 54.5 -22.5t22.5 -54.5t-23 -54.5t-54 -22.5q-13 0 -116 24
q32 -481 32 -486q0 -34 -24 -58t-58 -24z" />
    <glyph glyph-name="daggerdbl" unicode="&#x2021;" horiz-adv-x="520" 
d="M183 231l28 108q-103 -24 -116 -24q-31 0 -54 22.5t-23 54.5t22.5 54.5t54.5 22.5q13 0 115 -24q-25 164 -25 170q0 32 22 54t54 22t54 -22t22 -54q0 -6 -25 -170q102 24 115 24q32 0 54.5 -22.5t22.5 -54.5t-23 -54.5t-54 -22.5q-13 0 -116 24l28 -108l-28 -108
q103 24 116 24q31 0 54 -22.5t23 -54.5t-22.5 -54.5t-54.5 -22.5q-13 0 -115 24q25 -164 25 -170q0 -32 -22 -54t-54 -22t-54 22t-22 54q0 6 25 170q-102 -24 -115 -24q-32 0 -54.5 22.5t-22.5 54.5t23 54.5t54 22.5q13 0 116 -24z" />
    <glyph glyph-name="bullet" unicode="&#x2022;" horiz-adv-x="510" 
d="M53 341q0 83 59.5 142.5t142.5 59.5t142.5 -59.5t59.5 -142.5t-59.5 -142.5t-142.5 -59.5t-142.5 59.5t-59.5 142.5z" />
    <glyph glyph-name="ellipsis" unicode="&#x2026;" horiz-adv-x="1041" 
d="M992 87q0 -40 -28 -68t-68 -28t-68 28t-28 68t28 68t68 28t68 -28t28 -68zM615 87q0 -40 -28 -68t-68 -28t-68 28t-28 68t28 68t68 28t68 -28t28 -68zM238 87q0 -40 -28 -68t-68 -28t-68 28t-28 68t28 68t68 28t68 -28t28 -68z" />
    <glyph glyph-name="perthousand" unicode="&#x2030;" horiz-adv-x="1094" 
d="M247 538q0 28 -20 47.5t-49 19.5q-28 0 -47.5 -19.5t-19.5 -47.5t19.5 -47.5t47.5 -19.5q29 0 49 19.5t20 47.5zM331 538q0 -63 -45.5 -108t-107.5 -45q-63 0 -108 44.5t-45 108.5q0 63 45 108t108 45q62 0 107.5 -45t45.5 -108zM488 143q0 -28 20 -47.5t48 -19.5
t48 19.5t20 47.5t-20 47.5t-48 19.5t-48 -19.5t-20 -47.5zM403 143q0 63 45.5 108t107.5 45q63 0 108 -44.5t45 -108.5q0 -63 -45 -108t-108 -45q-62 0 -107.5 45t-45.5 108zM848 143q0 -28 20 -47.5t48 -19.5t48 19.5t20 47.5t-20 47.5t-48 19.5t-48 -19.5t-20 -47.5z
M763 143q0 63 45.5 108t107.5 45q63 0 108 -44.5t45 -108.5q0 -63 -45 -108t-108 -45q-62 0 -107.5 45t-45.5 108zM542 681h69q13 0 18 -9t-1 -18l-409 -636q-11 -18 -27 -18h-69q-13 0 -18 8.5t1 18.5l409 636q11 18 27 18z" />
    <glyph glyph-name="guilsinglleft" unicode="&#x2039;" horiz-adv-x="392" 
d="M20 231q0 10 14 27l156 185q16 19 38 19h121q17 0 21 -11t-7 -25l-157 -195l157 -195q11 -15 7 -25.5t-21 -10.5h-121q-22 0 -38 19l-156 185q-14 16 -14 27z" />
    <glyph glyph-name="guilsinglright" unicode="&#x203a;" horiz-adv-x="392" 
d="M372 231q0 -9 -14 -27l-156 -185q-16 -19 -39 -19h-120q-17 0 -21.5 10.5t7.5 25.5l157 195l-157 195q-12 14 -7.5 25t21.5 11h120q23 0 39 -19l156 -185q14 -19 14 -27z" />
    <glyph glyph-name="fraction" unicode="&#x2044;" horiz-adv-x="427" 
d="M469 654l-325 -636q-9 -18 -27 -18h-139q-13 0 -18 8.5t1 18.5l325 636q9 18 27 18h139q13 0 18 -8.5t-1 -18.5z" />
    <glyph glyph-name="Euro" unicode="&#x20ac;" 
d="M-1 452h60q30 89 104 152q101 87 239 87q116 0 200 -44q6 -3 8 -10t-1 -13l-56 -120q-6 -14 -21 -7q-70 35 -134 35q-46 0 -86 -24q-35 -21 -60 -56h233q7 0 12.5 -5t5.5 -13v-52q0 -8 -5.5 -13t-12.5 -5h-263q-1 -8 -1 -23q0 -18 1 -27h213q7 0 12.5 -5t5.5 -13v-52
q0 -8 -5.5 -13t-12.5 -5h-181q20 -30 50 -50q41 -26 95 -26q73 0 140 36q15 7 21 -7l55 -120q3 -6 1 -13t-8 -10q-92 -46 -207 -46q-125 0 -213 56q-99 62 -132 180h-57q-7 0 -12.5 5t-5.5 13v52q0 8 5.5 13t12.5 5h43q-1 9 -1 27q0 15 1 23h-43q-7 0 -12.5 5t-5.5 13v52
q0 8 5.5 13t12.5 5z" />
    <glyph glyph-name="afii61352" unicode="&#x2116;" horiz-adv-x="1316" 
d="M662 0h-122q-18 0 -32 18l-276 369v-369q0 -8 -5 -13t-13 -5h-132q-8 0 -13 5t-5 13v645q0 7 5 12.5t13 5.5h123q18 0 32 -18l275 -369v369q0 7 5 12.5t13 5.5h132q8 0 13 -5.5t5 -12.5v-645q0 -8 -5 -13t-13 -5zM938 450q0 -50 29 -82q25 -27 63 -27t63 27q29 32 29 82
t-29 82q-25 27 -63 27t-63 -27q-29 -32 -29 -82zM778 450q0 114 79 180q69 60 173 60t173 -60q79 -66 79 -180t-79 -180q-69 -60 -173 -60t-173 60q-79 66 -79 180zM806 143h448q8 0 13 -5.5t5 -12.5v-107q0 -8 -5 -13t-13 -5h-448q-8 0 -13 5t-5 13v107q0 7 5 12.5t13 5.5z
" />
    <glyph glyph-name="trademark" unicode="&#x2122;" horiz-adv-x="848" 
d="M53 713h278q7 0 12.5 -5.5t5.5 -12.5v-53q0 -8 -5.5 -13t-12.5 -5h-90v-251q0 -7 -5.5 -12.5t-12.5 -5.5h-61q-8 0 -13 5.5t-5 12.5v251h-91q-7 0 -12.5 5t-5.5 13v53q0 7 5.5 12.5t12.5 5.5zM579 554l81 141q10 18 32 18h54q8 0 13 -5.5t5 -12.5v-322q0 -7 -5 -12.5
t-13 -5.5h-59q-7 0 -12.5 5.5t-5.5 12.5v165l-51 -89q-10 -18 -28 -18h-24q-18 0 -28 18l-50 89v-165q0 -7 -5 -12.5t-13 -5.5h-58q-8 0 -13 5.5t-5 12.5v322q0 7 5 12.5t13 5.5h53q21 0 32 -18z" />
    <glyph glyph-name="Omega" unicode="&#x2126;" horiz-adv-x="745" 
d="M373 690q146 0 229.5 -76.5t83.5 -216.5q0 -90 -40 -168q-29 -56 -69 -93h86q7 0 12.5 -5t5.5 -13v-100q0 -8 -5.5 -13t-12.5 -5h-223q-8 0 -13 5t-5 13v80q0 17 22.5 55t35.5 77q20 60 20 135q0 78 -33 122t-94 44t-94 -44t-33 -122q0 -79 20 -135q13 -39 35.5 -77
t22.5 -55v-80q0 -8 -5 -13t-13 -5h-223q-7 0 -12.5 5t-5.5 13v100q0 8 5.5 13t12.5 5h86q-40 37 -69 93q-40 78 -40 168q0 140 83.5 216.5t229.5 76.5z" />
    <glyph glyph-name="partialdiff" unicode="&#x2202;" horiz-adv-x="522" 
d="M488 227q0 -105 -59 -169q-62 -68 -171 -68q-96 0 -158 56q-66 60 -66 164q0 98 67 155q59 51 144 51q16 0 31 -3q-19 27 -54 64q-30 30 -132 111q-14 11 -1 24l79 82q13 13 30 1q110 -81 175 -162q115 -144 115 -306zM337 227q0 25 -5 53q-26 12 -61 12q-37 0 -63 -24
q-24 -24 -24 -58q0 -38 18 -59q20 -25 59 -25q40 0 60 30q16 26 16 71z" />
    <glyph glyph-name="Delta" unicode="&#x2206;" horiz-adv-x="642" 
d="M321 431l-94 -278h189zM589 0h-536q-7 0 -12.5 5t-5.5 13v60q0 15 4 27l190 560q6 16 24 16h136q18 0 24 -16l190 -560q4 -12 4 -27v-60q0 -8 -5.5 -13t-12.5 -5z" />
    <glyph glyph-name="product" unicode="&#x220f;" horiz-adv-x="714" 
d="M632 -171h-140q-8 0 -13 5.5t-5 12.5v678h-234v-678q0 -7 -5 -12.5t-13 -5.5h-140q-8 0 -13 5.5t-5 12.5v816q0 7 5 12.5t13 5.5h550q8 0 13 -5.5t5 -12.5v-816q0 -7 -5 -12.5t-13 -5.5z" />
    <glyph glyph-name="summation" unicode="&#x2211;" horiz-adv-x="561" 
d="M498 0h-436q-8 0 -13 5t-5 13v84q0 16 15 31l205 207l-205 206q-15 15 -15 32v85q0 7 5 12.5t13 5.5h436q8 0 13 -5.5t5 -12.5v-117q0 -8 -5 -13t-13 -5h-208l130 -132q14 -14 14 -34v-43q0 -20 -14 -34l-130 -132h208q8 0 13 -5.5t5 -12.5v-117q0 -8 -5 -13t-13 -5z" />
    <glyph glyph-name="minus" unicode="&#x2212;" horiz-adv-x="544" 
d="M481 277h-418q-7 0 -12.5 5.5t-5.5 12.5v116q0 7 5.5 12.5t12.5 5.5h418q7 0 12.5 -5.5t5.5 -12.5v-116q0 -7 -5.5 -12.5t-12.5 -5.5z" />
    <glyph glyph-name="radical" unicode="&#x221a;" horiz-adv-x="754" 
d="M751 686l-367 -685q-9 -18 -27 -18h-82q-14 0 -24 16l-79 135h-109q-7 0 -12.5 5t-5.5 13v123q0 7 5.5 12.5t12.5 5.5h175q22 0 33 -18l42 -72l263 495q9 18 27 18h132q13 0 17.5 -10t-1.5 -20z" />
    <glyph glyph-name="infinity" unicode="&#x221e;" horiz-adv-x="773" 
d="M605 269q0 34 -19 56t-54 22q-51 0 -80 -78q29 -77 80 -77q33 0 53 21t20 56zM386 146q-61 -81 -150 -81q-90 0 -145.5 54.5t-55.5 149.5q0 92 53 148.5t148 56.5q85 0 150 -81q64 81 151 81q92 0 146.5 -55.5t54.5 -149.5q0 -92 -53.5 -148t-147.5 -56q-89 0 -151 81z
M167 269q0 -33 19.5 -55t53.5 -22q51 0 80 77q-29 78 -80 78q-34 0 -53.5 -21.5t-19.5 -56.5z" />
    <glyph glyph-name="integral" unicode="&#x222b;" horiz-adv-x="516" 
d="M460 520h-70q-43 0 -43 -44v-449q0 -93 -53.5 -147t-146.5 -54h-92q-7 0 -12.5 5t-5.5 13v121q0 7 5.5 12.5t12.5 5.5h72q43 0 43 44v449q0 93 53.5 147t145.5 54h91q8 0 13 -5.5t5 -12.5v-121q0 -8 -5 -13t-13 -5z" />
    <glyph glyph-name="approxequal" unicode="&#x2248;" horiz-adv-x="550" 
d="M371 379q-42 0 -99 24t-91 24q-58 0 -119 -39q-8 -7 -17.5 -3t-9.5 19v83q0 21 15 33q58 46 126 46q41 0 105.5 -24t97.5 -24q48 0 109 39q8 7 17.5 3t9.5 -19v-83q0 -21 -15 -33q-58 -46 -129 -46zM371 133q-42 0 -99 24t-91 24q-58 0 -119 -39q-8 -7 -17.5 -3t-9.5 19
v83q0 21 15 33q58 46 126 46q41 0 105.5 -24t97.5 -24q48 0 109 39q8 7 17.5 3t9.5 -19v-83q0 -21 -15 -33q-58 -46 -129 -46z" />
    <glyph glyph-name="notequal" unicode="&#x2260;" horiz-adv-x="585" 
d="M63 314h138l34 76h-172q-7 0 -12.5 5t-5.5 13v116q0 8 5.5 13t12.5 5h240l39 87q7 18 27 18h77q13 0 17.5 -8.5t-0.5 -18.5l-35 -78h94q8 0 13 -5t5 -13v-116q0 -8 -5 -13t-13 -5h-162l-34 -76h196q8 0 13 -5t5 -13v-116q0 -8 -5 -13t-13 -5h-264l-36 -81q-9 -18 -27 -18
h-77q-13 0 -17.5 8.5t0.5 18.5l32 72h-70q-7 0 -12.5 5t-5.5 13v116q0 8 5.5 13t12.5 5z" />
    <glyph glyph-name="lessequal" unicode="&#x2264;" horiz-adv-x="584" 
d="M71 152h442q7 0 12.5 -5t5.5 -13v-116q0 -8 -5.5 -13t-12.5 -5h-442q-7 0 -12.5 5t-5.5 13v116q0 8 5.5 13t12.5 5zM53 401v78q0 21 18 28l435 186q8 5 16.5 1.5t8.5 -15.5v-119q0 -23 -20 -30l-248 -90l248 -90q20 -8 20 -30v-119q0 -12 -8.5 -15.5t-16.5 1.5l-435 186
q-18 7 -18 28z" />
    <glyph glyph-name="greaterequal" unicode="&#x2265;" horiz-adv-x="584" 
d="M71 152h442q7 0 12.5 -5t5.5 -13v-116q0 -8 -5.5 -13t-12.5 -5h-442q-7 0 -12.5 5t-5.5 13v116q0 8 5.5 13t12.5 5zM531 479v-78q0 -20 -18 -28l-435 -186q-8 -5 -16.5 -1.5t-8.5 15.5v119q0 22 20 30l248 90l-248 90q-20 6 -20 30v119q0 12 8.5 15.5t16.5 -1.5l435 -186
q18 -8 18 -28z" />
    <glyph glyph-name="lozenge" unicode="&#x25ca;" horiz-adv-x="639" 
d="M48 318v45q0 19 13 36l202 266q12 16 26 16h61q14 0 26 -16l202 -266q13 -17 13 -36v-45q0 -19 -13 -36l-202 -266q-12 -16 -26 -16h-61q-14 0 -26 16l-202 266q-13 17 -13 36zM431 340l-112 153l-111 -153l112 -153z" />
    <glyph glyph-name="A.2" unicode="&#xe000;" horiz-adv-x="695" 
d="M347 526q-44 0 -73 -25q-35 -33 -35 -98v-65h217v65q0 65 -35 98q-28 25 -74 25zM632 411v-393q0 -8 -5 -13t-13 -5h-140q-8 0 -13 5t-5 13v164h-217v-164q0 -8 -5.5 -13t-12.5 -5h-140q-7 0 -12.5 5t-5.5 13v393q0 65 27.5 125t80.5 100q72 54 176 54q105 0 177 -54
q53 -40 80.5 -100t27.5 -125z" />
    <glyph glyph-name="A.3" unicode="&#xe001;" horiz-adv-x="668" 
d="M323 536q-81 0 -182 -52q-20 -10 -26 5l-51 112q-7 14 7 23q43 27 114 46.5t153 19.5q141 0 209 -77q59 -67 59 -187v-408q0 -8 -5 -13t-13 -5h-127q-7 0 -12.5 5t-5.5 13v22h-6q-39 -27 -76.5 -38.5t-105.5 -11.5q-83 0 -141 47q-72 57 -72 153q0 108 95 166
q98 58 293 66v4q0 56 -27 83t-80 27zM232 198q0 -32 25 -48q25 -14 64 -14q57 0 109 41v109q-93 -5 -138 -23q-60 -24 -60 -65z" />
    <glyph glyph-name="A.calt" unicode="&#xe002;" horiz-adv-x="648" 
d="M218 123l-31 -103q-6 -20 -30 -20h-138q-16 0 -16 14q0 3 2 11l219 641q6 18 28 18h148q22 0 28 -18l215 -641q2 -8 2 -11q0 -14 -16 -14h-142q-24 0 -30 20l-30 103h-209zM385 264l-61 207l-63 -207h124z" />
    <glyph glyph-name="AE.3" unicode="&#xe003;" horiz-adv-x="1129" 
d="M323 536q-43 0 -95 -16t-87 -36q-19 -10 -26 5l-51 112q-7 15 7 23q128 66 267 66q140 0 208 -77q92 77 224 77q149 0 235 -86q55 -55 73.5 -129t12.5 -182q-2 -18 -18 -18h-446q18 -59 60 -90q47 -36 115 -36q97 0 183 51q19 11 26 -5l53 -116q7 -15 -7 -23
q-63 -33 -119.5 -49.5t-138.5 -16.5q-172 0 -268 91q-113 -91 -269 -91q-92 0 -156 55t-64 145q0 125 127 182q90 42 261 50q-1 58 -28 86t-79 28zM321 136q68 0 136 57q-14 35 -22 82q-100 0 -152 -19q-51 -20 -51 -58q0 -62 89 -62zM629 426h274q-6 41 -33 68
q-33 33 -98 33q-64 0 -106 -40q-26 -26 -37 -61z" />
    <glyph glyph-name="AE.calt" unicode="&#xe004;" horiz-adv-x="1032" 
d="M288 123l-79 -103q-16 -20 -39 -20h-160q-12 0 -15.5 9.5t5.5 21.5l498 632q14 18 36 18h441q7 0 12.5 -5.5t5.5 -12.5v-120q0 -7 -5.5 -12.5t-12.5 -5.5h-282v-104h229q8 0 13 -5.5t5 -12.5v-120q0 -7 -5 -12.5t-13 -5.5h-229v-109h282q7 0 12.5 -5t5.5 -13v-120
q0 -8 -5.5 -13t-12.5 -5h-437q-21 0 -21 20v103h-229zM396 264h121v160z" />
    <glyph glyph-name="AEsmall.3" unicode="&#xe005;" horiz-adv-x="907" 
d="M616 552q120 0 190 -70q82 -83 69 -251q-2 -18 -18 -18h-329q13 -32 34 -50q30 -26 80 -26q80 0 140 35q19 11 26 -5l45 -98q7 -15 -7 -23q-97 -54 -208 -54q-135 0 -213 73q-77 -73 -207 -73q-68 0 -116 39q-57 47 -57 127q0 102 95 148q69 34 205 38v4q0 29 -16 44
q-17 17 -52 17q-55 0 -137 -42q-20 -10 -26 5l-46 100q-7 14 7 23q92 57 216 57q56 0 97 -16q34 -12 61 -37q25 20 62 34q49 19 105 19zM263 130q51 0 101 31q-10 27 -14 52q-61 -2 -97 -12q-42 -12 -42 -37q0 -19 16 -27q13 -7 36 -7zM529 340h176q-5 31 -26 48
q-23 18 -60 18q-35 0 -60 -21q-22 -18 -30 -45z" />
    <glyph glyph-name="Aacute.2" unicode="&#xe006;" horiz-adv-x="695" 
d="M347 526q-44 0 -73 -25q-35 -33 -35 -98v-65h217v65q0 65 -35 98q-28 25 -74 25zM632 411v-393q0 -8 -5 -13t-13 -5h-140q-8 0 -13 5t-5 13v164h-217v-164q0 -8 -5.5 -13t-12.5 -5h-140q-7 0 -12.5 5t-5.5 13v393q0 65 27.5 125t80.5 100q72 54 176 54q105 0 177 -54
q53 -40 80.5 -100t27.5 -125zM340 969h110q17 0 17 -15q0 -4 -4 -12l-95 -152q-11 -18 -27 -18h-84q-16 0 -16 15q0 5 6 19l68 145q9 18 25 18z" />
    <glyph glyph-name="Aacute.3" unicode="&#xe007;" horiz-adv-x="668" 
d="M317 969h110q17 0 17 -15q0 -4 -4 -12l-95 -152q-11 -18 -27 -18h-84q-16 0 -16 15q0 5 6 19l68 145q9 18 25 18zM323 536q-81 0 -182 -52q-20 -10 -26 5l-51 112q-7 14 7 23q43 27 114 46.5t153 19.5q141 0 209 -77q59 -67 59 -187v-408q0 -8 -5 -13t-13 -5h-127
q-7 0 -12.5 5t-5.5 13v22h-6q-39 -27 -76.5 -38.5t-105.5 -11.5q-83 0 -141 47q-72 57 -72 153q0 108 95 166q98 58 293 66v4q0 56 -27 83t-80 27zM232 198q0 -32 25 -48q25 -14 64 -14q57 0 109 41v109q-93 -5 -138 -23q-60 -24 -60 -65z" />
    <glyph glyph-name="Aacute.calt" unicode="&#xe008;" horiz-adv-x="648" 
d="M303 969h110q17 0 17 -15q0 -4 -4 -12l-95 -152q-11 -18 -27 -18h-84q-16 0 -16 15q0 5 6 19l68 145q9 18 25 18zM218 123l-31 -103q-6 -20 -30 -20h-138q-16 0 -16 14q0 3 2 11l219 641q6 18 28 18h148q22 0 28 -18l215 -641q2 -8 2 -11q0 -14 -16 -14h-142
q-24 0 -30 20l-30 103h-209zM385 264l-61 207l-63 -207h124z" />
    <glyph glyph-name="Abreve.2" unicode="&#xe009;" horiz-adv-x="695" 
d="M347 526q-44 0 -73 -25q-35 -33 -35 -98v-65h217v65q0 65 -35 98q-28 25 -74 25zM632 411v-393q0 -8 -5 -13t-13 -5h-140q-8 0 -13 5t-5 13v164h-217v-164q0 -8 -5.5 -13t-12.5 -5h-140q-7 0 -12.5 5t-5.5 13v393q0 65 27.5 125t80.5 100q72 54 176 54q105 0 177 -54
q53 -40 80.5 -100t27.5 -125zM347 887q53 0 63 51q3 18 20 18h58q21 0 21 -19q0 -68 -42.5 -116t-119.5 -48t-119.5 48t-42.5 116q0 19 21 19h58q17 0 20 -18q10 -51 63 -51z" />
    <glyph glyph-name="Abreve.3" unicode="&#xe00a;" horiz-adv-x="668" 
d="M331 887q53 0 63 51q3 18 20 18h58q21 0 21 -19q0 -68 -42.5 -116t-119.5 -48t-119.5 48t-42.5 116q0 19 21 19h58q17 0 20 -18q10 -51 63 -51zM323 536q-81 0 -182 -52q-20 -10 -26 5l-51 112q-7 14 7 23q43 27 114 46.5t153 19.5q141 0 209 -77q59 -67 59 -187v-408
q0 -8 -5 -13t-13 -5h-127q-7 0 -12.5 5t-5.5 13v22h-6q-39 -27 -76.5 -38.5t-105.5 -11.5q-83 0 -141 47q-72 57 -72 153q0 108 95 166q98 58 293 66v4q0 56 -27 83t-80 27zM232 198q0 -32 25 -48q25 -14 64 -14q57 0 109 41v109q-93 -5 -138 -23q-60 -24 -60 -65z" />
    <glyph glyph-name="Abreve.calt" unicode="&#xe00b;" horiz-adv-x="648" 
d="M218 123l-31 -103q-6 -20 -30 -20h-138q-16 0 -16 14q0 3 2 11l219 641q6 18 28 18h148q22 0 28 -18l215 -641q2 -8 2 -11q0 -14 -16 -14h-142q-24 0 -30 20l-30 103h-209zM385 264l-61 207l-63 -207h124zM324 887q53 0 63 51q3 18 20 18h58q21 0 21 -19
q0 -68 -42.5 -116t-119.5 -48t-119.5 48t-42.5 116q0 19 21 19h58q17 0 20 -18q10 -51 63 -51z" />
    <glyph glyph-name="Acircumflex.2" unicode="&#xe00c;" horiz-adv-x="695" 
d="M347 526q-44 0 -73 -25q-35 -33 -35 -98v-65h217v65q0 65 -35 98q-28 25 -74 25zM632 411v-393q0 -8 -5 -13t-13 -5h-140q-8 0 -13 5t-5 13v164h-217v-164q0 -8 -5.5 -13t-12.5 -5h-140q-7 0 -12.5 5t-5.5 13v393q0 65 27.5 125t80.5 100q72 54 176 54q105 0 177 -54
q53 -40 80.5 -100t27.5 -125zM319 969h56q13 0 24 -13l138 -158q8 -10 5.5 -18t-13.5 -8h-102q-18 0 -32 17l-48 56l-48 -56q-14 -17 -32 -17h-102q-11 0 -13.5 8t5.5 18l138 158q11 13 24 13z" />
    <glyph glyph-name="Acircumflex.3" unicode="&#xe00d;" horiz-adv-x="668" 
d="M314 969h56q13 0 24 -13l138 -158q8 -10 5.5 -18t-13.5 -8h-102q-18 0 -32 17l-48 56l-48 -56q-14 -17 -32 -17h-102q-11 0 -13.5 8t5.5 18l138 158q11 13 24 13zM323 536q-81 0 -182 -52q-20 -10 -26 5l-51 112q-7 14 7 23q43 27 114 46.5t153 19.5q141 0 209 -77
q59 -67 59 -187v-408q0 -8 -5 -13t-13 -5h-127q-7 0 -12.5 5t-5.5 13v22h-6q-39 -27 -76.5 -38.5t-105.5 -11.5q-83 0 -141 47q-72 57 -72 153q0 108 95 166q98 58 293 66v4q0 56 -27 83t-80 27zM232 198q0 -32 25 -48q25 -14 64 -14q57 0 109 41v109q-93 -5 -138 -23
q-60 -24 -60 -65z" />
    <glyph glyph-name="Acircumflex.calt" unicode="&#xe00e;" horiz-adv-x="648" 
d="M281 969h56q13 0 24 -13l138 -158q8 -10 5.5 -18t-13.5 -8h-102q-18 0 -32 17l-48 56l-48 -56q-14 -17 -32 -17h-102q-11 0 -13.5 8t5.5 18l138 158q11 13 24 13zM218 123l-31 -103q-6 -20 -30 -20h-138q-16 0 -16 14q0 3 2 11l219 641q6 18 28 18h148q22 0 28 -18
l215 -641q2 -8 2 -11q0 -14 -16 -14h-142q-24 0 -30 20l-30 103h-209zM385 264l-61 207l-63 -207h124z" />
    <glyph glyph-name="Adieresis.2" unicode="&#xe00f;" horiz-adv-x="695" 
d="M347 526q-44 0 -73 -25q-35 -33 -35 -98v-65h217v65q0 65 -35 98q-28 25 -74 25zM632 411v-393q0 -8 -5 -13t-13 -5h-140q-8 0 -13 5t-5 13v164h-217v-164q0 -8 -5.5 -13t-12.5 -5h-140q-7 0 -12.5 5t-5.5 13v393q0 65 27.5 125t80.5 100q72 54 176 54q105 0 177 -54
q53 -40 80.5 -100t27.5 -125zM220 765q-38 0 -65 27.5t-27 65.5t27 65t65 27q39 0 66 -27t27 -65t-27 -65.5t-66 -27.5zM474 765q-38 0 -65 27.5t-27 65.5t27 65t65 27t65 -27t27 -65t-27 -65.5t-65 -27.5z" />
    <glyph glyph-name="Adieresis.3" unicode="&#xe010;" horiz-adv-x="668" 
d="M323 536q-81 0 -182 -52q-20 -10 -26 5l-51 112q-7 14 7 23q43 27 114 46.5t153 19.5q141 0 209 -77q59 -67 59 -187v-408q0 -8 -5 -13t-13 -5h-127q-7 0 -12.5 5t-5.5 13v22h-6q-39 -27 -76.5 -38.5t-105.5 -11.5q-83 0 -141 47q-72 57 -72 153q0 108 95 166
q98 58 293 66v4q0 56 -27 83t-80 27zM232 198q0 -32 25 -48q25 -14 64 -14q57 0 109 41v109q-93 -5 -138 -23q-60 -24 -60 -65zM212 765q-38 0 -65 27.5t-27 65.5t27 65t65 27q39 0 66 -27t27 -65t-27 -65.5t-66 -27.5zM466 765q-38 0 -65 27.5t-27 65.5t27 65t65 27t65 -27
t27 -65t-27 -65.5t-65 -27.5z" />
    <glyph glyph-name="Adieresis.calt" unicode="&#xe011;" horiz-adv-x="648" 
d="M218 123l-31 -103q-6 -20 -30 -20h-138q-16 0 -16 14q0 3 2 11l219 641q6 18 28 18h148q22 0 28 -18l215 -641q2 -8 2 -11q0 -14 -16 -14h-142q-24 0 -30 20l-30 103h-209zM385 264l-61 207l-63 -207h124zM197 765q-38 0 -65 27.5t-27 65.5t27 65t65 27q39 0 66 -27
t27 -65t-27 -65.5t-66 -27.5zM451 765q-38 0 -65 27.5t-27 65.5t27 65t65 27t65 -27t27 -65t-27 -65.5t-65 -27.5z" />
    <glyph glyph-name="Agrave.2" unicode="&#xe012;" horiz-adv-x="695" 
d="M347 526q-44 0 -73 -25q-35 -33 -35 -98v-65h217v65q0 65 -35 98q-28 25 -74 25zM632 411v-393q0 -8 -5 -13t-13 -5h-140q-8 0 -13 5t-5 13v164h-217v-164q0 -8 -5.5 -13t-12.5 -5h-140q-7 0 -12.5 5t-5.5 13v393q0 65 27.5 125t80.5 100q72 54 176 54q105 0 177 -54
q53 -40 80.5 -100t27.5 -125zM244 969h110q16 0 25 -18l68 -145q6 -14 6 -19q0 -15 -16 -15h-84q-16 0 -27 18l-95 152q-4 5 -4 12q0 15 17 15z" />
    <glyph glyph-name="Agrave.3" unicode="&#xe013;" horiz-adv-x="668" 
d="M226 969h110q16 0 25 -18l68 -145q6 -14 6 -19q0 -15 -16 -15h-84q-16 0 -27 18l-95 152q-4 5 -4 12q0 15 17 15zM323 536q-81 0 -182 -52q-20 -10 -26 5l-51 112q-7 14 7 23q43 27 114 46.5t153 19.5q141 0 209 -77q59 -67 59 -187v-408q0 -8 -5 -13t-13 -5h-127
q-7 0 -12.5 5t-5.5 13v22h-6q-39 -27 -76.5 -38.5t-105.5 -11.5q-83 0 -141 47q-72 57 -72 153q0 108 95 166q98 58 293 66v4q0 56 -27 83t-80 27zM232 198q0 -32 25 -48q25 -14 64 -14q57 0 109 41v109q-93 -5 -138 -23q-60 -24 -60 -65z" />
    <glyph glyph-name="Agrave.calt" unicode="&#xe014;" horiz-adv-x="648" 
d="M205 969h110q16 0 25 -18l68 -145q6 -14 6 -19q0 -15 -16 -15h-84q-16 0 -27 18l-95 152q-4 5 -4 12q0 15 17 15zM218 123l-31 -103q-6 -20 -30 -20h-138q-16 0 -16 14q0 3 2 11l219 641q6 18 28 18h148q22 0 28 -18l215 -641q2 -8 2 -11q0 -14 -16 -14h-142
q-24 0 -30 20l-30 103h-209zM385 264l-61 207l-63 -207h124z" />
    <glyph glyph-name="Amacron.2" unicode="&#xe015;" horiz-adv-x="695" 
d="M347 526q-44 0 -73 -25q-35 -33 -35 -98v-65h217v65q0 65 -35 98q-28 25 -74 25zM632 411v-393q0 -8 -5 -13t-13 -5h-140q-8 0 -13 5t-5 13v164h-217v-164q0 -8 -5.5 -13t-12.5 -5h-140q-7 0 -12.5 5t-5.5 13v393q0 65 27.5 125t80.5 100q72 54 176 54q105 0 177 -54
q53 -40 80.5 -100t27.5 -125zM225 931h244q7 0 12.5 -5.5t5.5 -12.5v-95q0 -8 -5.5 -13t-12.5 -5h-244q-7 0 -12.5 5t-5.5 13v95q0 7 5.5 12.5t12.5 5.5z" />
    <glyph glyph-name="Amacron.3" unicode="&#xe016;" horiz-adv-x="668" 
d="M323 536q-81 0 -182 -52q-20 -10 -26 5l-51 112q-7 14 7 23q43 27 114 46.5t153 19.5q141 0 209 -77q59 -67 59 -187v-408q0 -8 -5 -13t-13 -5h-127q-7 0 -12.5 5t-5.5 13v22h-6q-39 -27 -76.5 -38.5t-105.5 -11.5q-83 0 -141 47q-72 57 -72 153q0 108 95 166
q98 58 293 66v4q0 56 -27 83t-80 27zM232 198q0 -32 25 -48q25 -14 64 -14q57 0 109 41v109q-93 -5 -138 -23q-60 -24 -60 -65zM218 931h244q8 0 13 -5.5t5 -12.5v-95q0 -8 -5 -13t-13 -5h-244q-8 0 -13 5t-5 13v95q0 7 5 12.5t13 5.5z" />
    <glyph glyph-name="Amacron.calt" unicode="&#xe017;" horiz-adv-x="648" 
d="M218 123l-31 -103q-6 -20 -30 -20h-138q-16 0 -16 14q0 3 2 11l219 641q6 18 28 18h148q22 0 28 -18l215 -641q2 -8 2 -11q0 -14 -16 -14h-142q-24 0 -30 20l-30 103h-209zM385 264l-61 207l-63 -207h124zM202 931h244q8 0 13 -5.5t5 -12.5v-95q0 -8 -5 -13t-13 -5h-244
q-8 0 -13 5t-5 13v95q0 7 5 12.5t13 5.5z" />
    <glyph glyph-name="Aogonek.2" unicode="&#xe018;" horiz-adv-x="695" 
d="M632 411v-393q0 -8 -5 -13t-13 -5h-70q-54 -41 -54 -76q0 -32 39 -32q16 0 31.5 4t21.5 4q11 0 11 -12v-65q0 -12 -10 -17q-39 -18 -88 -18t-82 21t-33 69q0 69 80 128q-4 4 -4 12v164h-217v-164q0 -8 -5.5 -13t-12.5 -5h-140q-7 0 -12.5 5t-5.5 13v393q0 65 27.5 125
t80.5 100q72 54 176 54q105 0 177 -54q53 -40 80.5 -100t27.5 -125zM347 526q-44 0 -73 -25q-35 -33 -35 -98v-65h217v65q0 65 -35 98q-28 25 -74 25z" />
    <glyph glyph-name="Aogonek.3" unicode="&#xe019;" horiz-adv-x="668" 
d="M323 536q-81 0 -182 -52q-20 -10 -26 5l-51 112q-7 14 7 23q43 27 114 46.5t153 19.5q141 0 209 -77q59 -67 59 -187v-408q0 -8 -5 -13t-13 -5h-66q-54 -41 -54 -76q0 -32 39 -32q16 0 31.5 4t21.5 4q11 0 11 -12v-65q0 -12 -10 -17q-39 -18 -88 -18t-82 21t-33 69
q0 37 25 72.5t61 59.5q-1 2 -1 8v22h-6q-39 -27 -76.5 -38.5t-105.5 -11.5q-83 0 -141 47q-72 57 -72 153q0 108 95 166q98 58 293 66v4q0 56 -27 83t-80 27zM232 198q0 -32 25 -48q25 -14 64 -14q57 0 109 41v109q-93 -5 -138 -23q-60 -24 -60 -65z" />
    <glyph glyph-name="Aogonek.calt" unicode="&#xe01a;" horiz-adv-x="648" 
d="M218 123l-31 -103q-6 -20 -30 -20h-138q-16 0 -16 14q0 3 2 11l219 641q6 18 28 18h148q22 0 28 -18l215 -641q2 -8 2 -11q0 -14 -16 -14h-85q-54 -41 -54 -76q0 -32 39 -32q16 0 31.5 4t21.5 4q11 0 11 -12v-65q0 -12 -10 -17q-39 -18 -88 -18t-82 21t-33 69q0 36 24 71
t59 59q-5 4 -6 12l-30 103h-209zM385 264l-61 207l-63 -207h124z" />
    <glyph glyph-name="Aring.2" unicode="&#xe01b;" horiz-adv-x="695" 
d="M347 526q-44 0 -73 -25q-35 -33 -35 -98v-65h217v65q0 65 -35 98q-28 25 -74 25zM632 411v-393q0 -8 -5 -13t-13 -5h-140q-8 0 -13 5t-5 13v164h-217v-164q0 -8 -5.5 -13t-12.5 -5h-140q-7 0 -12.5 5t-5.5 13v393q0 65 27.5 125t80.5 100q72 54 176 54q105 0 177 -54
q53 -40 80.5 -100t27.5 -125zM472 856q0 -51 -36.5 -87t-87.5 -36q-52 0 -88.5 36t-36.5 87q0 52 36.5 88.5t88.5 36.5q51 0 87.5 -36.5t36.5 -88.5zM403 856q0 24 -16 40.5t-39 16.5t-39 -16.5t-16 -40.5q0 -23 16 -39t39 -16q22 0 38.5 16.5t16.5 38.5z" />
    <glyph glyph-name="Aring.3" unicode="&#xe01c;" horiz-adv-x="668" 
d="M463 856q0 -51 -36.5 -87t-87.5 -36q-52 0 -88.5 36t-36.5 87q0 52 36.5 88.5t88.5 36.5q51 0 87.5 -36.5t36.5 -88.5zM394 856q0 24 -16 40.5t-39 16.5t-39 -16.5t-16 -40.5q0 -23 16 -39t39 -16t39 16.5t16 38.5zM323 536q-81 0 -182 -52q-20 -10 -26 5l-51 112
q-7 14 7 23q43 27 114 46.5t153 19.5q141 0 209 -77q59 -67 59 -187v-408q0 -8 -5 -13t-13 -5h-127q-7 0 -12.5 5t-5.5 13v22h-6q-39 -27 -76.5 -38.5t-105.5 -11.5q-83 0 -141 47q-72 57 -72 153q0 108 95 166q98 58 293 66v4q0 56 -27 83t-80 27zM232 198q0 -32 25 -48
q25 -14 64 -14q57 0 109 41v109q-93 -5 -138 -23q-60 -24 -60 -65z" />
    <glyph glyph-name="Aring.calt" unicode="&#xe01d;" horiz-adv-x="648" 
d="M218 123l-31 -103q-6 -20 -30 -20h-138q-16 0 -16 14q0 3 2 11l219 641q6 18 28 18h148q22 0 28 -18l215 -641q2 -8 2 -11q0 -14 -16 -14h-142q-24 0 -30 20l-30 103h-209zM385 264l-61 207l-63 -207h124zM449 856q0 -51 -36.5 -87t-87.5 -36q-52 0 -88.5 36t-36.5 87
q0 52 36.5 88.5t88.5 36.5q51 0 87.5 -36.5t36.5 -88.5zM380 856q0 24 -16 40.5t-39 16.5t-39 -16.5t-16 -40.5q0 -23 16 -39t39 -16t39 16.5t16 38.5z" />
    <glyph glyph-name="Asmall.2" unicode="&#xe01e;" horiz-adv-x="602" 
d="M300 401q-36 0 -57 -22q-20 -22 -20 -59v-43h156v43q0 37 -20 59q-21 22 -59 22zM541 327v-309q0 -8 -5.5 -13t-12.5 -5h-126q-7 0 -12.5 5t-5.5 13v120h-156v-120q0 -8 -5.5 -13t-12.5 -5h-126q-7 0 -12.5 5t-5.5 13v309q0 97 66 161q67 64 173 64q108 0 175 -64
q66 -64 66 -161z" />
    <glyph glyph-name="Asmall.3" unicode="&#xe01f;" horiz-adv-x="569" 
d="M263 130q43 0 83 25v58q-60 -2 -93 -12q-42 -12 -42 -37q0 -19 16 -27q13 -7 36 -7zM508 337v-319q0 -8 -5 -13t-13 -5h-108q-8 0 -13 5t-5 13v11h-6q-58 -37 -140 -37q-68 0 -116 39q-57 47 -57 127q0 102 95 148q69 34 205 38v4q0 29 -16 44q-17 17 -52 17
q-55 0 -137 -42q-20 -10 -26 5l-46 100q-7 14 7 23q92 57 216 57q113 0 170 -64q47 -53 47 -151z" />
    <glyph glyph-name="Asmall.calt" unicode="&#xe020;" horiz-adv-x="540" 
d="M192 95l-23 -75q-6 -20 -30 -20h-124q-16 0 -16 14q0 3 2 11l184 501q6 18 28 18h122q22 0 28 -18l176 -501q2 -8 2 -11q0 -14 -16 -14h-122q-24 0 -30 20l-24 75h-157zM311 220l-39 124l-40 -124h79z" />
    <glyph glyph-name="Asmallacute" unicode="&#xe021;" horiz-adv-x="602" 
d="M300 401q-36 0 -57 -22q-20 -22 -20 -59v-32h156v32q0 37 -20 59q-21 22 -59 22zM541 327v-309q0 -8 -5.5 -13t-12.5 -5h-126q-7 0 -12.5 5t-5.5 13v131h-156v-131q0 -8 -5.5 -13t-12.5 -5h-126q-7 0 -12.5 5t-5.5 13v309q0 97 66 161q67 64 173 64q108 0 175 -64
q66 -64 66 -161zM295 829h110q17 0 17 -15q0 -4 -4 -12l-95 -152q-11 -18 -27 -18h-84q-16 0 -16 15q0 5 6 19l68 145q9 18 25 18z" />
    <glyph glyph-name="Asmallacute.2" unicode="&#xe022;" horiz-adv-x="602" 
d="M300 401q-36 0 -57 -22q-20 -22 -20 -59v-43h156v43q0 37 -20 59q-21 22 -59 22zM541 327v-309q0 -8 -5.5 -13t-12.5 -5h-126q-7 0 -12.5 5t-5.5 13v120h-156v-120q0 -8 -5.5 -13t-12.5 -5h-126q-7 0 -12.5 5t-5.5 13v309q0 97 66 161q67 64 173 64q108 0 175 -64
q66 -64 66 -161zM305 829h110q17 0 17 -15q0 -4 -4 -12l-95 -152q-11 -18 -27 -18h-84q-16 0 -16 15q0 5 6 19l68 145q9 18 25 18z" />
    <glyph glyph-name="Asmallacute.3" unicode="&#xe023;" horiz-adv-x="569" 
d="M263 130q43 0 83 25v58q-60 -2 -93 -12q-42 -12 -42 -37q0 -19 16 -27q13 -7 36 -7zM508 337v-319q0 -8 -5 -13t-13 -5h-108q-8 0 -13 5t-5 13v11h-6q-58 -37 -140 -37q-68 0 -116 39q-57 47 -57 127q0 102 95 148q69 34 205 38v4q0 29 -16 44q-17 17 -52 17
q-55 0 -137 -42q-20 -10 -26 5l-46 100q-7 14 7 23q92 57 216 57q113 0 170 -64q47 -53 47 -151zM275 829h110q17 0 17 -15q0 -4 -4 -12l-95 -152q-11 -18 -27 -18h-84q-16 0 -16 15q0 5 6 19l68 145q9 18 25 18z" />
    <glyph glyph-name="Asmallacute.calt" unicode="&#xe024;" horiz-adv-x="540" 
d="M192 95l-23 -75q-6 -20 -30 -20h-124q-16 0 -16 14q0 3 2 11l184 501q6 18 28 18h122q22 0 28 -18l176 -501q2 -8 2 -11q0 -14 -16 -14h-122q-24 0 -30 20l-24 75h-157zM311 220l-39 124l-40 -124h79zM258 829h110q17 0 17 -15q0 -4 -4 -12l-95 -152q-11 -18 -27 -18h-84
q-16 0 -16 15q0 5 6 19l68 145q9 18 25 18z" />
    <glyph glyph-name="Asmallbreve" unicode="&#xe025;" horiz-adv-x="602" 
d="M299 738q53 0 63 51q3 18 20 18h58q21 0 21 -19q0 -68 -42.5 -116t-119.5 -48t-119.5 48t-42.5 116q0 19 21 19h58q17 0 20 -18q10 -51 63 -51zM300 401q-36 0 -57 -22q-20 -22 -20 -59v-32h156v32q0 37 -20 59q-21 22 -59 22zM541 327v-309q0 -8 -5.5 -13t-12.5 -5h-126
q-7 0 -12.5 5t-5.5 13v131h-156v-131q0 -8 -5.5 -13t-12.5 -5h-126q-7 0 -12.5 5t-5.5 13v309q0 97 66 161q67 64 173 64q108 0 175 -64q66 -64 66 -161z" />
    <glyph glyph-name="Asmallbreve.2" unicode="&#xe026;" horiz-adv-x="602" 
d="M299 738q53 0 63 51q3 18 20 18h58q21 0 21 -19q0 -68 -42.5 -116t-119.5 -48t-119.5 48t-42.5 116q0 19 21 19h58q17 0 20 -18q10 -51 63 -51zM300 401q-36 0 -57 -22q-20 -22 -20 -59v-43h156v43q0 37 -20 59q-21 22 -59 22zM541 327v-309q0 -8 -5.5 -13t-12.5 -5h-126
q-7 0 -12.5 5t-5.5 13v120h-156v-120q0 -8 -5.5 -13t-12.5 -5h-126q-7 0 -12.5 5t-5.5 13v309q0 97 66 161q67 64 173 64q108 0 175 -64q66 -64 66 -161z" />
    <glyph glyph-name="Asmallbreve.3" unicode="&#xe027;" horiz-adv-x="569" 
d="M284 738q53 0 63 51q3 18 20 18h58q21 0 21 -19q0 -68 -42.5 -116t-119.5 -48t-119.5 48t-42.5 116q0 19 21 19h58q17 0 20 -18q10 -51 63 -51zM263 130q43 0 83 25v58q-60 -2 -93 -12q-42 -12 -42 -37q0 -19 16 -27q13 -7 36 -7zM508 337v-319q0 -8 -5 -13t-13 -5h-108
q-8 0 -13 5t-5 13v11h-6q-58 -37 -140 -37q-68 0 -116 39q-57 47 -57 127q0 102 95 148q69 34 205 38v4q0 29 -16 44q-17 17 -52 17q-55 0 -137 -42q-20 -10 -26 5l-46 100q-7 14 7 23q92 57 216 57q113 0 170 -64q47 -53 47 -151z" />
    <glyph glyph-name="Asmallbreve.calt" unicode="&#xe028;" horiz-adv-x="540" 
d="M270 738q53 0 63 51q3 18 20 18h58q21 0 21 -19q0 -68 -42.5 -116t-119.5 -48t-119.5 48t-42.5 116q0 19 21 19h58q17 0 20 -18q10 -51 63 -51zM192 95l-23 -75q-6 -20 -30 -20h-124q-16 0 -16 14q0 3 2 11l184 501q6 18 28 18h122q22 0 28 -18l176 -501q2 -8 2 -11
q0 -14 -16 -14h-122q-24 0 -30 20l-24 75h-157zM311 220l-39 124l-40 -124h79z" />
    <glyph glyph-name="Asmallcircumflex" unicode="&#xe029;" horiz-adv-x="602" 
d="M300 401q-36 0 -57 -22q-20 -22 -20 -59v-32h156v32q0 37 -20 59q-21 22 -59 22zM541 327v-309q0 -8 -5.5 -13t-12.5 -5h-126q-7 0 -12.5 5t-5.5 13v131h-156v-131q0 -8 -5.5 -13t-12.5 -5h-126q-7 0 -12.5 5t-5.5 13v309q0 97 66 161q67 64 173 64q108 0 175 -64
q66 -64 66 -161zM273 828h56q13 0 24 -13l138 -158q8 -10 5.5 -18t-13.5 -8h-102q-18 0 -32 17l-48 56l-48 -56q-14 -17 -32 -17h-102q-11 0 -13.5 8t5.5 18l138 158q11 13 24 13z" />
    <glyph glyph-name="Asmallcircumflex.2" unicode="&#xe02a;" horiz-adv-x="602" 
d="M300 401q-36 0 -57 -22q-20 -22 -20 -59v-43h156v43q0 37 -20 59q-21 22 -59 22zM541 327v-309q0 -8 -5.5 -13t-12.5 -5h-126q-7 0 -12.5 5t-5.5 13v120h-156v-120q0 -8 -5.5 -13t-12.5 -5h-126q-7 0 -12.5 5t-5.5 13v309q0 97 66 161q67 64 173 64q108 0 175 -64
q66 -64 66 -161zM273 828h56q13 0 24 -13l138 -158q8 -10 5.5 -18t-13.5 -8h-102q-18 0 -32 17l-48 56l-48 -56q-14 -17 -32 -17h-102q-11 0 -13.5 8t5.5 18l138 158q11 13 24 13z" />
    <glyph glyph-name="Asmallcircumflex.3" unicode="&#xe02b;" horiz-adv-x="569" 
d="M263 130q43 0 83 25v58q-60 -2 -93 -12q-42 -12 -42 -37q0 -19 16 -27q13 -7 36 -7zM508 337v-319q0 -8 -5 -13t-13 -5h-108q-8 0 -13 5t-5 13v11h-6q-58 -37 -140 -37q-68 0 -116 39q-57 47 -57 127q0 102 95 148q69 34 205 38v4q0 29 -16 44q-17 17 -52 17
q-55 0 -137 -42q-20 -10 -26 5l-46 100q-7 14 7 23q92 57 216 57q113 0 170 -64q47 -53 47 -151zM251 828h56q13 0 24 -13l138 -158q8 -10 5.5 -18t-13.5 -8h-102q-18 0 -32 17l-48 56l-48 -56q-14 -17 -32 -17h-102q-11 0 -13.5 8t5.5 18l138 158q11 13 24 13z" />
    <glyph glyph-name="Asmallcircumflex.calt" unicode="&#xe02c;" horiz-adv-x="540" 
d="M192 95l-23 -75q-6 -20 -30 -20h-124q-16 0 -16 14q0 3 2 11l184 501q6 18 28 18h122q22 0 28 -18l176 -501q2 -8 2 -11q0 -14 -16 -14h-122q-24 0 -30 20l-24 75h-157zM311 220l-39 124l-40 -124h79zM242 828h56q13 0 24 -13l138 -158q8 -10 5.5 -18t-13.5 -8h-102
q-18 0 -32 17l-48 56l-48 -56q-14 -17 -32 -17h-102q-11 0 -13.5 8t5.5 18l138 158q11 13 24 13z" />
    <glyph glyph-name="Asmalldieresis" unicode="&#xe02d;" horiz-adv-x="602" 
d="M300 401q-36 0 -57 -22q-20 -22 -20 -59v-32h156v32q0 37 -20 59q-21 22 -59 22zM541 327v-309q0 -8 -5.5 -13t-12.5 -5h-126q-7 0 -12.5 5t-5.5 13v131h-156v-131q0 -8 -5.5 -13t-12.5 -5h-126q-7 0 -12.5 5t-5.5 13v309q0 97 66 161q67 64 173 64q108 0 175 -64
q66 -64 66 -161zM174 625q-38 0 -65 27.5t-27 65.5t27 65t65 27q39 0 66 -27t27 -65t-27 -65.5t-66 -27.5zM428 625q-38 0 -65 27.5t-27 65.5t27 65t65 27t65 -27t27 -65t-27 -65.5t-65 -27.5z" />
    <glyph glyph-name="Asmalldieresis.2" unicode="&#xe02e;" horiz-adv-x="602" 
d="M174 625q-38 0 -65 27.5t-27 65.5t27 65t65 27q39 0 66 -27t27 -65t-27 -65.5t-66 -27.5zM428 625q-38 0 -65 27.5t-27 65.5t27 65t65 27t65 -27t27 -65t-27 -65.5t-65 -27.5zM300 401q-36 0 -57 -22q-20 -22 -20 -59v-43h156v43q0 37 -20 59q-21 22 -59 22zM541 327
v-309q0 -8 -5.5 -13t-12.5 -5h-126q-7 0 -12.5 5t-5.5 13v120h-156v-120q0 -8 -5.5 -13t-12.5 -5h-126q-7 0 -12.5 5t-5.5 13v309q0 97 66 161q67 64 173 64q108 0 175 -64q66 -64 66 -161z" />
    <glyph glyph-name="Asmalldieresis.3" unicode="&#xe02f;" horiz-adv-x="569" 
d="M263 130q43 0 83 25v58q-60 -2 -93 -12q-42 -12 -42 -37q0 -19 16 -27q13 -7 36 -7zM508 337v-319q0 -8 -5 -13t-13 -5h-108q-8 0 -13 5t-5 13v11h-6q-58 -37 -140 -37q-68 0 -116 39q-57 47 -57 127q0 102 95 148q69 34 205 38v4q0 29 -16 44q-17 17 -52 17
q-55 0 -137 -42q-20 -10 -26 5l-46 100q-7 14 7 23q92 57 216 57q113 0 170 -64q47 -53 47 -151zM149 625q-38 0 -65 27.5t-27 65.5t27 65t65 27q39 0 66 -27t27 -65t-27 -65.5t-66 -27.5zM403 625q-38 0 -65 27.5t-27 65.5t27 65t65 27t65 -27t27 -65t-27 -65.5t-65 -27.5z
" />
    <glyph glyph-name="Asmalldieresis.calt" unicode="&#xe030;" horiz-adv-x="540" 
d="M145 625q-38 0 -65 27.5t-27 65.5t27 65t65 27q39 0 66 -27t27 -65t-27 -65.5t-66 -27.5zM399 625q-38 0 -65 27.5t-27 65.5t27 65t65 27t65 -27t27 -65t-27 -65.5t-65 -27.5zM192 95l-23 -75q-6 -20 -30 -20h-124q-16 0 -16 14q0 3 2 11l184 501q6 18 28 18h122
q22 0 28 -18l176 -501q2 -8 2 -11q0 -14 -16 -14h-122q-24 0 -30 20l-24 75h-157zM311 220l-39 124l-40 -124h79z" />
    <glyph glyph-name="Asmallgrave" unicode="&#xe031;" horiz-adv-x="602" 
d="M300 401q-36 0 -57 -22q-20 -22 -20 -59v-32h156v32q0 37 -20 59q-21 22 -59 22zM541 327v-309q0 -8 -5.5 -13t-12.5 -5h-126q-7 0 -12.5 5t-5.5 13v131h-156v-131q0 -8 -5.5 -13t-12.5 -5h-126q-7 0 -12.5 5t-5.5 13v309q0 97 66 161q67 64 173 64q108 0 175 -64
q66 -64 66 -161zM197 829h110q16 0 25 -18l68 -145q6 -14 6 -19q0 -15 -16 -15h-84q-16 0 -27 18l-95 152q-4 5 -4 12q0 15 17 15z" />
    <glyph glyph-name="Asmallgrave.2" unicode="&#xe032;" horiz-adv-x="602" 
d="M197 829h110q16 0 25 -18l68 -145q6 -14 6 -19q0 -15 -16 -15h-84q-16 0 -27 18l-95 152q-4 5 -4 12q0 15 17 15zM300 401q-36 0 -57 -22q-20 -22 -20 -59v-43h156v43q0 37 -20 59q-21 22 -59 22zM541 327v-309q0 -8 -5.5 -13t-12.5 -5h-126q-7 0 -12.5 5t-5.5 13v120
h-156v-120q0 -8 -5.5 -13t-12.5 -5h-126q-7 0 -12.5 5t-5.5 13v309q0 97 66 161q67 64 173 64q108 0 175 -64q66 -64 66 -161z" />
    <glyph glyph-name="Asmallgrave.3" unicode="&#xe033;" horiz-adv-x="569" 
d="M173 829h110q16 0 25 -18l68 -145q6 -14 6 -19q0 -15 -16 -15h-84q-16 0 -27 18l-95 152q-4 5 -4 12q0 15 17 15zM263 130q43 0 83 25v58q-60 -2 -93 -12q-42 -12 -42 -37q0 -19 16 -27q13 -7 36 -7zM508 337v-319q0 -8 -5 -13t-13 -5h-108q-8 0 -13 5t-5 13v11h-6
q-58 -37 -140 -37q-68 0 -116 39q-57 47 -57 127q0 102 95 148q69 34 205 38v4q0 29 -16 44q-17 17 -52 17q-55 0 -137 -42q-20 -10 -26 5l-46 100q-7 14 7 23q92 57 216 57q113 0 170 -64q47 -53 47 -151z" />
    <glyph glyph-name="Asmallgrave.calt" unicode="&#xe034;" horiz-adv-x="540" 
d="M167 829h110q16 0 25 -18l68 -145q6 -14 6 -19q0 -15 -16 -15h-84q-16 0 -27 18l-95 152q-4 5 -4 12q0 15 17 15zM192 95l-23 -75q-6 -20 -30 -20h-124q-16 0 -16 14q0 3 2 11l184 501q6 18 28 18h122q22 0 28 -18l176 -501q2 -8 2 -11q0 -14 -16 -14h-122q-24 0 -30 20
l-24 75h-157zM311 220l-39 124l-40 -124h79z" />
    <glyph glyph-name="Asmallmacron" unicode="&#xe035;" horiz-adv-x="602" 
d="M300 401q-36 0 -57 -22q-20 -22 -20 -59v-32h156v32q0 37 -20 59q-21 22 -59 22zM541 327v-309q0 -8 -5.5 -13t-12.5 -5h-126q-7 0 -12.5 5t-5.5 13v131h-156v-131q0 -8 -5.5 -13t-12.5 -5h-126q-7 0 -12.5 5t-5.5 13v309q0 97 66 161q67 64 173 64q108 0 175 -64
q66 -64 66 -161zM179 768h244q7 0 12.5 -5t5.5 -13v-95q0 -7 -5.5 -12.5t-12.5 -5.5h-244q-7 0 -12.5 5.5t-5.5 12.5v95q0 8 5.5 13t12.5 5z" />
    <glyph glyph-name="Asmallmacron.2" unicode="&#xe036;" horiz-adv-x="602" 
d="M179 768h244q7 0 12.5 -5t5.5 -13v-95q0 -7 -5.5 -12.5t-12.5 -5.5h-244q-7 0 -12.5 5.5t-5.5 12.5v95q0 8 5.5 13t12.5 5zM300 401q-36 0 -57 -22q-20 -22 -20 -59v-43h156v43q0 37 -20 59q-21 22 -59 22zM541 327v-309q0 -8 -5.5 -13t-12.5 -5h-126q-7 0 -12.5 5
t-5.5 13v120h-156v-120q0 -8 -5.5 -13t-12.5 -5h-126q-7 0 -12.5 5t-5.5 13v309q0 97 66 161q67 64 173 64q108 0 175 -64q66 -64 66 -161z" />
    <glyph glyph-name="Asmallmacron.3" unicode="&#xe037;" horiz-adv-x="569" 
d="M263 130q43 0 83 25v58q-60 -2 -93 -12q-42 -12 -42 -37q0 -19 16 -27q13 -7 36 -7zM508 337v-319q0 -8 -5 -13t-13 -5h-108q-8 0 -13 5t-5 13v11h-6q-58 -37 -140 -37q-68 0 -116 39q-57 47 -57 127q0 102 95 148q69 34 205 38v4q0 29 -16 44q-17 17 -52 17
q-55 0 -137 -42q-20 -10 -26 5l-46 100q-7 14 7 23q92 57 216 57q113 0 170 -64q47 -53 47 -151zM155 768h244q7 0 12.5 -5t5.5 -13v-95q0 -7 -5.5 -12.5t-12.5 -5.5h-244q-7 0 -12.5 5.5t-5.5 12.5v95q0 8 5.5 13t12.5 5z" />
    <glyph glyph-name="Asmallmacron.calt" unicode="&#xe038;" horiz-adv-x="540" 
d="M192 95l-23 -75q-6 -20 -30 -20h-124q-16 0 -16 14q0 3 2 11l184 501q6 18 28 18h122q22 0 28 -18l176 -501q2 -8 2 -11q0 -14 -16 -14h-122q-24 0 -30 20l-24 75h-157zM311 220l-39 124l-40 -124h79zM148 768h244q8 0 13 -5t5 -13v-95q0 -7 -5 -12.5t-13 -5.5h-244
q-8 0 -13 5.5t-5 12.5v95q0 8 5 13t13 5z" />
    <glyph glyph-name="Asmallogonek" unicode="&#xe039;" horiz-adv-x="602" 
d="M541 327v-309q0 -8 -5.5 -13t-12.5 -5h-61q-54 -41 -54 -76q0 -32 39 -32q16 0 31.5 4t21.5 4q11 0 11 -12v-65q0 -12 -10 -17q-39 -18 -88 -18t-82 21t-33 69q0 36 24 71t59 59q-2 6 -2 10v131h-156v-131q0 -8 -5.5 -13t-12.5 -5h-126q-7 0 -12.5 5t-5.5 13v309
q0 97 66 161q67 64 173 64q108 0 175 -64q66 -64 66 -161zM300 401q-36 0 -57 -22q-20 -22 -20 -59v-32h156v32q0 37 -20 59q-21 22 -59 22z" />
    <glyph glyph-name="Asmallogonek.2" unicode="&#xe03a;" horiz-adv-x="602" 
d="M447 -108q16 0 31.5 4t21.5 4q11 0 11 -12v-65q0 -12 -10 -17q-39 -18 -88 -18t-82 21t-33 69q0 36 24 71t59 59q-2 6 -2 10v120h-156v-120q0 -8 -5.5 -13t-12.5 -5h-126q-7 0 -12.5 5t-5.5 13v309q0 97 66 161q67 64 173 64q108 0 175 -64q66 -64 66 -161v-309
q0 -8 -5.5 -13t-12.5 -5h-61q-54 -41 -54 -76q0 -32 39 -32zM300 401q-36 0 -57 -22q-20 -22 -20 -59v-43h156v43q0 37 -20 59q-21 22 -59 22z" />
    <glyph glyph-name="Asmallogonek.3" unicode="&#xe03b;" horiz-adv-x="569" 
d="M508 337v-319q0 -8 -5 -13t-13 -5h-49q-54 -41 -54 -76q0 -32 39 -32q16 0 31.5 4t21.5 4q11 0 11 -12v-65q0 -12 -10 -17q-39 -18 -88 -18t-82 21t-33 69q0 37 25.5 73t62.5 60q-1 2 -1 7v11h-6q-58 -37 -140 -37q-68 0 -116 39q-57 47 -57 127q0 102 95 148
q69 34 205 38v4q0 29 -16 44q-17 17 -52 17q-55 0 -137 -42q-20 -10 -26 5l-46 100q-7 14 7 23q92 57 216 57q113 0 170 -64q47 -53 47 -151zM263 130q43 0 83 25v58q-60 -2 -93 -12q-42 -12 -42 -37q0 -19 16 -27q13 -7 36 -7z" />
    <glyph glyph-name="Asmallogonek.calt" unicode="&#xe03c;" horiz-adv-x="540" 
d="M192 95l-23 -75q-6 -20 -30 -20h-124q-16 0 -16 14q0 3 2 11l184 501q6 18 28 18h122q22 0 28 -18l176 -501q2 -8 2 -11q0 -14 -16 -14h-65q-54 -41 -54 -76q0 -32 39 -32q16 0 31.5 4t21.5 4q11 0 11 -12v-65q0 -12 -10 -17q-39 -18 -88 -18t-82 21t-33 69q0 36 24 71
t59 59q-5 4 -6 12l-24 75h-157zM311 220l-39 124l-40 -124h79z" />
    <glyph glyph-name="Asmallring" unicode="&#xe03d;" horiz-adv-x="602" 
d="M426 729q0 -51 -36.5 -87t-87.5 -36q-52 0 -88.5 36t-36.5 87q0 52 36.5 88.5t88.5 36.5q51 0 87.5 -36.5t36.5 -88.5zM357 729q0 24 -16 40.5t-39 16.5t-39 -16.5t-16 -40.5q0 -23 16 -39t39 -16q22 0 38.5 16t16.5 39zM300 401q-36 0 -57 -22q-20 -22 -20 -59v-32h156
v32q0 37 -20 59q-21 22 -59 22zM541 327v-309q0 -8 -5.5 -13t-12.5 -5h-126q-7 0 -12.5 5t-5.5 13v131h-156v-131q0 -8 -5.5 -13t-12.5 -5h-126q-7 0 -12.5 5t-5.5 13v309q0 97 66 161q67 64 173 64q108 0 175 -64q66 -64 66 -161z" />
    <glyph glyph-name="Asmallring.2" unicode="&#xe03e;" horiz-adv-x="602" 
d="M300 401q-36 0 -57 -22q-20 -22 -20 -59v-43h156v43q0 37 -20 59q-21 22 -59 22zM541 327v-309q0 -8 -5.5 -13t-12.5 -5h-126q-7 0 -12.5 5t-5.5 13v120h-156v-120q0 -8 -5.5 -13t-12.5 -5h-126q-7 0 -12.5 5t-5.5 13v309q0 97 66 161q67 64 173 64q108 0 175 -64
q66 -64 66 -161zM426 729q0 -51 -36.5 -87t-87.5 -36q-52 0 -88.5 36t-36.5 87q0 52 36.5 88.5t88.5 36.5q51 0 87.5 -36.5t36.5 -88.5zM357 729q0 24 -16 40.5t-39 16.5t-39 -16.5t-16 -40.5q0 -23 16 -39t39 -16q22 0 38.5 16t16.5 39z" />
    <glyph glyph-name="Asmallring.3" unicode="&#xe03f;" horiz-adv-x="569" 
d="M404 729q0 -51 -36.5 -87t-87.5 -36q-52 0 -88.5 36t-36.5 87q0 52 36.5 88.5t88.5 36.5q51 0 87.5 -36.5t36.5 -88.5zM335 729q0 24 -16 40.5t-39 16.5t-39 -16.5t-16 -40.5q0 -23 16 -39t39 -16q22 0 38.5 16t16.5 39zM263 130q43 0 83 25v58q-60 -2 -93 -12
q-42 -12 -42 -37q0 -19 16 -27q13 -7 36 -7zM508 337v-319q0 -8 -5 -13t-13 -5h-108q-8 0 -13 5t-5 13v11h-6q-58 -37 -140 -37q-68 0 -116 39q-57 47 -57 127q0 102 95 148q69 34 205 38v4q0 29 -16 44q-17 17 -52 17q-55 0 -137 -42q-20 -10 -26 5l-46 100q-7 14 7 23
q92 57 216 57q113 0 170 -64q47 -53 47 -151z" />
    <glyph glyph-name="Asmallring.calt" unicode="&#xe040;" horiz-adv-x="540" 
d="M192 95l-23 -75q-6 -20 -30 -20h-124q-16 0 -16 14q0 3 2 11l184 501q6 18 28 18h122q22 0 28 -18l176 -501q2 -8 2 -11q0 -14 -16 -14h-122q-24 0 -30 20l-24 75h-157zM311 220l-39 124l-40 -124h79zM395 729q0 -51 -36.5 -87t-87.5 -36q-52 0 -88.5 36t-36.5 87
q0 52 36.5 88.5t88.5 36.5q51 0 87.5 -36.5t36.5 -88.5zM326 729q0 24 -16 40.5t-39 16.5t-39 -16.5t-16 -40.5q0 -23 16 -39t39 -16t39 16t16 39z" />
    <glyph glyph-name="Asmalltilde" unicode="&#xe041;" horiz-adv-x="602" 
d="M365 753q28 0 35 36q4 18 18 18h51q21 0 21 -19q0 -66 -28 -105.5t-82 -39.5q-45 0 -85 31q-37 28 -57 28q-28 0 -35 -36q-5 -18 -18 -18h-51q-21 0 -21 19q0 66 28 105.5t82 39.5q42 0 86 -33q36 -26 56 -26zM300 401q-36 0 -57 -22q-20 -22 -20 -59v-32h156v32
q0 37 -20 59q-21 22 -59 22zM541 327v-309q0 -8 -5.5 -13t-12.5 -5h-126q-7 0 -12.5 5t-5.5 13v131h-156v-131q0 -8 -5.5 -13t-12.5 -5h-126q-7 0 -12.5 5t-5.5 13v309q0 97 66 161q67 64 173 64q108 0 175 -64q66 -64 66 -161z" />
    <glyph glyph-name="Asmalltilde.2" unicode="&#xe042;" horiz-adv-x="602" 
d="M300 401q-36 0 -57 -22q-20 -22 -20 -59v-43h156v43q0 37 -20 59q-21 22 -59 22zM541 327v-309q0 -8 -5.5 -13t-12.5 -5h-126q-7 0 -12.5 5t-5.5 13v120h-156v-120q0 -8 -5.5 -13t-12.5 -5h-126q-7 0 -12.5 5t-5.5 13v309q0 97 66 161q67 64 173 64q108 0 175 -64
q66 -64 66 -161zM365 753q28 0 35 36q4 18 18 18h51q21 0 21 -19q0 -66 -28 -105.5t-82 -39.5q-45 0 -85 31q-37 28 -57 28q-28 0 -35 -36q-5 -18 -18 -18h-51q-21 0 -21 19q0 66 28 105.5t82 39.5q42 0 86 -33q36 -26 56 -26z" />
    <glyph glyph-name="Asmalltilde.3" unicode="&#xe043;" horiz-adv-x="569" 
d="M340 753q28 0 35 36q5 18 18 18h51q21 0 21 -19q0 -66 -28 -105.5t-82 -39.5q-45 0 -85 31q-37 28 -57 28q-28 0 -35 -36q-4 -18 -18 -18h-51q-21 0 -21 19q0 66 28 105.5t82 39.5q42 0 86 -33q36 -26 56 -26zM263 130q43 0 83 25v58q-60 -2 -93 -12q-42 -12 -42 -37
q0 -19 16 -27q13 -7 36 -7zM508 337v-319q0 -8 -5 -13t-13 -5h-108q-8 0 -13 5t-5 13v11h-6q-58 -37 -140 -37q-68 0 -116 39q-57 47 -57 127q0 102 95 148q69 34 205 38v4q0 29 -16 44q-17 17 -52 17q-55 0 -137 -42q-20 -10 -26 5l-46 100q-7 14 7 23q92 57 216 57
q113 0 170 -64q47 -53 47 -151z" />
    <glyph glyph-name="Asmalltilde.calt" unicode="&#xe044;" horiz-adv-x="540" 
d="M192 95l-23 -75q-6 -20 -30 -20h-124q-16 0 -16 14q0 3 2 11l184 501q6 18 28 18h122q22 0 28 -18l176 -501q2 -8 2 -11q0 -14 -16 -14h-122q-24 0 -30 20l-24 75h-157zM311 220l-39 124l-40 -124h79zM334 753q28 0 35 36q5 18 18 18h51q21 0 21 -19q0 -66 -28 -105.5
t-82 -39.5q-45 0 -85 31q-37 28 -57 28q-28 0 -35 -36q-4 -18 -18 -18h-51q-21 0 -21 19q0 66 28 105.5t82 39.5q42 0 86 -33q36 -26 56 -26z" />
    <glyph glyph-name="Atilde.2" unicode="&#xe045;" horiz-adv-x="695" 
d="M347 526q-44 0 -73 -25q-35 -33 -35 -98v-65h217v65q0 65 -35 98q-28 25 -74 25zM632 411v-393q0 -8 -5 -13t-13 -5h-140q-8 0 -13 5t-5 13v164h-217v-164q0 -8 -5.5 -13t-12.5 -5h-140q-7 0 -12.5 5t-5.5 13v393q0 65 27.5 125t80.5 100q72 54 176 54q105 0 177 -54
q53 -40 80.5 -100t27.5 -125zM411 893q28 0 35 36q4 18 18 18h51q21 0 21 -19q0 -66 -28 -105.5t-82 -39.5q-45 0 -85 31q-37 28 -57 28q-28 0 -35 -36q-5 -18 -18 -18h-51q-21 0 -21 19q0 66 28 105.5t82 39.5q42 0 86 -33q36 -26 56 -26z" />
    <glyph glyph-name="Atilde.3" unicode="&#xe046;" horiz-adv-x="668" 
d="M390 894q28 0 35 36q5 18 18 18h51q21 0 21 -19q0 -66 -28 -105.5t-82 -39.5q-45 0 -85 31q-37 28 -57 28q-28 0 -35 -36q-4 -18 -18 -18h-51q-21 0 -21 19q0 66 28 105.5t82 39.5q42 0 86 -33q36 -26 56 -26zM323 536q-81 0 -182 -52q-20 -10 -26 5l-51 112q-7 14 7 23
q43 27 114 46.5t153 19.5q141 0 209 -77q59 -67 59 -187v-408q0 -8 -5 -13t-13 -5h-127q-7 0 -12.5 5t-5.5 13v22h-6q-39 -27 -76.5 -38.5t-105.5 -11.5q-83 0 -141 47q-72 57 -72 153q0 108 95 166q98 58 293 66v4q0 56 -27 83t-80 27zM232 198q0 -32 25 -48q25 -14 64 -14
q57 0 109 41v109q-93 -5 -138 -23q-60 -24 -60 -65z" />
    <glyph glyph-name="Atilde.calt" unicode="&#xe047;" horiz-adv-x="648" 
d="M218 123l-31 -103q-6 -20 -30 -20h-138q-16 0 -16 14q0 3 2 11l219 641q6 18 28 18h148q22 0 28 -18l215 -641q2 -8 2 -11q0 -14 -16 -14h-142q-24 0 -30 20l-30 103h-209zM385 264l-61 207l-63 -207h124zM388 894q28 0 35 36q5 18 18 18h51q21 0 21 -19
q0 -66 -28 -105.5t-82 -39.5q-45 0 -85 31q-37 28 -57 28q-28 0 -35 -36q-4 -18 -18 -18h-51q-21 0 -21 19q0 66 28 105.5t82 39.5q42 0 86 -33q36 -26 56 -26z" />
    <glyph glyph-name="B.2" unicode="&#xe048;" horiz-adv-x="662" 
d="M624 186q0 -89 -68.5 -137.5t-160.5 -48.5h-313q-8 0 -13 5t-5 13v645q0 7 5 12.5t13 5.5h249q114 0 174 -46q63 -48 63 -127q0 -104 -83 -143v-4q139 -35 139 -175zM391 477q0 33 -21 49q-16 13 -42 13h-88v-122h80q24 0 41 8q30 15 30 52zM444 209q0 42 -41 58
q-22 9 -62 9h-101v-133h115q35 0 53 7q36 15 36 59z" />
    <glyph glyph-name="Bsmall.2" unicode="&#xe049;" horiz-adv-x="569" 
d="M355 0h-276q-7 0 -12.5 5t-5.5 13v508q0 8 5.5 13t12.5 5h225q89 0 138 -37q51 -39 51 -102q0 -83 -67 -114v-3q112 -28 112 -138q0 -73 -54.5 -111.5t-128.5 -38.5zM333 374q0 19 -16 30q-11 7 -31 7h-63v-73h56q21 0 32 4q22 9 22 32zM373 175q0 29 -33 40q-15 5 -50 5
h-67v-89h78q28 0 43 5q29 10 29 39z" />
    <glyph glyph-name="C.2" unicode="&#xe04a;" horiz-adv-x="693" 
d="M668 499q0 -65 -41 -108.5t-113 -53.5q-18 -2 -22 9l-42 84q-7 15 9 21q33 11 33 39q0 22 -24 35q-19 10 -52 10q-93 0 -148 -63q-47 -52 -47 -131q0 -88 54 -140q54 -51 141 -51t167 40q15 8 22 -7l55 -117q3 -6 1 -13t-8 -10q-99 -53 -231 -53q-184 0 -286 96
q-99 94 -99 255q0 141 92 236q51 54 125 83.5t159 29.5q128 0 197 -59q58 -51 58 -132z" />
    </font>
</defs>
</svg>
